<svg id="Layer_1" data-name="Layer 1" xmlns="http://www.w3.org/2000/svg" viewBox="0 0 1080 1005"><defs><style>.cls-1{fill:#f9f9fa;}.cls-2{fill:#565656;}.cls-3{fill:#3c3c3c;}.cls-4{fill:none;stroke:#3d3d3d;stroke-width:1.01px;opacity:0.5;}.cls-10,.cls-11,.cls-4,.cls-5,.cls-6,.cls-7,.cls-8,.cls-9{stroke-miterlimit:10;}.cls-5{fill:#ecad20;}.cls-10,.cls-11,.cls-5,.cls-6,.cls-7,.cls-8,.cls-9{stroke:#f9f9fa;stroke-width:2px;}.cls-6{fill:#078554;}.cls-7{fill:#95356e;}.cls-8{fill:#1d6a97;}.cls-9{fill:#36a6a5;}.cls-10{fill:#72af47;}.cls-11{fill:#cd503e;}</style></defs><title>web-eng</title><rect class="cls-1" width="1080" height="1005"/><path class="cls-2" d="M43,93.6h2.21v19.6H43Z"/><path class="cls-2" d="M50.56,98.72h2.15v2.52a5.5,5.5,0,0,1,5-2.82c3.5,0,5.54,2.35,5.54,5.79v9H61.06v-8.46c0-2.69-1.46-4.36-4-4.36a4.26,4.26,0,0,0-4.34,4.53v8.29H50.56Z"/><path class="cls-2" d="M75.7,103.46v-.06a9.84,9.84,0,0,1,9.83-10.14,10.31,10.31,0,0,1,7.31,2.61l-1.43,1.68a8.32,8.32,0,0,0-6-2.24c-4.34,0-7.44,3.66-7.44,8v.06c0,4.68,3,8.15,7.75,8.15a9.27,9.27,0,0,0,5.66-2v-4.88h-6v-2h8.1v7.81a11.91,11.91,0,0,1-7.87,3C79.51,113.54,75.7,109.05,75.7,103.46Z"/><path class="cls-2" d="M97.93,107.71v-9h2.16v8.46c0,2.69,1.45,4.37,4,4.37a4.27,4.27,0,0,0,4.34-4.54V98.72h2.13V113.2h-2.13v-2.52a5.5,5.5,0,0,1-5,2.83C100,113.51,97.93,111.16,97.93,107.71Z"/><path class="cls-2" d="M126.24,98.72h2.3l-6.08,15c-1.23,3-2.63,4.08-4.82,4.08a6.66,6.66,0,0,1-3.08-.72l.73-1.71a4.59,4.59,0,0,0,2.27.53c1.29,0,2.1-.67,3-2.72L114,98.72h2.38l5.26,12.07Z"/><path class="cls-2" d="M130.16,109v-.06c0-3,2.52-4.67,6.19-4.67a15.51,15.51,0,0,1,4.45.61v-.5c0-2.6-1.6-3.95-4.31-3.95a10.06,10.06,0,0,0-4.4,1.07l-.64-1.77a11.89,11.89,0,0,1,5.26-1.2,6.38,6.38,0,0,1,4.68,1.59,5.71,5.71,0,0,1,1.48,4.23v8.85H140.8V111a6.37,6.37,0,0,1-5.24,2.49C132.88,113.51,130.16,112,130.16,109Zm10.67-1.12v-1.4a15,15,0,0,0-4.26-.62c-2.71,0-4.23,1.18-4.23,3v.06c0,1.82,1.68,2.88,3.64,2.88C138.64,111.8,140.83,110.18,140.83,107.88Z"/><path class="cls-2" d="M147.46,98.72h2.16v2.52a5.49,5.49,0,0,1,5-2.82c3.5,0,5.54,2.35,5.54,5.79v9H158v-8.46c0-2.69-1.45-4.36-4-4.36a4.26,4.26,0,0,0-4.34,4.53v8.29h-2.16Z"/><path class="cls-2" d="M163.62,109v-.06c0-3,2.52-4.67,6.19-4.67a15.51,15.51,0,0,1,4.45.61v-.5c0-2.6-1.6-3.95-4.31-3.95a10.06,10.06,0,0,0-4.4,1.07l-.64-1.77a11.89,11.89,0,0,1,5.26-1.2,6.38,6.38,0,0,1,4.68,1.59,5.71,5.71,0,0,1,1.48,4.23v8.85h-2.07V111a6.37,6.37,0,0,1-5.24,2.49C166.34,113.51,163.62,112,163.62,109Zm10.67-1.12v-1.4a15,15,0,0,0-4.26-.62c-2.71,0-4.23,1.18-4.23,3v.06c0,1.82,1.68,2.88,3.64,2.88C172.1,111.8,174.29,110.18,174.29,107.88Z"/><path class="cls-2" d="M179.8,115.63c1.4-.5,2-1.23,1.88-2.43h-1v-2.94h2.58v2.52c0,2.27-1,3.36-3.11,3.84Z"/><path class="cls-2" d="M195.29,106V106a7.55,7.55,0,0,1,15.09,0v0a7.52,7.52,0,0,1-7.59,7.57A7.42,7.42,0,0,1,195.29,106Zm12.88,0V106a5.48,5.48,0,0,0-5.38-5.65,5.35,5.35,0,0,0-5.29,5.6v0a5.43,5.43,0,0,0,5.35,5.63A5.34,5.34,0,0,0,208.17,106Z"/><path class="cls-2" d="M214.27,98.72h2.16v2.52a5.48,5.48,0,0,1,4.95-2.82c3.5,0,5.55,2.35,5.55,5.79v9h-2.16v-8.46c0-2.69-1.45-4.36-4-4.36a4.26,4.26,0,0,0-4.34,4.53v8.29h-2.16Z"/><path class="cls-2" d="M231.72,92.76h2.15V113.2h-2.15Z"/><path class="cls-2" d="M249.72,98.72H252l-6.08,15c-1.23,3-2.63,4.08-4.82,4.08A6.66,6.66,0,0,1,238,117l.73-1.71a4.59,4.59,0,0,0,2.27.53c1.29,0,2.1-.67,3-2.72l-6.58-14.42h2.38l5.26,12.07Z"/><path class="cls-2" d="M262.82,110l1.63-1.43a7,7,0,0,0,5.71,2.91c2.38,0,4.28-1.51,4.28-3.81v0c0-2.44-2.27-3.78-5.49-3.78h-1.26l-.44-1.32,6.18-7h-9.57v-2h12.52v1.62l-6.17,6.83c3.42.29,6.47,1.94,6.47,5.52v.06c0,3.5-2.91,5.91-6.55,5.91A8.91,8.91,0,0,1,262.82,110Z"/><path class="cls-2" d="M289.45,93.18h2.46v2.38h-2.46Zm.14,5.54h2.16V113.2h-2.16Z"/><path class="cls-2" d="M296.76,98.72h2.15v2.52a5.51,5.51,0,0,1,5-2.82c3.5,0,5.54,2.35,5.54,5.79v9h-2.15v-8.46c0-2.69-1.46-4.36-4-4.36a4.26,4.26,0,0,0-4.34,4.53v8.29h-2.15Z"/><path class="cls-2" d="M325,95.76l-3.7,1.14-.53-1.79,4.79-1.65h1.62V113.2H325Z"/><path class="cls-2" d="M331.76,103.46v-.06c0-5.49,3.27-10.14,8.31-10.14s8.24,4.6,8.24,10.08v.06c0,5.49-3.25,10.14-8.29,10.14S331.76,108.94,331.76,103.46Zm14.25,0v-.06c0-4.28-2.35-8.12-6-8.12s-6,3.75-6,8.06v.06c0,4.28,2.36,8.12,6,8.12S346,107.74,346,103.46Z"/><path class="cls-2" d="M351.78,103.46v-.06c0-5.49,3.27-10.14,8.31-10.14s8.24,4.6,8.24,10.08v.06c0,5.49-3.25,10.14-8.29,10.14S351.78,108.94,351.78,103.46Zm14.25,0v-.06c0-4.28-2.35-8.12-6-8.12s-6,3.75-6,8.06v.06c0,4.28,2.36,8.12,6,8.12S366,107.74,366,103.46Z"/><path class="cls-2" d="M380.87,98.72H383v2.91a6.53,6.53,0,0,1,5.55-3.21c3.47,0,6.91,2.74,6.91,7.5v0c0,4.74-3.41,7.54-6.91,7.54a6.56,6.56,0,0,1-5.55-3.08v7.25h-2.15Zm12.4,7.28v0c0-3.42-2.35-5.6-5.09-5.6a5.4,5.4,0,0,0-5.24,5.57v0a5.39,5.39,0,0,0,5.24,5.61C391,111.58,393.27,109.5,393.27,106Z"/><path class="cls-2" d="M398.56,106v0c0-4.17,2.94-7.53,6.95-7.53,4.28,0,6.75,3.41,6.75,7.64a5.24,5.24,0,0,1,0,.7H400.75a5.06,5.06,0,0,0,5.09,4.9,6,6,0,0,0,4.57-2l1.34,1.2a7.48,7.48,0,0,1-6,2.72A7.2,7.2,0,0,1,398.56,106Zm11.51-.84c-.22-2.63-1.73-4.92-4.62-4.92-2.52,0-4.42,2.1-4.7,4.92Z"/><path class="cls-2" d="M415.14,106V106a7.55,7.55,0,0,1,15.09,0v0a7.52,7.52,0,0,1-7.59,7.57A7.42,7.42,0,0,1,415.14,106ZM428,106V106a5.48,5.48,0,0,0-5.38-5.65,5.35,5.35,0,0,0-5.29,5.6v0a5.43,5.43,0,0,0,5.35,5.63A5.34,5.34,0,0,0,428,106Z"/><path class="cls-2" d="M434.12,98.72h2.16v2.91a6.51,6.51,0,0,1,5.54-3.21c3.48,0,6.92,2.74,6.92,7.5v0c0,4.74-3.42,7.54-6.92,7.54a6.54,6.54,0,0,1-5.54-3.08v7.25h-2.16ZM446.53,106v0c0-3.42-2.35-5.6-5.1-5.6a5.39,5.39,0,0,0-5.23,5.57v0a5.38,5.38,0,0,0,5.23,5.61C444.23,111.58,446.53,109.5,446.53,106Z"/><path class="cls-2" d="M452.91,92.76h2.16V113.2h-2.16Z"/><path class="cls-2" d="M459.18,106v0c0-4.17,2.94-7.53,6.95-7.53,4.28,0,6.75,3.41,6.75,7.64a5.24,5.24,0,0,1,0,.7H461.37a5.06,5.06,0,0,0,5.09,4.9,6,6,0,0,0,4.57-2l1.34,1.2a7.48,7.48,0,0,1-6,2.72A7.2,7.2,0,0,1,459.18,106Zm11.51-.84c-.22-2.63-1.73-4.92-4.62-4.92-2.52,0-4.42,2.1-4.7,4.92Z"/><path class="cls-2" d="M483.82,98.72h2.3l3.81,11.62,3.89-11.67h1.79l3.92,11.67,3.81-11.62h2.24l-5.1,14.59h-1.87l-3.89-11.42-3.92,11.42h-1.91Z"/><path class="cls-2" d="M509.22,93.18h2.46v2.38h-2.46Zm.14,5.54h2.16V113.2h-2.16Z"/><path class="cls-2" d="M517.28,109.36v-8.73h-2V98.72h2V94.36h2.16v4.36H524v1.91h-4.59v8.45a2.14,2.14,0,0,0,2.44,2.41,4.61,4.61,0,0,0,2.1-.5v1.85a5.47,5.47,0,0,1-2.61.61C519.05,113.45,517.28,112.3,517.28,109.36Z"/><path class="cls-2" d="M527.84,92.76H530v8.48a5.51,5.51,0,0,1,5-2.82c3.5,0,5.54,2.35,5.54,5.79v9h-2.15v-8.46c0-2.69-1.46-4.36-4-4.36a4.26,4.26,0,0,0-4.34,4.53v8.29h-2.15Z"/><path class="cls-2" d="M552.39,109v-.06c0-3,2.52-4.67,6.19-4.67a15.46,15.46,0,0,1,4.45.61v-.5c0-2.6-1.59-3.95-4.31-3.95a10,10,0,0,0-4.39,1.07l-.65-1.77a12,12,0,0,1,5.27-1.2,6.35,6.35,0,0,1,4.67,1.59,5.72,5.72,0,0,1,1.49,4.23v8.85H563V111a6.33,6.33,0,0,1-5.23,2.49C555.11,113.51,552.39,112,552.39,109Zm10.67-1.12v-1.4a15,15,0,0,0-4.25-.62c-2.72,0-4.23,1.18-4.23,3v.06c0,1.82,1.68,2.88,3.64,2.88C560.88,111.8,563.06,110.18,563.06,107.88Z"/><path class="cls-2" d="M569.53,115.72l1-1.68a9.27,9.27,0,0,0,5.57,1.85c3.19,0,5.27-1.77,5.27-5.15V109a6.87,6.87,0,0,1-5.69,3,6.7,6.7,0,0,1-6.8-6.78v0a6.72,6.72,0,0,1,6.8-6.83,6.79,6.79,0,0,1,5.66,2.91V98.72h2.15v12a7,7,0,0,1-1.84,5.12,7.61,7.61,0,0,1-5.52,1.94A11.37,11.37,0,0,1,569.53,115.72Zm11.87-10.44v-.06a5.07,5.07,0,0,0-5.32-4.9,4.79,4.79,0,0,0-5,4.87v.06a4.9,4.9,0,0,0,5,4.93A5.11,5.11,0,0,0,581.4,105.28Z"/><path class="cls-2" d="M587.39,106v0c0-4.17,2.94-7.53,7-7.53,4.28,0,6.75,3.41,6.75,7.64a5.24,5.24,0,0,1,0,.7H589.58a5.06,5.06,0,0,0,5.09,4.9,6,6,0,0,0,4.57-2l1.34,1.2a7.48,7.48,0,0,1-6,2.72A7.2,7.2,0,0,1,587.39,106Zm11.51-.84c-.22-2.63-1.73-4.92-4.62-4.92-2.52,0-4.42,2.1-4.7,4.92Z"/><path class="cls-2" d="M603.66,111.35l1.09-1.54a8.46,8.46,0,0,0,5,1.85c1.73,0,3-.9,3-2.3v0c0-1.46-1.71-2-3.61-2.55-2.27-.64-4.79-1.43-4.79-4.09v0c0-2.5,2.07-4.15,4.93-4.15a9.94,9.94,0,0,1,5.21,1.6l-1,1.62a8.2,8.2,0,0,0-4.29-1.4c-1.7,0-2.8.9-2.8,2.1v.06c0,1.37,1.8,1.9,3.73,2.49,2.24.67,4.65,1.54,4.65,4.14v.06c0,2.74-2.27,4.34-5.16,4.34A10,10,0,0,1,603.66,111.35Z"/><path class="cls-2" d="M629.36,110.43v2.77h-2.15V92.76h2.15v8.87a6.53,6.53,0,0,1,5.55-3.21c3.47,0,6.91,2.74,6.91,7.5v0c0,4.74-3.41,7.54-6.91,7.54A6.55,6.55,0,0,1,629.36,110.43ZM639.61,106v0c0-3.42-2.35-5.6-5.09-5.6a5.4,5.4,0,0,0-5.24,5.57v0a5.39,5.39,0,0,0,5.24,5.61C637.32,111.58,639.61,109.5,639.61,106Z"/><path class="cls-2" d="M644.9,106v0c0-4.17,2.94-7.53,7-7.53,4.28,0,6.75,3.41,6.75,7.64a5.24,5.24,0,0,1,0,.7H647.09a5.06,5.06,0,0,0,5.09,4.9,6,6,0,0,0,4.57-2l1.34,1.2a7.48,7.48,0,0,1-6,2.72A7.2,7.2,0,0,1,644.9,106Zm11.51-.84c-.22-2.63-1.73-4.92-4.62-4.92-2.52,0-4.42,2.1-4.7,4.92Z"/><path class="cls-2" d="M663.13,109.36v-8.73h-2V98.72h2V94.36h2.16v4.36h4.59v1.91h-4.59v8.45a2.14,2.14,0,0,0,2.43,2.41,4.55,4.55,0,0,0,2.1-.5v1.85a5.4,5.4,0,0,1-2.6.61C664.9,113.45,663.13,112.3,663.13,109.36Z"/><path class="cls-2" d="M672.46,98.72h2.29l3.81,11.62,3.89-11.67h1.79l3.92,11.67L692,98.72h2.24l-5.09,14.59h-1.88l-3.89-11.42-3.92,11.42h-1.91Z"/><path class="cls-2" d="M696.2,106v0c0-4.17,2.94-7.53,6.94-7.53,4.29,0,6.75,3.41,6.75,7.64a5.24,5.24,0,0,1,0,.7H698.38a5.06,5.06,0,0,0,5.1,4.9,6,6,0,0,0,4.56-2l1.35,1.2a7.5,7.5,0,0,1-6,2.72A7.2,7.2,0,0,1,696.2,106Zm11.51-.84c-.23-2.63-1.74-4.92-4.62-4.92-2.52,0-4.43,2.1-4.71,4.92Z"/><path class="cls-2" d="M712.78,106v0c0-4.17,2.94-7.53,6.94-7.53,4.28,0,6.75,3.41,6.75,7.64a5.24,5.24,0,0,1,0,.7H715a5.06,5.06,0,0,0,5.1,4.9,6,6,0,0,0,4.56-2l1.34,1.2a7.48,7.48,0,0,1-6,2.72A7.2,7.2,0,0,1,712.78,106Zm11.5-.84c-.22-2.63-1.73-4.92-4.62-4.92-2.52,0-4.42,2.1-4.7,4.92Z"/><path class="cls-2" d="M730.25,98.72h2.15v2.52a5.51,5.51,0,0,1,5-2.82c3.5,0,5.54,2.35,5.54,5.79v9h-2.15v-8.46c0-2.69-1.46-4.36-4-4.36a4.26,4.26,0,0,0-4.34,4.53v8.29h-2.15Z"/><path class="cls-2" d="M758.5,95.76l-3.7,1.14-.53-1.79,4.79-1.65h1.62V113.2H758.5Z"/><path class="cls-2" d="M765,110.43l1.45-1.6a8.23,8.23,0,0,0,5.57,2.69,4.4,4.4,0,0,0,4.74-4.34v-.06c0-2.43-2-4.11-4.88-4.11a8.4,8.4,0,0,0-4.11,1.12l-1.49-1,.56-9.55h11.29v2h-9.35l-.43,6.28a8.81,8.81,0,0,1,3.87-.87c3.81,0,6.78,2.24,6.78,6v.06c0,3.83-2.92,6.44-7,6.44A10,10,0,0,1,765,110.43Z"/><path class="cls-2" d="M790.36,109v-.06c0-3,2.52-4.67,6.19-4.67a15.51,15.51,0,0,1,4.45.61v-.5c0-2.6-1.59-3.95-4.31-3.95a10.06,10.06,0,0,0-4.4,1.07l-.64-1.77a11.92,11.92,0,0,1,5.26-1.2,6.36,6.36,0,0,1,4.68,1.59,5.71,5.71,0,0,1,1.48,4.23v8.85H801V111a6.36,6.36,0,0,1-5.23,2.49C793.08,113.51,790.36,112,790.36,109ZM801,107.88v-1.4a15,15,0,0,0-4.26-.62c-2.71,0-4.22,1.18-4.22,3v.06c0,1.82,1.68,2.88,3.64,2.88C798.85,111.8,801,110.18,801,107.88Z"/><path class="cls-2" d="M807.67,98.72h2.15v2.52a5.5,5.5,0,0,1,5-2.82c3.5,0,5.54,2.35,5.54,5.79v9h-2.15v-8.46c0-2.69-1.46-4.36-4-4.36a4.26,4.26,0,0,0-4.34,4.53v8.29h-2.15Z"/><path class="cls-2" d="M824.07,106v0c0-4.74,3.45-7.53,6.92-7.53a6.51,6.51,0,0,1,5.54,3.08V92.76h2.16V113.2h-2.16v-2.91a6.51,6.51,0,0,1-5.54,3.22C827.52,113.51,824.07,110.76,824.07,106Zm12.55,0v0a5.38,5.38,0,0,0-5.24-5.57c-2.8,0-5.09,2.07-5.09,5.57v0c0,3.42,2.38,5.61,5.09,5.61A5.41,5.41,0,0,0,836.62,106Z"/><path class="cls-2" d="M853.67,111.55c-1.57-1.57-2.46-3.59-2.46-7.59v-.06c0-6,3-10.64,8.14-10.64a8.65,8.65,0,0,1,5.8,2.24l-1.29,1.71a6.83,6.83,0,0,0-4.62-1.93c-3.78,0-5.77,4-5.77,8.4V104a6.42,6.42,0,0,1,5.6-3c3.64,0,6.78,2.35,6.78,6V107c0,3.78-3.05,6.53-7,6.53A7.13,7.13,0,0,1,853.67,111.55Zm9.91-4.45V107c0-2.41-2-4.2-4.79-4.2s-4.9,2.1-4.9,4.28v.06c0,2.49,2.08,4.4,5,4.4A4.44,4.44,0,0,0,863.58,107.1Z"/><path class="cls-2" d="M869.1,110.43l1.45-1.6a8.23,8.23,0,0,0,5.57,2.69,4.4,4.4,0,0,0,4.74-4.34v-.06c0-2.43-2-4.11-4.88-4.11a8.4,8.4,0,0,0-4.11,1.12l-1.49-1,.56-9.55h11.29v2h-9.35l-.42,6.28a8.73,8.73,0,0,1,3.86-.87c3.81,0,6.78,2.24,6.78,6v.06c0,3.83-2.92,6.44-7,6.44A10,10,0,0,1,869.1,110.43Z"/><path class="cls-2" d="M895.56,92.76h2.15v8.48a5.51,5.51,0,0,1,5-2.82c3.5,0,5.54,2.35,5.54,5.79v9h-2.15v-8.46c0-2.69-1.46-4.36-4-4.36a4.26,4.26,0,0,0-4.34,4.53v8.29h-2.15Z"/><path class="cls-2" d="M911.71,109v-.06c0-3,2.52-4.67,6.19-4.67a15.51,15.51,0,0,1,4.45.61v-.5c0-2.6-1.59-3.95-4.31-3.95a10,10,0,0,0-4.39,1.07L913,99.73a12,12,0,0,1,5.27-1.2,6.35,6.35,0,0,1,4.67,1.59,5.71,5.71,0,0,1,1.48,4.23v8.85h-2.07V111a6.35,6.35,0,0,1-5.23,2.49C914.43,113.51,911.71,112,911.71,109Zm10.67-1.12v-1.4a15,15,0,0,0-4.26-.62c-2.71,0-4.22,1.18-4.22,3v.06c0,1.82,1.68,2.88,3.64,2.88C920.2,111.8,922.38,110.18,922.38,107.88Z"/><path class="cls-2" d="M927,98.72h2.38l4.87,12,4.9-12h2.32l-6.3,14.59h-1.9Z"/><path class="cls-2" d="M943.16,106v0c0-4.17,2.94-7.53,6.94-7.53,4.28,0,6.75,3.41,6.75,7.64a5.24,5.24,0,0,1,0,.7H945.34a5.06,5.06,0,0,0,5.1,4.9,6,6,0,0,0,4.56-2l1.34,1.2a7.48,7.48,0,0,1-6,2.72A7.2,7.2,0,0,1,943.16,106Zm11.5-.84c-.22-2.63-1.73-4.92-4.62-4.92-2.52,0-4.42,2.1-4.7,4.92Z"/><path class="cls-2" d="M967.94,109v-.06c0-3,2.52-4.67,6.18-4.67a15.59,15.59,0,0,1,4.46.61v-.5c0-2.6-1.6-3.95-4.32-3.95a10,10,0,0,0-4.39,1.07l-.65-1.77a12,12,0,0,1,5.27-1.2,6.35,6.35,0,0,1,4.67,1.59,5.72,5.72,0,0,1,1.49,4.23v8.85h-2.07V111a6.37,6.37,0,0,1-5.24,2.49C970.65,113.51,967.94,112,967.94,109Zm10.66-1.12v-1.4a15,15,0,0,0-4.25-.62c-2.72,0-4.23,1.18-4.23,3v.06c0,1.82,1.68,2.88,3.64,2.88C976.42,111.8,978.6,110.18,978.6,107.88Z"/><path class="cls-2" d="M42.18,139.71v-9h2.16v8.46c0,2.69,1.46,4.37,4,4.37A4.27,4.27,0,0,0,52.68,139v-8.29h2.13V145.2H52.68v-2.52a5.5,5.5,0,0,1-5,2.83C44.23,145.51,42.18,143.16,42.18,139.71Z"/><path class="cls-2" d="M59.66,130.72h2.15v2.52a5.5,5.5,0,0,1,5-2.82c3.5,0,5.54,2.35,5.54,5.79v9H70.16v-8.46c0-2.69-1.46-4.36-4-4.36a4.26,4.26,0,0,0-4.34,4.53v8.29H59.66Z"/><path class="cls-2" d="M77,125.18h2.46v2.38H77Zm.14,5.54h2.16V145.2H77.1Z"/><path class="cls-2" d="M82.84,130.72h2.38l4.87,12,4.9-12h2.33L91,145.31H89.11Z"/><path class="cls-2" d="M99,138V138c0-4.17,2.94-7.53,6.94-7.53,4.29,0,6.75,3.41,6.75,7.64a5.24,5.24,0,0,1,0,.7H101.15a5.06,5.06,0,0,0,5.1,4.9,6,6,0,0,0,4.56-2l1.35,1.2a7.5,7.5,0,0,1-6,2.72A7.2,7.2,0,0,1,99,138Zm11.51-.84c-.23-2.63-1.74-4.92-4.62-4.92-2.52,0-4.43,2.1-4.71,4.92Z"/><path class="cls-2" d="M116.44,130.72h2.16v3.78a6.2,6.2,0,0,1,5.9-4v2.32h-.16c-3.17,0-5.74,2.27-5.74,6.64v5.77h-2.16Z"/><path class="cls-2" d="M126.58,143.35l1.09-1.54a8.41,8.41,0,0,0,5,1.85c1.74,0,3-.9,3-2.3v-.05c0-1.46-1.71-2-3.62-2.55-2.27-.64-4.79-1.43-4.79-4.09v0c0-2.5,2.08-4.15,4.93-4.15a9.88,9.88,0,0,1,5.21,1.6l-1,1.62a8.14,8.14,0,0,0-4.28-1.4c-1.71,0-2.8.9-2.8,2.1v.06c0,1.37,1.79,1.9,3.72,2.49,2.24.67,4.65,1.54,4.65,4.14v.06c0,2.74-2.27,4.34-5.15,4.34A9.92,9.92,0,0,1,126.58,143.35Z"/><path class="cls-2" d="M141.78,125.18h2.46v2.38h-2.46Zm.14,5.54h2.15V145.2h-2.15Z"/><path class="cls-2" d="M149.84,141.36v-8.73h-2v-1.91h2v-4.36H152v4.36h4.59v1.91H152v8.45a2.14,2.14,0,0,0,2.43,2.41,4.55,4.55,0,0,0,2.1-.5v1.85a5.4,5.4,0,0,1-2.6.61C151.61,145.45,149.84,144.3,149.84,141.36Z"/><path class="cls-2" d="M159.31,141v-.06c0-3.05,2.52-4.67,6.18-4.67a15.59,15.59,0,0,1,4.46.61v-.5c0-2.6-1.6-3.95-4.32-3.95a10,10,0,0,0-4.39,1.07l-.65-1.77a12,12,0,0,1,5.27-1.2,6.35,6.35,0,0,1,4.67,1.59,5.72,5.72,0,0,1,1.49,4.23v8.85H170V143a6.37,6.37,0,0,1-5.24,2.49C162,145.51,159.31,144,159.31,141ZM170,139.88v-1.4a15,15,0,0,0-4.25-.62c-2.72,0-4.23,1.18-4.23,3v.06c0,1.82,1.68,2.88,3.64,2.88C167.79,143.8,170,142.18,170,139.88Z"/><path class="cls-2" d="M176.61,130.72h2.16v3.78a6.2,6.2,0,0,1,5.9-4v2.32h-.16c-3.17,0-5.74,2.27-5.74,6.64v5.77h-2.16Z"/><path class="cls-2" d="M198.79,130.72h2.29l-6.07,15c-1.24,3-2.64,4.08-4.82,4.08a6.66,6.66,0,0,1-3.08-.72l.73-1.71a4.56,4.56,0,0,0,2.27.53c1.28,0,2.1-.67,3-2.72l-6.58-14.42h2.38l5.27,12.07Z"/><path class="cls-2" d="M212.06,138V138c0-4.74,3.44-7.53,6.91-7.53a6.53,6.53,0,0,1,5.55,3.08v-8.74h2.15V145.2h-2.15v-2.91a6.54,6.54,0,0,1-5.55,3.22C215.5,145.51,212.06,142.76,212.06,138Zm12.54,0v-.05a5.38,5.38,0,0,0-5.23-5.57c-2.8,0-5.1,2.07-5.1,5.57V138c0,3.42,2.38,5.61,5.1,5.61A5.41,5.41,0,0,0,224.6,138Z"/><path class="cls-2" d="M230.59,138V138c0-4.17,2.94-7.53,6.95-7.53,4.28,0,6.75,3.41,6.75,7.64a5.24,5.24,0,0,1,0,.7H232.78a5.06,5.06,0,0,0,5.09,4.9,6,6,0,0,0,4.57-2l1.34,1.2a7.48,7.48,0,0,1-6,2.72A7.2,7.2,0,0,1,230.59,138Zm11.51-.84c-.22-2.63-1.73-4.92-4.62-4.92-2.52,0-4.42,2.1-4.7,4.92Z"/><path class="cls-2" d="M247.9,147.72l1-1.68a9.27,9.27,0,0,0,5.57,1.85c3.19,0,5.26-1.77,5.26-5.15V141a6.85,6.85,0,0,1-5.68,3.05,6.7,6.7,0,0,1-6.8-6.78v-.05a6.72,6.72,0,0,1,6.8-6.83,6.79,6.79,0,0,1,5.66,2.91v-2.61h2.15v12A6.94,6.94,0,0,1,260,147.8a7.59,7.59,0,0,1-5.51,1.94A11.37,11.37,0,0,1,247.9,147.72Zm11.87-10.44v-.06a5.07,5.07,0,0,0-5.32-4.9,4.79,4.79,0,0,0-5,4.87v.06a4.9,4.9,0,0,0,5,4.93A5.11,5.11,0,0,0,259.77,137.28Z"/><path class="cls-2" d="M266.66,130.72h2.15v3.78a6.22,6.22,0,0,1,5.91-4v2.32h-.17c-3.16,0-5.74,2.27-5.74,6.64v5.77h-2.15Z"/><path class="cls-2" d="M276.49,138V138c0-4.17,2.94-7.53,6.94-7.53,4.28,0,6.75,3.41,6.75,7.64a5.24,5.24,0,0,1,0,.7H278.67a5.06,5.06,0,0,0,5.1,4.9,6,6,0,0,0,4.56-2l1.34,1.2a7.48,7.48,0,0,1-6,2.72A7.2,7.2,0,0,1,276.49,138Zm11.5-.84c-.22-2.63-1.73-4.92-4.62-4.92-2.52,0-4.42,2.1-4.7,4.92Z"/><path class="cls-2" d="M293.06,138V138c0-4.17,2.94-7.53,6.94-7.53,4.29,0,6.75,3.41,6.75,7.64a5.24,5.24,0,0,1,0,.7H295.24a5.06,5.06,0,0,0,5.1,4.9,6,6,0,0,0,4.56-2l1.35,1.2a7.5,7.5,0,0,1-6,2.72A7.2,7.2,0,0,1,293.06,138Zm11.51-.84c-.23-2.63-1.74-4.92-4.62-4.92-2.52,0-4.43,2.1-4.71,4.92Z"/><path class="cls-2" d="M310,142.26h2.58v2.94H310Z"/><path class="cls-3" d="M42,967.49h4.75c4.68,0,7.9,3.36,7.9,8.31V976c0,4.92-3.22,8.33-7.9,8.33H42Zm1.8,1.66v13.49h2.9c3.67,0,6.07-2.67,6.07-6.65v-.17c0-4-2.4-6.67-6.07-6.67Z"/><path class="cls-3" d="M57,980.67v-.1c0-2.57,1.85-4,4.61-4a10.57,10.57,0,0,1,3.22.5v-.74a2.85,2.85,0,0,0-3.2-3.1,6.93,6.93,0,0,0-3.19.84l-.55-1.41a8.58,8.58,0,0,1,3.94-1,4.75,4.75,0,0,1,3.5,1.25,4.63,4.63,0,0,1,1.2,3.38v8h-1.7v-1.82A4.34,4.34,0,0,1,61,984.56,3.83,3.83,0,0,1,57,980.67Zm7.85-.72v-1.56a8.74,8.74,0,0,0-3-.51c-2,0-3.1,1-3.1,2.62v.07a2.51,2.51,0,0,0,2.66,2.55A3.26,3.26,0,0,0,64.84,980Z"/><path class="cls-3" d="M70.43,981.39v-8.07H68.92v-1.53h1.51v-3.65h1.73v3.65h3.26v1.53H72.16v7.78a1.59,1.59,0,0,0,1.8,1.8,3.61,3.61,0,0,0,1.46-.34v1.49a4.13,4.13,0,0,1-1.87.44A2.81,2.81,0,0,1,70.43,981.39Z"/><path class="cls-3" d="M77.39,980.67v-.1c0-2.57,1.85-4,4.61-4a10.57,10.57,0,0,1,3.22.5v-.74a2.85,2.85,0,0,0-3.2-3.1,6.93,6.93,0,0,0-3.19.84l-.55-1.41a8.58,8.58,0,0,1,3.94-1,4.75,4.75,0,0,1,3.5,1.25,4.63,4.63,0,0,1,1.2,3.38v8h-1.7v-1.82a4.34,4.34,0,0,1-3.82,2.09A3.83,3.83,0,0,1,77.39,980.67Zm7.85-.72v-1.56a8.74,8.74,0,0,0-3-.51c-2,0-3.1,1-3.1,2.62v.07a2.51,2.51,0,0,0,2.66,2.55A3.26,3.26,0,0,0,85.24,980Z"/><path class="cls-3" d="M90.21,971.81h2.16v2.45H90.21Zm0,10h2.16v2.47H90.21Z"/><path class="cls-3" d="M102.3,967.49H108a5.74,5.74,0,0,1,4.15,1.44,3.79,3.79,0,0,1,1.11,2.76v0a4,4,0,0,1-2.76,3.91c2,.58,3.48,1.75,3.48,4v.08c0,2.85-2.33,4.53-5.86,4.53H102.3Zm9.12,4.44c0-1.73-1.29-2.81-3.52-2.81h-3.8V975h3.63c2.23,0,3.69-1.11,3.69-3ZM108,976.61H104.1v6h4.08c2.43,0,4-1.1,4-3v0C112.14,977.72,110.68,976.61,108,976.61Z"/><path class="cls-3" d="M116.73,980v-8.21h1.73v7.7c0,2.23,1.05,3.48,2.87,3.48s3.17-1.41,3.17-3.55v-7.63h1.73v12.5H124.5v-2a4,4,0,0,1-3.69,2.28C118.26,984.53,116.73,982.78,116.73,980Z"/><path class="cls-3" d="M129.11,978.15V978c0-3.82,2.23-6.48,5.16-6.48,3.15,0,5,2.69,5,6.45a6.11,6.11,0,0,1,0,.72h-8.4c.19,2.76,1.9,4.3,3.87,4.3a4.42,4.42,0,0,0,3.24-1.44l1,1.1a5.63,5.63,0,0,1-4.3,1.88C131.61,984.56,129.11,982.11,129.11,978.15Zm8.45-.77c-.12-2.38-1.25-4.32-3.29-4.32-1.85,0-3.24,1.7-3.41,4.32Z"/><path class="cls-3" d="M142.07,971.79h1.73v2.76a4.42,4.42,0,0,1,4.3-2.93v1.87H148c-2.33,0-4.2,1.63-4.2,4.85v5.95h-1.73Z"/><path class="cls-3" d="M149.82,978.15V978c0-3.82,2.23-6.48,5.16-6.48,3.15,0,5,2.69,5,6.45,0,.17,0,.51,0,.72h-8.41c.2,2.76,1.9,4.3,3.87,4.3a4.42,4.42,0,0,0,3.24-1.44l1,1.1a5.61,5.61,0,0,1-4.29,1.88C152.32,984.56,149.82,982.11,149.82,978.15Zm8.45-.77c-.12-2.38-1.25-4.32-3.29-4.32-1.85,0-3.24,1.7-3.41,4.32Z"/><path class="cls-3" d="M162,980.67v-.1c0-2.57,1.84-4,4.6-4a10.52,10.52,0,0,1,3.22.5v-.74a2.84,2.84,0,0,0-3.19-3.1,6.86,6.86,0,0,0-3.19.84l-.56-1.41a8.58,8.58,0,0,1,3.94-1,4.73,4.73,0,0,1,3.5,1.25,4.64,4.64,0,0,1,1.21,3.38v8h-1.71v-1.82a4.33,4.33,0,0,1-3.82,2.09A3.82,3.82,0,0,1,162,980.67Zm7.84-.72v-1.56a8.7,8.7,0,0,0-3-.51c-2,0-3.1,1-3.1,2.62v.07a2.51,2.51,0,0,0,2.67,2.55A3.25,3.25,0,0,0,169.81,980Z"/><path class="cls-3" d="M174.69,980v-8.21h1.72v7.7c0,2.23,1.06,3.48,2.88,3.48s3.17-1.41,3.17-3.55v-7.63h1.73v12.5h-1.73v-2a4,4,0,0,1-3.69,2.28C176.22,984.53,174.69,982.78,174.69,980Z"/><path class="cls-3" d="M193.29,978.15V978c0-3.65,2.35-6.43,5.56-6.43s5.55,2.76,5.55,6.41v.14c0,3.65-2.35,6.46-5.57,6.46S193.29,981.8,193.29,978.15Zm9.36,0V978c0-2.8-1.68-4.89-3.82-4.89s-3.77,2.09-3.77,4.87v.12c0,2.81,1.66,4.9,3.79,4.9S202.65,980.88,202.65,978.12Z"/><path class="cls-3" d="M207.88,973.32h-1.54v-1.51h1.54v-1.15a4.07,4.07,0,0,1,1-2.9,3.27,3.27,0,0,1,2.42-.89,5.34,5.34,0,0,1,1.66.24v1.53a5.22,5.22,0,0,0-1.42-.24c-1.25,0-1.89.77-1.89,2.36v1h3.26v1.51h-3.24v11h-1.75Z"/><path class="cls-3" d="M220.26,982.16l1.13-1.37a6.69,6.69,0,0,0,4.73,2.09c2,0,3.36-1.23,3.36-2.84v0c0-1.39-.67-2.28-3.72-3.36-3.48-1.3-4.85-2.54-4.85-4.92v0c0-2.52,2.11-4.44,5.06-4.44a7.26,7.26,0,0,1,5,1.9l-1.08,1.39a6,6,0,0,0-4-1.63c-1.92,0-3.17,1.17-3.17,2.61v.05c0,1.47.75,2.31,3.92,3.46,3.4,1.27,4.65,2.64,4.65,4.87V980c0,2.69-2.21,4.58-5.21,4.58A8.24,8.24,0,0,1,220.26,982.16Z"/><path class="cls-3" d="M234.83,981.39v-8.07h-1.51v-1.53h1.51v-3.65h1.73v3.65h3.26v1.53h-3.26v7.78a1.59,1.59,0,0,0,1.8,1.8,3.61,3.61,0,0,0,1.46-.34v1.49a4.13,4.13,0,0,1-1.87.44A2.8,2.8,0,0,1,234.83,981.39Z"/><path class="cls-3" d="M241.79,980.67v-.1c0-2.57,1.85-4,4.61-4a10.45,10.45,0,0,1,3.21.5v-.74a2.84,2.84,0,0,0-3.19-3.1,6.86,6.86,0,0,0-3.19.84l-.55-1.41a8.54,8.54,0,0,1,3.93-1,4.76,4.76,0,0,1,3.51,1.25,4.63,4.63,0,0,1,1.2,3.38v8h-1.71v-1.82a4.31,4.31,0,0,1-3.81,2.09A3.83,3.83,0,0,1,241.79,980.67Zm7.85-.72v-1.56a8.76,8.76,0,0,0-3-.51c-2,0-3.09,1-3.09,2.62v.07a2.5,2.5,0,0,0,2.66,2.55A3.26,3.26,0,0,0,249.64,980Z"/><path class="cls-3" d="M255.23,981.39v-8.07h-1.51v-1.53h1.51v-3.65H257v3.65h3.26v1.53H257v7.78a1.59,1.59,0,0,0,1.8,1.8,3.61,3.61,0,0,0,1.46-.34v1.49a4.13,4.13,0,0,1-1.87.44A2.8,2.8,0,0,1,255.23,981.39Z"/><path class="cls-3" d="M263.05,967.18H265v2h-1.92Zm.1,4.61h1.73v12.5h-1.73Z"/><path class="cls-3" d="M267.44,982.76l.92-1.28A5.67,5.67,0,0,0,272,983c1.37,0,2.33-.77,2.33-2v0c0-1.11-1-1.68-2.71-2.38-2-.86-3.58-1.65-3.58-3.6v0c0-2,1.66-3.4,3.89-3.4a6.84,6.84,0,0,1,3.94,1.34l-.84,1.32a5.46,5.46,0,0,0-3.15-1.18c-1.32,0-2.16.77-2.16,1.76v0c0,1.06,1.08,1.59,2.79,2.31,2.06.91,3.5,1.77,3.5,3.67v0c0,2.23-1.8,3.6-4.05,3.6A7,7,0,0,1,267.44,982.76Z"/><path class="cls-3" d="M279.4,981.39v-8.07h-1.52v-1.53h1.52v-3.65h1.72v3.65h3.27v1.53h-3.27v7.78a1.59,1.59,0,0,0,1.8,1.8,3.69,3.69,0,0,0,1.47-.34v1.49a4.13,4.13,0,0,1-1.87.44A2.8,2.8,0,0,1,279.4,981.39Z"/><path class="cls-3" d="M287.22,967.18h1.92v2h-1.92Zm.1,4.61H289v12.5h-1.72Z"/><path class="cls-3" d="M292.07,978.17V978c0-3.79,2.45-6.45,5.57-6.45a5.29,5.29,0,0,1,3.93,1.7l-1,1.3a4,4,0,0,0-2.93-1.42c-2.09,0-3.77,2-3.77,4.87v.12c0,3,1.73,4.85,3.84,4.85a4,4,0,0,0,2.93-1.44l1,1.15a5.13,5.13,0,0,1-4,1.88C294.44,984.56,292.07,982,292.07,978.17Z"/><path class="cls-3" d="M303.06,982.76l.91-1.28a5.7,5.7,0,0,0,3.65,1.52c1.37,0,2.33-.77,2.33-2v0c0-1.11-1-1.68-2.71-2.38-2-.86-3.58-1.65-3.58-3.6v0c0-2,1.66-3.4,3.89-3.4a6.81,6.81,0,0,1,3.93,1.34l-.84,1.32a5.45,5.45,0,0,0-3.14-1.18c-1.32,0-2.16.77-2.16,1.76v0c0,1.06,1.08,1.59,2.78,2.31,2.07.91,3.51,1.77,3.51,3.67v0c0,2.23-1.8,3.6-4.06,3.6A7,7,0,0,1,303.06,982.76Z"/><path class="cls-3" d="M320.27,976v-.17c0-4.87,3.07-8.57,7.49-8.57a7.41,7.41,0,0,1,5.08,1.8l-1.08,1.44a5.73,5.73,0,0,0-4.05-1.56c-3.19,0-5.57,2.88-5.57,6.89v.12c0,4.23,2.28,7,5.74,7a6.05,6.05,0,0,0,3.62-1.2V977h-4.2v-1.61h5.93v7.2a8.66,8.66,0,0,1-5.43,2C323.22,984.53,320.27,981.05,320.27,976Z"/><path class="cls-3" d="M336.51,980v-8.21h1.73v7.7c0,2.23,1.06,3.48,2.88,3.48s3.17-1.41,3.17-3.55v-7.63H346v12.5h-1.73v-2a4,4,0,0,1-3.69,2.28C338.05,984.53,336.51,982.78,336.51,980Z"/><path class="cls-3" d="M357.49,971.79h1.85l-4.44,12.72c-.89,2.59-2,3.48-3.65,3.48a4.67,4.67,0,0,1-2.26-.58l.53-1.44a3.26,3.26,0,0,0,1.63.46c.94,0,1.54-.53,2.16-2.14l-4.8-12.5h1.88l3.74,10.29Z"/><path class="cls-3" d="M361.07,980.67v-.1c0-2.57,1.84-4,4.6-4a10.57,10.57,0,0,1,3.22.5v-.74a2.85,2.85,0,0,0-3.19-3.1,6.86,6.86,0,0,0-3.19.84l-.56-1.41a8.58,8.58,0,0,1,3.94-1,4.73,4.73,0,0,1,3.5,1.25,4.63,4.63,0,0,1,1.2,3.38v8h-1.7v-1.82a4.33,4.33,0,0,1-3.82,2.09A3.82,3.82,0,0,1,361.07,980.67Zm7.84-.72v-1.56a8.74,8.74,0,0,0-3-.51c-2,0-3.1,1-3.1,2.62v.07a2.51,2.51,0,0,0,2.67,2.55A3.25,3.25,0,0,0,368.91,980Z"/><path class="cls-3" d="M374,971.79h1.73v2a4.06,4.06,0,0,1,3.7-2.28c2.54,0,4.08,1.75,4.08,4.56v8.18h-1.73v-7.7c0-2.23-1.06-3.48-2.88-3.48s-3.17,1.44-3.17,3.57v7.61H374Z"/><path class="cls-3" d="M386,980.67v-.1c0-2.57,1.84-4,4.6-4a10.57,10.57,0,0,1,3.22.5v-.74a2.85,2.85,0,0,0-3.19-3.1,6.86,6.86,0,0,0-3.19.84l-.56-1.41a8.58,8.58,0,0,1,3.94-1,4.73,4.73,0,0,1,3.5,1.25,4.63,4.63,0,0,1,1.2,3.38v8h-1.7v-1.82a4.33,4.33,0,0,1-3.82,2.09A3.82,3.82,0,0,1,386,980.67Zm7.84-.72v-1.56a8.74,8.74,0,0,0-3-.51c-2,0-3.1,1-3.1,2.62v.07a2.51,2.51,0,0,0,2.67,2.55A3.25,3.25,0,0,0,393.87,980Z"/><path class="cls-3" d="M404.75,977.38a11.24,11.24,0,0,1,6-10.22l.69,1.12a10.88,10.88,0,0,0,0,18.2l-.69,1.13A11.26,11.26,0,0,1,404.75,977.38Z"/><path class="cls-3" d="M413.46,982.9l5.42-6c2-2.16,2.79-3.38,2.79-4.94a2.89,2.89,0,0,0-3-3c-1.54,0-2.64.81-3.77,2.4l-1.25-1.06a5.87,5.87,0,0,1,5.19-3,4.44,4.44,0,0,1,4.73,4.49v.07c0,2.16-1,3.58-3.39,6.05l-4.2,4.75h7.71v1.68h-10.2Z"/><path class="cls-3" d="M426.22,976v-.19c0-5,2.38-8.59,6.1-8.59s6.07,3.5,6.07,8.54V976c0,5-2.37,8.6-6.09,8.6S426.22,981.05,426.22,976Zm10.33,0v-.19c0-4-1.71-7-4.25-7s-4.23,2.88-4.23,6.91V976c0,4,1.68,7,4.25,7S436.55,980,436.55,976Z"/><path class="cls-3" d="M443.36,969.32l-2.74,1-.31-1.56,3.48-1.32h1.35v16.89h-1.78Z"/><path class="cls-3" d="M456.49,969.17h-7.87v-1.68h9.81v1.37L452,984.29H450Z"/><path class="cls-3" d="M460.57,986.48a10.88,10.88,0,0,0,0-18.2l.69-1.12a11.73,11.73,0,0,1,0,20.45Z"/><path class="cls-3" d="M1014.19,976.37a4,4,0,0,0,1.89-3.57v0a4.08,4.08,0,0,0-1.23-3,6.28,6.28,0,0,0-4.56-1.56h-8v17.27h8.22c4.15,0,6.53-1.77,6.53-4.86v0a4.17,4.17,0,0,0-2.82-4.16m-3.71,5.3h-4.11v-3.15h4c1.64,0,2.47.52,2.47,1.55v0c0,1-.79,1.55-2.35,1.55m-4.11-6.74v-3h3.37c1,0,2.15.25,2.15,1.45v0c0,1-.8,1.51-2.39,1.51Z"/><path class="cls-3" d="M1030.84,968.16h-6.79v17.27h6.79a9.44,9.44,0,0,0,6.6-2.49,8.44,8.44,0,0,0,2.56-6.15v0c0-5-3.85-8.59-9.16-8.59m4.78,8.63v.05a4.51,4.51,0,0,1-4.78,4.74h-2.58V972h2.58a4.52,4.52,0,0,1,4.78,4.78"/><path class="cls-3" d="M1020.28,968.13a2.11,2.11,0,0,1,2.1,2.11v15.19h-4.21v-17.3Z"/><path class="cls-3" d="M984.69,979.41c-2.22,3.6,4.93,3.66,1.62,10.39l-.29.05a14.11,14.11,0,0,1-13.69-21.93c-.36,8.13,14.44,8.12,12.36,11.49m3.16,10c.76-1.41,2.42-3.48,6-7.65,5.31-6.23-10.41-4.14-13.1-8.85-2.22-3.89,6-6.68,11-8.85a14.11,14.11,0,0,1-3.88,25.35m-4.66-17.79c-.53.27.42,1.5,2.84,1.57s-.7-2.7-2.84-1.57m5.35,1.31c-1.82-.59-.62.87.24,1s1-.54-.24-1m1.89,1.42c-.6,0-.71.34.2.54,1.28.27.41-.51-.2-.54"/><line class="cls-4" x1="40" y1="955" x2="1040" y2="955"/><path class="cls-3" d="M40.9,42.16h5L50.2,58l4.71-15.87h4L63.58,58l4.35-15.8h4.83L65.59,65.67h-4L56.83,50.4,52.09,65.67h-4Z"/><path class="cls-3" d="M74.92,56.66V56.6c0-5.14,3.72-9.31,8.73-9.31s8.67,4.11,8.67,9.24v.07c0,5.13-3.72,9.3-8.73,9.3S74.92,61.8,74.92,56.66Zm12.9,0V56.6c0-2.64-1.71-4.94-4.23-4.94s-4.17,2.24-4.17,4.87v.07c0,2.63,1.71,4.93,4.23,4.93S87.82,59.3,87.82,56.66Z"/><path class="cls-3" d="M95.62,47.63h4.56v3.6c.93-2.47,2.43-4.07,5.13-3.94V52.6h-.24c-3,0-4.89,2-4.89,6.3v6.6H95.62Z"/><path class="cls-3" d="M108.16,41.16h4.56v13l5.34-6.5h5.46l-6.12,7,6.33,10.84h-5.28l-4.11-7.34-1.62,1.9V65.5h-4.56Z"/><path class="cls-3" d="M126,41.16h4.8v4.5H126Zm.12,6.47h4.56V65.5h-4.56Z"/><path class="cls-3" d="M135,47.63h4.56v2.53c1.05-1.5,2.4-2.87,4.71-2.87,3.45,0,5.46,2.54,5.46,6.64V65.5h-4.56v-10c0-2.4-1-3.63-2.76-3.63s-2.85,1.23-2.85,3.63v10H135Z"/><path class="cls-3" d="M153.76,69l1.56-3.8a9.66,9.66,0,0,0,5.43,1.64c3.12,0,4.59-1.67,4.59-4.87v-.87a6.11,6.11,0,0,1-5.25,2.9c-3.75,0-7.14-3-7.14-8.33v-.07c0-5.33,3.45-8.34,7.14-8.34A6.29,6.29,0,0,1,165.28,50V47.63h4.56V61.46c0,3.21-.69,5.54-2,7-1.5,1.67-3.81,2.4-6.93,2.4A14,14,0,0,1,153.76,69ZM165.34,55.7v-.07a3.92,3.92,0,1,0-7.83,0v.07a3.87,3.87,0,0,0,3.9,4.13A3.91,3.91,0,0,0,165.34,55.7Z"/><path class="cls-3" d="M173.38,52.73h9.24V57.6h-9.24Z"/><path class="cls-3" d="M185.2,60.37V60.3c0-3.9,2.67-5.7,6.48-5.7a10.47,10.47,0,0,1,3.93.73V55c0-2.1-1.17-3.27-3.45-3.27a10.81,10.81,0,0,0-4.44,1l-1.14-3.87a13.08,13.08,0,0,1,6.24-1.43,7,7,0,0,1,5.43,2,8.33,8.33,0,0,1,1.74,5.7V65.5h-4.41V63.57a5.93,5.93,0,0,1-4.86,2.26A5.2,5.2,0,0,1,185.2,60.37Zm10.47-1.17v-.9a6.47,6.47,0,0,0-2.91-.67c-1.95,0-3.15.87-3.15,2.47v.07c0,1.36,1,2.16,2.49,2.16C194.23,62.33,195.67,61,195.67,59.2Z"/><path class="cls-3" d="M204,69l1.56-3.8A9.66,9.66,0,0,0,211,66.87c3.12,0,4.59-1.67,4.59-4.87v-.87a6.11,6.11,0,0,1-5.25,2.9c-3.75,0-7.14-3-7.14-8.33v-.07c0-5.33,3.45-8.34,7.14-8.34A6.29,6.29,0,0,1,215.53,50V47.63h4.56V61.46c0,3.21-.69,5.54-2,7-1.5,1.67-3.81,2.4-6.93,2.4A14,14,0,0,1,204,69ZM215.59,55.7v-.07a3.92,3.92,0,1,0-7.83,0v.07a3.87,3.87,0,0,0,3.9,4.13A3.91,3.91,0,0,0,215.59,55.7Z"/><path class="cls-3" d="M223.39,56.66V56.6c0-5.1,3.27-9.31,8-9.31,5.37,0,7.83,4.64,7.83,9.71,0,.4,0,.87-.06,1.33H227.92c.45,2.3,1.89,3.5,3.93,3.5a5,5,0,0,0,3.9-1.83l2.61,2.57a7.76,7.76,0,0,1-6.57,3.33C227,65.9,223.39,62.13,223.39,56.66Zm11.34-1.5c-.27-2.26-1.47-3.8-3.39-3.8s-3.12,1.5-3.48,3.8Z"/><path class="cls-3" d="M252,42.16h8.58c5,0,8,3.3,8,8.07v.07c0,5.4-3.77,8.2-8.48,8.2h-3.51v7H252Zm8.28,11.77A3.41,3.41,0,0,0,264,50.4v-.07c0-2.3-1.44-3.54-3.75-3.54h-3.57v7.14Z"/><path class="cls-3" d="M270.82,56.66V56.6c0-5.14,3.72-9.31,8.73-9.31s8.66,4.11,8.66,9.24v.07c0,5.13-3.71,9.3-8.72,9.3S270.82,61.8,270.82,56.66Zm12.89,0V56.6c0-2.64-1.7-4.94-4.22-4.94s-4.17,2.24-4.17,4.87v.07c0,2.63,1.71,4.93,4.23,4.93S283.71,59.3,283.71,56.66Z"/><path class="cls-3" d="M291.52,47.63h4.55V50.2a5.77,5.77,0,0,1,5-2.91c3.75,0,7.32,3.27,7.32,9.24v.07c0,6-3.51,9.23-7.32,9.23a6,6,0,0,1-5-2.66v7.66h-4.55Zm12.32,9v-.07c0-3-1.8-4.93-3.93-4.93s-3.9,2-3.9,4.93v.07c0,3,1.77,4.93,3.9,4.93S303.84,59.6,303.84,56.6Z"/><path class="cls-3" d="M311.64,59.2V47.63h4.56v10c0,2.4,1,3.63,2.76,3.63s2.85-1.23,2.85-3.63v-10h4.56V65.5h-4.56V63c-1.05,1.5-2.4,2.86-4.71,2.86C313.65,65.83,311.64,63.3,311.64,59.2Z"/><path class="cls-3" d="M330.66,41.16h4.56V65.5h-4.56Z"/><path class="cls-3" d="M338.55,60.37V60.3c0-3.9,2.67-5.7,6.48-5.7a10.47,10.47,0,0,1,3.93.73V55c0-2.1-1.17-3.27-3.45-3.27a10.81,10.81,0,0,0-4.44,1l-1.14-3.87a13.08,13.08,0,0,1,6.24-1.43,7,7,0,0,1,5.43,2,8.33,8.33,0,0,1,1.74,5.7V65.5h-4.41V63.57a5.93,5.93,0,0,1-4.86,2.26A5.2,5.2,0,0,1,338.55,60.37ZM349,59.2v-.9a6.47,6.47,0,0,0-2.91-.67c-1.95,0-3.15.87-3.15,2.47v.07c0,1.36,1,2.16,2.49,2.16C347.58,62.33,349,61,349,59.2Z"/><path class="cls-3" d="M358,60.43V52H356.1V47.63H358V43.06h4.56v4.57h3.78V52h-3.78V59.6c0,1.17.45,1.73,1.47,1.73a4.28,4.28,0,0,0,2.25-.63v4.07a6.24,6.24,0,0,1-3.6,1C359.91,65.8,358,64.57,358,60.43Z"/><path class="cls-3" d="M369.81,41.16h4.8v4.5h-4.8Zm.12,6.47h4.56V65.5h-4.56Z"/><path class="cls-3" d="M378,56.66V56.6c0-5.14,3.72-9.31,8.73-9.31s8.67,4.11,8.67,9.24v.07c0,5.13-3.72,9.3-8.73,9.3S378,61.8,378,56.66Zm12.9,0V56.6c0-2.64-1.71-4.94-4.23-4.94s-4.17,2.24-4.17,4.87v.07c0,2.63,1.71,4.93,4.23,4.93S390.9,59.3,390.9,56.66Z"/><path class="cls-3" d="M398.7,47.63h4.56v2.53c1.05-1.5,2.4-2.87,4.71-2.87,3.45,0,5.46,2.54,5.46,6.64V65.5h-4.56v-10c0-2.4-1-3.63-2.76-3.63s-2.85,1.23-2.85,3.63v10H398.7Z"/><path class="cls-3" d="M431,63.17V65.5h-4.56V41.16H431v9a5.77,5.77,0,0,1,5-2.91c3.75,0,7.32,3.27,7.32,9.24v.07c0,6-3.51,9.23-7.32,9.23A6,6,0,0,1,431,63.17Zm7.77-6.57v-.07c0-3-1.8-4.93-3.93-4.93s-3.9,2-3.9,4.93v.07c0,3,1.77,4.93,3.9,4.93S438.72,59.6,438.72,56.6Z"/><path class="cls-3" d="M457.2,47.63h4.74l-6.18,18.3c-1.23,3.64-2.55,5-5.28,5a7,7,0,0,1-4.05-1.23L448,66a3.86,3.86,0,0,0,2,.7c.78,0,1.2-.26,1.59-1.16l-6.3-17.94H450l3.66,12.17Z"/><path class="cls-3" d="M474.12,42.16h4.62V60.83h10.47V65.5H474.12Z"/><path class="cls-3" d="M491.43,56.66V56.6c0-5.1,3.27-9.31,7.95-9.31,5.37,0,7.83,4.64,7.83,9.71,0,.4,0,.87-.06,1.33H496c.45,2.3,1.89,3.5,3.93,3.5a5,5,0,0,0,3.9-1.83l2.61,2.57a7.76,7.76,0,0,1-6.57,3.33C495,65.9,491.43,62.13,491.43,56.66Zm11.34-1.5c-.27-2.26-1.47-3.8-3.39-3.8s-3.12,1.5-3.48,3.8Z"/><path class="cls-3" d="M509.16,47.63H514l3.6,12,3.63-12H526l-6.33,18h-4.14Z"/><path class="cls-3" d="M527.82,56.66V56.6c0-5.1,3.27-9.31,7.95-9.31,5.37,0,7.83,4.64,7.83,9.71,0,.4,0,.87-.06,1.33H532.35c.45,2.3,1.89,3.5,3.93,3.5a5,5,0,0,0,3.9-1.83l2.61,2.57a7.76,7.76,0,0,1-6.57,3.33C531.39,65.9,527.82,62.13,527.82,56.66Zm11.34-1.5c-.27-2.26-1.47-3.8-3.39-3.8s-3.12,1.5-3.48,3.8Z"/><path class="cls-3" d="M547.2,41.16h4.56V65.5H547.2Z"/><path class="cls-3" d="M564.27,56.66V56.6c0-5.14,3.72-9.31,8.73-9.31s8.67,4.11,8.67,9.24v.07c0,5.13-3.72,9.3-8.73,9.3S564.27,61.8,564.27,56.66Zm12.9,0V56.6c0-2.64-1.71-4.94-4.23-4.94s-4.17,2.24-4.17,4.87v.07c0,2.63,1.71,4.93,4.23,4.93S577.17,59.3,577.17,56.66Z"/><path class="cls-3" d="M585.75,52h-1.89V47.8h1.89V46.66A6.31,6.31,0,0,1,587,42.33a4.69,4.69,0,0,1,3.69-1.4,9.16,9.16,0,0,1,3.24.5v4.2a5.21,5.21,0,0,0-2.07-.43c-1,0-1.65.59-1.65,1.93v.7h3.69V52h-3.63V65.5h-4.56Z"/><path class="cls-3" d="M605.91,42.16h15.84v4.57H610.5v4.73h9.9V56h-9.9v4.9h11.4V65.5h-16Z"/><path class="cls-3" d="M624.81,56.6v-.07c0-6,3.51-9.24,7.32-9.24a6,6,0,0,1,5,2.67v-8.8h4.56V65.5h-4.56V62.93a5.76,5.76,0,0,1-5,2.9C628.38,65.83,624.81,62.57,624.81,56.6Zm12.39,0v-.07c0-3-1.77-4.93-3.9-4.93s-3.93,1.93-3.93,4.93v.07c0,3,1.8,4.93,3.93,4.93S637.2,59.56,637.2,56.6Z"/><path class="cls-3" d="M645.66,59.2V47.63h4.55v10c0,2.4,1,3.63,2.77,3.63s2.84-1.23,2.84-3.63v-10h4.56V65.5h-4.56V63c-1.05,1.5-2.4,2.86-4.7,2.86C647.67,65.83,645.66,63.3,645.66,59.2Z"/><path class="cls-3" d="M663.68,56.66V56.6c0-5.1,3.51-9.31,8.43-9.31a7.57,7.57,0,0,1,6.42,3l-2.79,3.33a4.55,4.55,0,0,0-3.66-2c-2.28,0-3.9,2.24-3.9,4.87v.07c0,2.73,1.59,4.93,4.08,4.93a4.89,4.89,0,0,0,3.69-1.9l2.67,3a7.8,7.8,0,0,1-6.57,3.27C667.22,65.9,663.68,61.77,663.68,56.66Z"/><path class="cls-3" d="M680.63,60.37V60.3c0-3.9,2.67-5.7,6.48-5.7a10.47,10.47,0,0,1,3.93.73V55c0-2.1-1.17-3.27-3.45-3.27a10.81,10.81,0,0,0-4.44,1L682,48.86a13.08,13.08,0,0,1,6.24-1.43,7,7,0,0,1,5.43,2,8.33,8.33,0,0,1,1.74,5.7V65.5H691V63.57a5.93,5.93,0,0,1-4.86,2.26A5.2,5.2,0,0,1,680.63,60.37ZM691.1,59.2v-.9a6.47,6.47,0,0,0-2.91-.67c-2,0-3.15.87-3.15,2.47v.07c0,1.36,1,2.16,2.49,2.16C689.66,62.33,691.1,61,691.1,59.2Z"/><path class="cls-3" d="M700.1,60.43V52h-1.92V47.63h1.92V43.06h4.56v4.57h3.78V52h-3.78V59.6c0,1.17.45,1.73,1.47,1.73a4.28,4.28,0,0,0,2.25-.63v4.07a6.24,6.24,0,0,1-3.6,1C702,65.8,700.1,64.57,700.1,60.43Z"/><path class="cls-3" d="M711.89,41.16h4.8v4.5h-4.8Zm.12,6.47h4.56V65.5H712Z"/><path class="cls-3" d="M720.08,56.66V56.6c0-5.14,3.72-9.31,8.73-9.31s8.67,4.11,8.67,9.24v.07c0,5.13-3.72,9.3-8.73,9.3S720.08,61.8,720.08,56.66Zm12.9,0V56.6c0-2.64-1.71-4.94-4.23-4.94s-4.17,2.24-4.17,4.87v.07c0,2.63,1.71,4.93,4.23,4.93S733,59.3,733,56.66Z"/><path class="cls-3" d="M740.78,47.63h4.56v2.53c1-1.5,2.4-2.87,4.71-2.87,3.45,0,5.46,2.54,5.46,6.64V65.5H751v-10c0-2.4-1-3.63-2.76-3.63s-2.85,1.23-2.85,3.63v10h-4.56Z"/><path class="cls-3" d="M768,53.9v-.07c0-6.63,4.5-12.07,11-12.07a10.32,10.32,0,0,1,8.28,3.6l-2.94,3.77a7.42,7.42,0,0,0-5.37-2.63c-3.54,0-6.09,3.26-6.09,7.26v.07c0,4,2.49,7.34,6.09,7.34,2.4,0,3.87-1.07,5.52-2.74l2.94,3.3a10.3,10.3,0,0,1-8.61,4.17C772.61,65.9,768,60.6,768,53.9Z"/><path class="cls-3" d="M789.83,56.66V56.6c0-5.14,3.72-9.31,8.73-9.31s8.67,4.11,8.67,9.24v.07c0,5.13-3.72,9.3-8.73,9.3S789.83,61.8,789.83,56.66Zm12.9,0V56.6c0-2.64-1.71-4.94-4.23-4.94s-4.17,2.24-4.17,4.87v.07c0,2.63,1.71,4.93,4.23,4.93S802.73,59.3,802.73,56.66Z"/><path class="cls-3" d="M810.53,47.63h4.56v2.53c1-1.5,2.43-2.87,4.74-2.87a4.75,4.75,0,0,1,4.53,2.84,6.42,6.42,0,0,1,5.28-2.84c3.39,0,5.43,2.27,5.43,6.57V65.5h-4.56v-10c0-2.4-1-3.63-2.67-3.63s-2.76,1.23-2.76,3.63v10h-4.56v-10c0-2.4-1-3.63-2.67-3.63s-2.76,1.23-2.76,3.63v10h-4.56Z"/><path class="cls-3" d="M839,47.63h4.56V50.2a5.77,5.77,0,0,1,5-2.91c3.75,0,7.32,3.27,7.32,9.24v.07c0,6-3.51,9.23-7.32,9.23a6,6,0,0,1-5-2.66v7.66H839Zm12.33,9v-.07c0-3-1.8-4.93-3.93-4.93s-3.9,2-3.9,4.93v.07c0,3,1.77,4.93,3.9,4.93S851.36,59.6,851.36,56.6Z"/><path class="cls-3" d="M859.49,41.16h4.56V65.5h-4.56Z"/><path class="cls-3" d="M867.56,56.66V56.6c0-5.1,3.27-9.31,8-9.31,5.37,0,7.83,4.64,7.83,9.71,0,.4,0,.87-.06,1.33H872.09c.45,2.3,1.89,3.5,3.93,3.5a5,5,0,0,0,3.9-1.83l2.61,2.57A7.76,7.76,0,0,1,876,65.9C871.13,65.9,867.56,62.13,867.56,56.66Zm11.34-1.5c-.27-2.26-1.47-3.8-3.39-3.8s-3.12,1.5-3.48,3.8Z"/><path class="cls-3" d="M887.48,60.43V52h-1.92V47.63h1.92V43.06H892v4.57h3.78V52H892V59.6c0,1.17.45,1.73,1.47,1.73a4.28,4.28,0,0,0,2.25-.63v4.07a6.24,6.24,0,0,1-3.6,1C889.37,65.8,887.48,64.57,887.48,60.43Z"/><path class="cls-3" d="M898.4,56.66V56.6c0-5.1,3.27-9.31,8-9.31,5.37,0,7.83,4.64,7.83,9.71,0,.4,0,.87-.06,1.33H902.93c.45,2.3,1.89,3.5,3.93,3.5a5,5,0,0,0,3.9-1.83l2.61,2.57a7.76,7.76,0,0,1-6.57,3.33C902,65.9,898.4,62.13,898.4,56.66Zm11.34-1.5c-.27-2.26-1.47-3.8-3.39-3.8s-3.12,1.5-3.48,3.8Z"/><path class="cls-3" d="M916.85,56.6v-.07c0-6,3.51-9.24,7.32-9.24a6,6,0,0,1,5,2.67v-8.8h4.56V65.5h-4.56V62.93a5.76,5.76,0,0,1-5,2.9C920.42,65.83,916.85,62.57,916.85,56.6Zm12.39,0v-.07c0-3-1.77-4.93-3.9-4.93s-3.93,1.93-3.93,4.93v.07c0,3,1.8,4.93,3.93,4.93S929.24,59.56,929.24,56.6Z"/><polygon class="cls-5" points="940 182 840 182 740 182 740 252 840 252 940 252 1040 252 1040 182 940 182"/><polygon class="cls-6" points="740 252 640 252 540 252 440 252 340 252 240 252 240 322 340 322 440 322 540 322 640 322 740 322 840 322 840 252 740 252"/><polygon class="cls-7" points="940 812 840 812 740 812 640 812 540 812 440 812 340 812 240 812 140 812 40 812 40 882 140 882 240 882 340 882 440 882 540 882 640 882 740 882 840 882 940 882 1040 882 1040 812 940 812"/><polygon class="cls-8" points="940 462 840 462 740 462 640 462 540 462 440 462 340 462 240 462 240 532 140 532 40 532 40 602 40 672 40 742 40 812 140 812 240 812 340 812 440 812 540 812 640 812 740 812 840 812 940 812 1040 812 1040 742 1040 672 1040 602 1040 532 1040 462 940 462"/><polygon class="cls-9" points="940 252 840 252 840 322 740 322 640 322 540 322 440 322 340 322 240 322 140 322 40 322 40 392 40 462 40 532 140 532 240 532 240 462 340 462 440 462 540 462 640 462 740 462 840 462 940 462 1040 462 1040 392 1040 322 1040 252 940 252"/><polygon class="cls-10" points="140 252 40 252 40 322 140 322 240 322 240 252 140 252"/><polygon class="cls-11" points="640 182 540 182 440 182 340 182 240 182 140 182 40 182 40 252 140 252 240 252 340 252 440 252 540 252 640 252 740 252 740 182 640 182"/><path class="cls-1" d="M453.29,627.47h6.62c3.94,0,6.39,2.23,6.39,5.62v0c0,3.77-3,5.74-6.72,5.74h-3.34v5.4h-2.95Zm6.38,8.74c2.24,0,3.63-1.25,3.63-3v-.05c0-2-1.42-3-3.63-3h-3.43v6.05Z"/><path class="cls-1" d="M469,631.6h2.9v2.86a4.49,4.49,0,0,1,4.49-3.1v3.07h-.17c-2.54,0-4.32,1.66-4.32,5v4.82H469Z"/><path class="cls-1" d="M479,626.89h3.12v2.76H479Zm.12,4.71H482v12.67h-2.9Z"/><path class="cls-1" d="M485.76,631.6h2.91v1.92a4.53,4.53,0,0,1,3.86-2.19,4,4,0,0,1,3.79,2.24,5.09,5.09,0,0,1,4.27-2.24c2.76,0,4.44,1.76,4.44,4.85v8.09h-2.9v-7.2c0-2-.94-3.1-2.57-3.1s-2.71,1.11-2.71,3.15v7.15H494v-7.22c0-2-1-3.08-2.57-3.08s-2.71,1.2-2.71,3.15v7.15h-2.91Z"/><path class="cls-1" d="M507.72,640.62v0c0-2.74,2.14-4.08,5.23-4.08a10.63,10.63,0,0,1,3.41.52v-.31c0-1.8-1.1-2.76-3.14-2.76a8.86,8.86,0,0,0-3.63.79l-.76-2.28a10.85,10.85,0,0,1,4.77-1,5.64,5.64,0,0,1,4.2,1.42,5.23,5.23,0,0,1,1.37,3.91v7.51h-2.83v-1.58a5.18,5.18,0,0,1-4.13,1.85C509.83,644.54,507.72,643.17,507.72,640.62Zm8.69-.91v-.86a8,8,0,0,0-2.88-.51c-1.87,0-3,.79-3,2.12v0c0,1.23,1.08,1.92,2.48,1.92C515,642.42,516.41,641.32,516.41,639.71Z"/><path class="cls-1" d="M522.65,631.6h2.9v2.86a4.5,4.5,0,0,1,4.49-3.1v3.07h-.17c-2.54,0-4.32,1.66-4.32,5v4.82h-2.9Z"/><path class="cls-1" d="M541.35,631.6h3l-5,13c-1,2.59-2.14,3.55-4.18,3.55a6,6,0,0,1-3-.76l1-2.16a3.63,3.63,0,0,0,1.7.48c.82,0,1.32-.36,1.8-1.44l-5.28-12.7h3.12l3.58,9.41Z"/><path class="cls-1" d="M562.13,640.5h-8.47l-.56-2.11,9.34-11H565v10.73h2.4v2.42H565v3.77h-2.83Zm0-2.42v-6.65l-5.52,6.65Z"/><path class="cls-1" d="M569.76,639.69v-.05c0-2,1.13-3.29,3-4.08a4,4,0,0,1-2.44-3.75v0c0-2.57,2.47-4.54,5.83-4.54s5.83,1.94,5.83,4.54v0a4,4,0,0,1-2.45,3.75c1.85.84,3,2,3,4v0c0,3-2.74,4.87-6.41,4.87S569.76,642.59,569.76,639.69Zm9.94-.17v0c0-1.54-1.54-2.54-3.53-2.54s-3.51,1-3.51,2.54v0c0,1.37,1.3,2.52,3.51,2.52S579.7,640.91,579.7,639.52Zm-.53-7.42v-.05c0-1.29-1.2-2.35-3-2.35s-3,1.06-3,2.33v.05c0,1.46,1.27,2.49,3,2.49S579.17,633.54,579.17,632.1Z"/><path class="cls-1" d="M584.54,646.53c1.47-.29,2.16-1,2.07-2.26h-1.25V641h3.19v2.81c0,2.66-1.27,3.79-3.7,4Z"/><path class="cls-1" d="M591.22,641.61l2.06-1.92a5.49,5.49,0,0,0,4.42,2.21,2.63,2.63,0,0,0,2.9-2.55v-.05c0-1.65-1.51-2.59-3.86-2.59h-1.37l-.48-1.85,4.53-4.82h-7.27v-2.57h11.11v2.21l-4.68,4.8c2.55.31,4.95,1.61,4.95,4.7v.05c0,3.1-2.38,5.33-5.88,5.33A8,8,0,0,1,591.22,641.61Z"/><path class="cls-1" d="M606.17,631.62v0a4,4,0,0,1,4-4.29,4,4,0,0,1,3.94,4.25v0a4.06,4.06,0,0,1-4,4.3A4,4,0,0,1,606.17,631.62Zm14-4.15h2.38l-6.63,8.95-5.66,7.85h-2.38l6.6-8.93Zm-11.86,4.06v0c0,1.37.77,2.45,1.85,2.45s1.8-1.1,1.8-2.4v0c0-1.34-.77-2.44-1.85-2.44S608.3,630.23,608.3,631.53Zm8,8.68v0a4,4,0,1,1,7.92,0v0a4.06,4.06,0,0,1-4,4.29A4,4,0,0,1,616.32,640.21Zm5.78,0v0c0-1.35-.76-2.45-1.84-2.45s-1.8,1.1-1.8,2.4v0c0,1.37.76,2.45,1.84,2.45S622.1,641.51,622.1,640.21Z"/><path class="cls-1" d="M438.33,837.47h2.73l9,11.62V837.47H453v16.8H450.5l-9.27-11.95v11.95h-2.9Z"/><path class="cls-1" d="M456.25,848v0a6.76,6.76,0,0,1,13.52-.05V848a6.63,6.63,0,0,1-6.8,6.6A6.55,6.55,0,0,1,456.25,848Zm10.61,0v0a3.92,3.92,0,0,0-3.89-4.08,3.8,3.8,0,0,0-3.81,4V848A3.91,3.91,0,0,0,463,852,3.8,3.8,0,0,0,466.86,848Z"/><path class="cls-1" d="M478.89,852.62l1.29-2a7.19,7.19,0,0,0,4.15,1.56c1.25,0,2-.53,2-1.37v-.05c0-1-1.34-1.32-2.83-1.78-1.87-.52-4-1.29-4-3.72v0c0-2.4,2-3.87,4.51-3.87a8.78,8.78,0,0,1,4.66,1.44l-1.15,2.07a7.31,7.31,0,0,0-3.58-1.2c-1.13,0-1.78.52-1.78,1.24V845c0,.94,1.37,1.32,2.86,1.8,1.85.58,3.94,1.42,3.94,3.7v0c0,2.66-2.07,4-4.71,4A8.92,8.92,0,0,1,478.89,852.62Z"/><path class="cls-1" d="M491.25,848v0a6.54,6.54,0,0,1,6.6-6.63,6.39,6.39,0,0,1,5.06,2.19l-1.82,1.94a4.28,4.28,0,0,0-3.27-1.58,3.82,3.82,0,0,0-3.67,4V848a3.84,3.84,0,0,0,3.79,4.06,4.45,4.45,0,0,0,3.29-1.56l1.75,1.72a6.39,6.39,0,0,1-5.18,2.38A6.47,6.47,0,0,1,491.25,848Z"/><path class="cls-1" d="M505.65,836.75h2.9v6.79a4.61,4.61,0,0,1,4-2.21c2.86,0,4.51,1.92,4.51,4.85v8.09h-2.9v-7.2c0-2-1-3.1-2.71-3.1a2.83,2.83,0,0,0-2.86,3.15v7.15h-2.9Z"/><path class="cls-1" d="M519.83,848v0a6.76,6.76,0,0,1,13.51-.05V848a6.62,6.62,0,0,1-6.79,6.6A6.55,6.55,0,0,1,519.83,848Zm10.61,0v0a3.92,3.92,0,0,0-3.89-4.08,3.8,3.8,0,0,0-3.82,4V848A3.91,3.91,0,0,0,526.6,852,3.81,3.81,0,0,0,530.44,848Z"/><path class="cls-1" d="M535.6,848v0a6.76,6.76,0,0,1,13.51-.05V848a6.62,6.62,0,0,1-6.79,6.6A6.55,6.55,0,0,1,535.6,848Zm10.61,0v0a3.92,3.92,0,0,0-3.89-4.08,3.8,3.8,0,0,0-3.82,4V848a3.91,3.91,0,0,0,3.87,4.06A3.81,3.81,0,0,0,546.21,848Z"/><path class="cls-1" d="M552.23,836.75h2.9v17.52h-2.9Z"/><path class="cls-1" d="M559,836.89h3.12v2.76H559Zm.12,4.71H562v12.67h-2.91Z"/><path class="cls-1" d="M565.79,841.6h2.9v1.94a4.62,4.62,0,0,1,4-2.21c2.86,0,4.52,1.92,4.52,4.85v8.09h-2.91v-7.2c0-2-1-3.1-2.71-3.1a2.83,2.83,0,0,0-2.86,3.15v7.15h-2.9Z"/><path class="cls-1" d="M580.65,856.65l1.08-2.19a8.28,8.28,0,0,0,4.51,1.35c2.59,0,4-1.35,4-3.89v-1a5.33,5.33,0,0,1-4.47,2.32,5.69,5.69,0,0,1-5.76-5.93v0a5.72,5.72,0,0,1,5.76-6,5.47,5.47,0,0,1,4.44,2.16V841.6h2.91v10.08a6.52,6.52,0,0,1-1.61,4.78,7.14,7.14,0,0,1-5.21,1.7A10.93,10.93,0,0,1,580.65,856.65Zm9.62-9.34v0a3.54,3.54,0,0,0-3.72-3.48,3.42,3.42,0,0,0-3.6,3.48v0a3.45,3.45,0,0,0,3.6,3.48A3.53,3.53,0,0,0,590.27,847.31Z"/><path class="cls-1" d="M613.48,846.57a4.9,4.9,0,0,1-4,1.8c-3.58,0-6-2.09-6-5.33v0c0-3.29,2.55-5.81,6.27-5.81a6.1,6.1,0,0,1,4.68,1.78c1.22,1.25,2,3.09,2,6.41v0c0,5.4-2.67,9.14-7.2,9.14a8,8,0,0,1-5.38-2l1.61-2.25a5.73,5.73,0,0,0,3.84,1.58C612.37,851.87,613.45,848.8,613.48,846.57Zm-.12-3.7v0c0-1.75-1.37-3.09-3.51-3.09a3.08,3.08,0,0,0-3.33,3.12v0c0,1.76,1.34,3,3.43,3A3.11,3.11,0,0,0,613.36,842.87Z"/><path class="cls-1" d="M618.47,856.53c1.46-.29,2.16-1,2.06-2.26h-1.25V851h3.2v2.81c0,2.66-1.28,3.79-3.7,4Z"/><path class="cls-1" d="M635.44,846.57a4.9,4.9,0,0,1-4,1.8c-3.58,0-6-2.09-6-5.33v0c0-3.29,2.55-5.81,6.27-5.81a6.1,6.1,0,0,1,4.68,1.78c1.22,1.25,2,3.09,2,6.41v0c0,5.4-2.67,9.14-7.2,9.14a8,8,0,0,1-5.38-2l1.61-2.25a5.73,5.73,0,0,0,3.84,1.58C634.33,851.87,635.41,848.8,635.44,846.57Zm-.12-3.7v0c0-1.75-1.37-3.09-3.51-3.09a3.08,3.08,0,0,0-3.33,3.12v0c0,1.76,1.34,3,3.43,3A3.11,3.11,0,0,0,635.32,842.87Z"/><path class="cls-1" d="M641,841.62v0a4,4,0,0,1,4-4.29,4,4,0,0,1,3.93,4.25v0a4,4,0,1,1-7.92,0Zm14-4.15h2.37l-6.62,8.95-5.67,7.85h-2.37l6.6-8.93Zm-11.86,4.06v0c0,1.37.77,2.45,1.85,2.45s1.8-1.1,1.8-2.4v0c0-1.34-.77-2.44-1.85-2.44S643.14,840.23,643.14,841.53Zm8,8.68v0a4,4,0,1,1,7.92,0v0a4.06,4.06,0,0,1-4,4.29A4,4,0,0,1,651.16,850.21Zm5.78,0v0c0-1.35-.77-2.45-1.85-2.45s-1.8,1.1-1.8,2.4v0c0,1.37.77,2.45,1.85,2.45S656.94,851.51,656.94,850.21Z"/><path class="cls-1" d="M435.9,396.82l1.78-2.11a7.8,7.8,0,0,0,5.3,2.19c1.83,0,3-.87,3-2.12v0c0-1.2-.67-1.85-3.79-2.57-3.58-.87-5.6-1.92-5.6-5v0c0-2.88,2.4-4.87,5.74-4.87a9.32,9.32,0,0,1,6.1,2.11l-1.59,2.23a7.66,7.66,0,0,0-4.56-1.72c-1.73,0-2.73.88-2.73,2v.05c0,1.29.76,1.87,4,2.64,3.56.86,5.38,2.13,5.38,4.92v.05c0,3.14-2.47,5-6,5A10.36,10.36,0,0,1,435.9,396.82Z"/><path class="cls-1" d="M451.36,393v-.05a6.29,6.29,0,0,1,6.19-6.6c4,0,6.07,3.17,6.07,6.82a7.83,7.83,0,0,1-.05.82h-9.31a3.54,3.54,0,0,0,3.65,3.21,4.57,4.57,0,0,0,3.43-1.51l1.71,1.51a6.42,6.42,0,0,1-5.19,2.38A6.32,6.32,0,0,1,451.36,393Zm9.38-.93c-.19-1.88-1.29-3.34-3.21-3.34s-3,1.37-3.29,3.34Z"/><path class="cls-1" d="M465.85,393V393a6.55,6.55,0,0,1,6.6-6.63,6.4,6.4,0,0,1,5.07,2.19l-1.83,1.94a4.25,4.25,0,0,0-3.26-1.58,3.82,3.82,0,0,0-3.67,4v0a3.84,3.84,0,0,0,3.79,4.06,4.47,4.47,0,0,0,3.29-1.56l1.75,1.72a6.39,6.39,0,0,1-5.18,2.38A6.47,6.47,0,0,1,465.85,393Z"/><path class="cls-1" d="M479.2,393V393a6.76,6.76,0,0,1,13.51,0v0a6.62,6.62,0,0,1-6.79,6.6A6.55,6.55,0,0,1,479.2,393Zm10.61,0V393a3.92,3.92,0,0,0-3.89-4.08,3.8,3.8,0,0,0-3.82,4v0A3.91,3.91,0,0,0,486,397,3.81,3.81,0,0,0,489.81,393Z"/><path class="cls-1" d="M495.66,386.6h2.91v1.94a4.6,4.6,0,0,1,4-2.21c2.85,0,4.51,1.92,4.51,4.85v8.09h-2.91v-7.2c0-2-1-3.1-2.71-3.1s-2.85,1.18-2.85,3.15v7.15h-2.91Z"/><path class="cls-1" d="M509.89,393v0c0-4.2,2.86-6.58,5.88-6.58a5.18,5.18,0,0,1,4.32,2.24v-6.82H523v17.52h-2.91v-2.11a5.06,5.06,0,0,1-4.32,2.38C512.8,399.54,509.89,397.16,509.89,393Zm10.25,0v0a3.81,3.81,0,0,0-3.67-4.06c-2,0-3.65,1.54-3.65,4.06v0a3.77,3.77,0,0,0,3.65,4.06A3.82,3.82,0,0,0,520.14,393Z"/><path class="cls-1" d="M525.8,395.62v0c0-2.74,2.14-4.08,5.24-4.08a10.73,10.73,0,0,1,3.41.52v-.31c0-1.8-1.11-2.76-3.15-2.76a8.78,8.78,0,0,0-3.62.79l-.77-2.28a10.85,10.85,0,0,1,4.77-1,5.63,5.63,0,0,1,4.2,1.42,5.23,5.23,0,0,1,1.37,3.91v7.51h-2.83v-1.58a5.15,5.15,0,0,1-4.13,1.85C527.92,399.54,525.8,398.17,525.8,395.62Zm8.69-.91v-.86a8,8,0,0,0-2.88-.51c-1.87,0-3,.79-3,2.12v0c0,1.23,1.08,1.92,2.47,1.92C533,397.42,534.49,396.32,534.49,394.71Z"/><path class="cls-1" d="M540.73,386.6h2.91v2.86a4.48,4.48,0,0,1,4.48-3.1v3.07H548c-2.55,0-4.32,1.66-4.32,5v4.82h-2.91Z"/><path class="cls-1" d="M559.43,386.6h3l-5,13c-1,2.59-2.13,3.55-4.17,3.55a6,6,0,0,1-3-.76l1-2.16a3.66,3.66,0,0,0,1.7.48c.82,0,1.32-.36,1.8-1.44l-5.28-12.7h3.12l3.58,9.41Z"/><path class="cls-1" d="M571.5,396.94l5.78-4.92c2.31-2,3.15-3,3.15-4.53a2.52,2.52,0,0,0-2.71-2.62c-1.54,0-2.6.84-3.87,2.52l-2.11-1.66c1.61-2.23,3.19-3.5,6.19-3.5,3.29,0,5.55,2,5.55,5v0c0,2.64-1.4,4.09-4.37,6.51l-3.46,2.88h8v2.59H571.5Z"/><path class="cls-1" d="M594.44,395.5H586l-.55-2.11,9.34-11h2.52v10.73h2.4v2.42h-2.4v3.77h-2.84Zm0-2.42v-6.65l-5.52,6.65Z"/><path class="cls-1" d="M601.74,401.53c1.46-.29,2.16-1,2.06-2.26h-1.24V396h3.19v2.81c0,2.66-1.27,3.79-3.7,4Z"/><path class="cls-1" d="M608.41,396.61l2.07-1.92a5.49,5.49,0,0,0,4.41,2.21,2.63,2.63,0,0,0,2.91-2.55v-.05c0-1.65-1.52-2.59-3.87-2.59h-1.37l-.48-1.85,4.54-4.82h-7.27v-2.57h11.11v2.21l-4.68,4.8c2.54.31,4.94,1.61,4.94,4.7v.05c0,3.1-2.37,5.33-5.88,5.33A8,8,0,0,1,608.41,396.61Z"/><path class="cls-1" d="M623.36,386.62v-.05a4,4,0,0,1,4-4.29,4,4,0,0,1,3.93,4.25v0a4,4,0,1,1-7.92.05Zm14-4.15h2.37l-6.62,8.95-5.67,7.85h-2.37l6.6-8.93Zm-11.86,4.06v0c0,1.37.77,2.45,1.85,2.45s1.8-1.1,1.8-2.4v-.05c0-1.34-.77-2.44-1.85-2.44S625.5,385.23,625.5,386.53Zm8,8.68v0a4,4,0,1,1,7.92-.05v.05a4.06,4.06,0,0,1-4,4.29A4,4,0,0,1,633.52,395.21Zm5.78,0v0c0-1.35-.77-2.45-1.85-2.45s-1.8,1.1-1.8,2.4v.05c0,1.37.77,2.45,1.85,2.45S639.3,396.51,639.3,395.21Z"/><path class="cls-1" d="M415.78,277.47h6.62c3.94,0,6.39,2.23,6.39,5.62v0c0,3.77-3,5.74-6.72,5.74h-3.34v5.4h-3Zm6.38,8.74c2.23,0,3.63-1.25,3.63-3v0c0-2-1.42-3-3.63-3h-3.43v6Z"/><path class="cls-1" d="M430.66,288V288a6.76,6.76,0,0,1,13.51,0v0a6.62,6.62,0,0,1-6.79,6.6A6.55,6.55,0,0,1,430.66,288Zm10.61,0V288a3.92,3.92,0,0,0-3.89-4.08,3.8,3.8,0,0,0-3.82,4v0a3.91,3.91,0,0,0,3.87,4.06A3.81,3.81,0,0,0,441.27,288Z"/><path class="cls-1" d="M446.09,292.62l1.3-2a7.16,7.16,0,0,0,4.15,1.56c1.25,0,2-.53,2-1.37v0c0-1-1.35-1.32-2.84-1.78-1.87-.52-4-1.29-4-3.72v0c0-2.4,2-3.87,4.52-3.87a8.75,8.75,0,0,1,4.65,1.44l-1.15,2.07a7.28,7.28,0,0,0-3.58-1.2c-1.12,0-1.77.52-1.77,1.24V285c0,.94,1.37,1.32,2.85,1.8,1.85.58,3.94,1.42,3.94,3.7v0c0,2.66-2.06,4-4.7,4A9,9,0,0,1,446.09,292.62Z"/><path class="cls-1" d="M459.51,290.77v-6.68H457.9V281.6h1.61v-3.48h2.9v3.48h3.41v2.49h-3.41v6.22A1.39,1.39,0,0,0,464,291.9a3.89,3.89,0,0,0,1.8-.44v2.38a5,5,0,0,1-2.62.65C461,294.49,459.51,293.55,459.51,290.77Z"/><path class="cls-1" d="M468.29,285.49h7.1v2.85h-7.1Z"/><path class="cls-1" d="M477.53,292.62l1.3-2a7.16,7.16,0,0,0,4.15,1.56c1.25,0,2-.53,2-1.37v0c0-1-1.35-1.32-2.84-1.78-1.87-.52-4-1.29-4-3.72v0c0-2.4,2-3.87,4.52-3.87a8.75,8.75,0,0,1,4.65,1.44l-1.15,2.07a7.28,7.28,0,0,0-3.58-1.2c-1.12,0-1.77.52-1.77,1.24V285c0,.94,1.37,1.32,2.85,1.8,1.85.58,3.94,1.42,3.94,3.7v0c0,2.66-2.06,4-4.7,4A8.93,8.93,0,0,1,477.53,292.62Z"/><path class="cls-1" d="M489.89,288v-.05a6.29,6.29,0,0,1,6.19-6.6c4,0,6.07,3.17,6.07,6.82,0,.27,0,.53,0,.82h-9.32a3.54,3.54,0,0,0,3.65,3.21,4.56,4.56,0,0,0,3.43-1.51l1.71,1.51a6.42,6.42,0,0,1-5.19,2.38A6.32,6.32,0,0,1,489.89,288Zm9.38-.93c-.19-1.88-1.29-3.34-3.21-3.34s-3,1.37-3.29,3.34Z"/><path class="cls-1" d="M504.38,288V288a6.55,6.55,0,0,1,6.6-6.63,6.4,6.4,0,0,1,5.07,2.19l-1.82,1.94a4.28,4.28,0,0,0-3.27-1.58,3.82,3.82,0,0,0-3.67,4v0a3.84,3.84,0,0,0,3.79,4.06,4.45,4.45,0,0,0,3.29-1.56l1.75,1.72a6.39,6.39,0,0,1-5.18,2.38A6.47,6.47,0,0,1,504.38,288Z"/><path class="cls-1" d="M517.73,288V288a6.76,6.76,0,0,1,13.51,0v0a6.62,6.62,0,0,1-6.79,6.6A6.55,6.55,0,0,1,517.73,288Zm10.61,0V288a3.92,3.92,0,0,0-3.89-4.08,3.8,3.8,0,0,0-3.82,4v0A3.91,3.91,0,0,0,524.5,292,3.81,3.81,0,0,0,528.34,288Z"/><path class="cls-1" d="M534.19,281.6h2.91v1.94a4.6,4.6,0,0,1,4-2.21c2.85,0,4.51,1.92,4.51,4.85v8.09h-2.9v-7.2c0-2-1-3.1-2.72-3.1s-2.85,1.18-2.85,3.15v7.15h-2.91Z"/><path class="cls-1" d="M548.42,288v0c0-4.2,2.86-6.58,5.88-6.58a5.18,5.18,0,0,1,4.32,2.24v-6.82h2.91v17.52h-2.91v-2.11a5.06,5.06,0,0,1-4.32,2.38C551.33,294.54,548.42,292.16,548.42,288Zm10.25,0v0a3.81,3.81,0,0,0-3.67-4.06c-2,0-3.65,1.54-3.65,4.06v0A3.77,3.77,0,0,0,555,292,3.82,3.82,0,0,0,558.67,288Z"/><path class="cls-1" d="M564.34,290.62v0c0-2.74,2.13-4.08,5.23-4.08A10.73,10.73,0,0,1,573,287v-.31c0-1.8-1.11-2.76-3.15-2.76a8.82,8.82,0,0,0-3.62.79l-.77-2.28a10.87,10.87,0,0,1,4.78-1,5.66,5.66,0,0,1,4.2,1.42,5.27,5.27,0,0,1,1.37,3.91v7.51H573v-1.58a5.15,5.15,0,0,1-4.13,1.85C566.45,294.54,564.34,293.17,564.34,290.62Zm8.68-.91v-.86a8,8,0,0,0-2.88-.51c-1.87,0-3,.79-3,2.12v0c0,1.23,1.08,1.92,2.47,1.92C571.56,292.42,573,291.32,573,289.71Z"/><path class="cls-1" d="M579.26,281.6h2.91v2.86a4.48,4.48,0,0,1,4.49-3.1v3.07h-.17c-2.55,0-4.32,1.66-4.32,5v4.82h-2.91Z"/><path class="cls-1" d="M598,281.6h3l-5,13c-1,2.59-2.13,3.55-4.17,3.55a6,6,0,0,1-3-.76l1-2.16a3.7,3.7,0,0,0,1.71.48c.81,0,1.32-.36,1.8-1.44L588,281.6h3.12l3.57,9.41Z"/><path class="cls-1" d="M610,292l1.83-2.13a6.43,6.43,0,0,0,4.32,2c2,0,3.33-1.15,3.33-2.9v-.05c0-1.71-1.44-2.79-3.48-2.79a7.11,7.11,0,0,0-3.09.75l-1.78-1.18.48-8.23h10.06v2.62h-7.51l-.27,3.93a7.12,7.12,0,0,1,2.67-.48c3.26,0,5.85,1.73,5.85,5.28v.05c0,3.43-2.52,5.69-6.24,5.69A8.61,8.61,0,0,1,610,292Z"/><path class="cls-1" d="M624.62,296.53c1.47-.29,2.16-1,2.07-2.26h-1.25V291h3.19v2.81c0,2.66-1.27,3.79-3.69,4Z"/><path class="cls-1" d="M633.67,292.78c-1.27-1.27-2-3-2-6.4v-.05c0-5.14,2.45-9.15,7.2-9.15a7.65,7.65,0,0,1,5.14,1.87l-1.59,2.28a5.52,5.52,0,0,0-3.64-1.46c-2.93,0-4,3.05-4,5.35a5.29,5.29,0,0,1,4-1.7c3.24,0,5.85,1.92,5.85,5.28v.05c0,3.33-2.71,5.71-6.24,5.71A6.26,6.26,0,0,1,633.67,292.78Zm8-3.81v-.05c0-1.68-1.34-2.93-3.43-2.93s-3.41,1.34-3.41,2.95V289c0,1.71,1.39,3,3.48,3S641.64,290.7,641.64,289Z"/><path class="cls-1" d="M647.16,281.62v-.05a4,4,0,0,1,4-4.29,4,4,0,0,1,3.94,4.25v0a4,4,0,1,1-7.92.05Zm14-4.15h2.38l-6.63,8.95-5.66,7.85h-2.38l6.6-8.93Zm-11.86,4.06v0c0,1.37.77,2.45,1.85,2.45s1.8-1.1,1.8-2.4v-.05c0-1.34-.76-2.44-1.84-2.44S649.29,280.23,649.29,281.53Zm8,8.68v0a4.05,4.05,0,0,1,4-4.3,4,4,0,0,1,3.93,4.25v.05a4.06,4.06,0,0,1-4,4.29A4,4,0,0,1,657.31,290.21Zm5.79,0v0c0-1.35-.77-2.45-1.85-2.45s-1.8,1.1-1.8,2.4v.05c0,1.37.77,2.45,1.85,2.45S663.1,291.51,663.1,290.21Z"/><path class="cls-1" d="M818.23,210.21H812.9v-2.74h13.63v2.74h-5.32v14.06h-3Z"/><path class="cls-1" d="M825.88,218v0a6.29,6.29,0,0,1,6.2-6.6c4,0,6.07,3.17,6.07,6.82a7.83,7.83,0,0,1,0,.82h-9.31a3.54,3.54,0,0,0,3.65,3.21,4.59,4.59,0,0,0,3.43-1.51l1.7,1.51a6.4,6.4,0,0,1-5.18,2.38A6.33,6.33,0,0,1,825.88,218Zm9.39-.93c-.19-1.88-1.3-3.34-3.22-3.34-1.77,0-3,1.37-3.28,3.34Z"/><path class="cls-1" d="M841.08,211.6H844v2.86a4.49,4.49,0,0,1,4.49-3.1v3.07h-.17c-2.54,0-4.32,1.66-4.32,5v4.82h-2.9Z"/><path class="cls-1" d="M851.59,220.77v-6.68H850V211.6h1.61v-3.48h2.9v3.48h3.41v2.49h-3.41v6.22a1.39,1.39,0,0,0,1.56,1.59,3.86,3.86,0,0,0,1.8-.44v2.38a5,5,0,0,1-2.61.65C853.1,224.49,851.59,223.55,851.59,220.77Z"/><path class="cls-1" d="M860.9,206.89H864v2.76H860.9Zm.12,4.71h2.9v12.67H861Z"/><path class="cls-1" d="M866.88,220.62v0c0-2.74,2.13-4.08,5.23-4.08a10.68,10.68,0,0,1,3.41.52v-.31c0-1.8-1.11-2.76-3.15-2.76a8.82,8.82,0,0,0-3.62.79l-.77-2.28a10.87,10.87,0,0,1,4.78-1,5.66,5.66,0,0,1,4.2,1.42,5.27,5.27,0,0,1,1.37,3.91v7.51h-2.84v-1.58a5.14,5.14,0,0,1-4.12,1.85C869,224.54,866.88,223.17,866.88,220.62Zm8.69-.91v-.86a8,8,0,0,0-2.89-.51c-1.87,0-3,.79-3,2.12v0c0,1.23,1.08,1.92,2.47,1.92C874.1,222.42,875.57,221.32,875.57,219.71Z"/><path class="cls-1" d="M881.8,211.6h2.91v2.86a4.48,4.48,0,0,1,4.49-3.1v3.07H889c-2.55,0-4.32,1.66-4.32,5v4.82H881.8Z"/><path class="cls-1" d="M900.5,211.6h3l-5,13c-1,2.59-2.14,3.55-4.18,3.55a6,6,0,0,1-3-.76l1-2.16a3.7,3.7,0,0,0,1.71.48c.81,0,1.32-.36,1.8-1.44l-5.28-12.7h3.12l3.57,9.41Z"/><path class="cls-1" d="M912.57,221.94l5.79-4.92c2.3-2,3.14-3,3.14-4.53a2.52,2.52,0,0,0-2.71-2.62c-1.54,0-2.59.84-3.87,2.52l-2.11-1.66c1.61-2.23,3.19-3.5,6.19-3.5,3.29,0,5.55,2,5.55,5v0c0,2.64-1.39,4.09-4.37,6.51l-3.46,2.88h8v2.59H912.57Z"/><path class="cls-1" d="M926.92,226.53c1.47-.29,2.16-1,2.07-2.26h-1.25V221h3.19v2.81c0,2.66-1.27,3.79-3.69,4Z"/><path class="cls-1" d="M933.72,219.69v-.05c0-2,1.12-3.29,3-4.08a4,4,0,0,1-2.45-3.75v0c0-2.57,2.47-4.54,5.83-4.54s5.84,1.94,5.84,4.54v0a4.05,4.05,0,0,1-2.45,3.75c1.85.84,3,2,3,4v0c0,3-2.73,4.87-6.41,4.87S933.72,222.59,933.72,219.69Zm9.93-.17v-.05c0-1.54-1.53-2.54-3.53-2.54s-3.5,1-3.5,2.54v.05c0,1.37,1.3,2.52,3.5,2.52S943.65,220.91,943.65,219.52Zm-.53-7.42v0c0-1.29-1.2-2.35-3-2.35s-3,1.06-3,2.33v.05c0,1.46,1.28,2.49,3,2.49S943.12,213.54,943.12,212.1Z"/><path class="cls-1" d="M948.84,211.62v-.05a4,4,0,0,1,4-4.29,4,4,0,0,1,3.94,4.25v0a4.06,4.06,0,0,1-4,4.3A4,4,0,0,1,948.84,211.62Zm14-4.15h2.38l-6.63,8.95-5.66,7.85h-2.38l6.6-8.93ZM951,211.53v0c0,1.37.77,2.45,1.85,2.45s1.8-1.1,1.8-2.4v-.05c0-1.34-.77-2.44-1.85-2.44S951,210.23,951,211.53Zm8,8.68v0a4,4,0,1,1,7.92,0v0a4.06,4.06,0,0,1-4,4.29A4,4,0,0,1,959,220.21Zm5.78,0v0c0-1.35-.77-2.45-1.85-2.45s-1.8,1.1-1.8,2.4v0c0,1.37.77,2.45,1.85,2.45S964.77,221.51,964.77,220.21Z"/><path class="cls-1" d="M329.37,215.92v0a8.79,8.79,0,0,1,17.57-.05v.05a8.79,8.79,0,0,1-17.57,0Zm14.47,0v0a5.76,5.76,0,0,0-5.71-6,5.68,5.68,0,0,0-5.67,5.93v.05a5.74,5.74,0,0,0,5.71,5.95A5.66,5.66,0,0,0,343.84,215.92Z"/><path class="cls-1" d="M350.77,220.77v-6.68h-1.6V211.6h1.6v-3.48h2.91v3.48h3.41v2.49h-3.41v6.22a1.38,1.38,0,0,0,1.56,1.59,3.89,3.89,0,0,0,1.8-.44v2.38a5,5,0,0,1-2.62.65C352.29,224.49,350.77,223.55,350.77,220.77Z"/><path class="cls-1" d="M360,206.75h2.9v6.79a4.61,4.61,0,0,1,4-2.21c2.86,0,4.51,1.92,4.51,4.85v8.09h-2.9v-7.2c0-2-1-3.1-2.71-3.1a2.83,2.83,0,0,0-2.86,3.15v7.15H360Z"/><path class="cls-1" d="M374.22,218v0a6.29,6.29,0,0,1,6.19-6.6c4,0,6.08,3.17,6.08,6.82,0,.27,0,.53-.05.82h-9.32a3.54,3.54,0,0,0,3.65,3.21,4.59,4.59,0,0,0,3.44-1.51l1.7,1.51a6.42,6.42,0,0,1-5.18,2.38A6.32,6.32,0,0,1,374.22,218Zm9.39-.93c-.2-1.88-1.3-3.34-3.22-3.34s-3,1.37-3.29,3.34Z"/><path class="cls-1" d="M389.41,211.6h2.91v2.86a4.48,4.48,0,0,1,4.49-3.1v3.07h-.17c-2.55,0-4.32,1.66-4.32,5v4.82h-2.91Z"/><path class="cls-1" d="M414.78,210.06h-8.45v-2.59h11.81v2.23l-7.56,14.57h-3.34Z"/><path class="cls-1" d="M417.73,226.53c1.47-.29,2.16-1,2.07-2.26h-1.25V221h3.19v2.81c0,2.66-1.27,3.79-3.7,4Z"/><path class="cls-1" d="M426.44,210.35l-3,.84-.62-2.4,4.53-1.44h2v16.92h-2.93Z"/><path class="cls-1" d="M432.83,211.62v-.05a4,4,0,0,1,4-4.29,4,4,0,0,1,3.94,4.25v0a4.06,4.06,0,0,1-4,4.3A4,4,0,0,1,432.83,211.62Zm14-4.15h2.38l-6.63,8.95-5.66,7.85h-2.38l6.6-8.93ZM435,211.53v0c0,1.37.77,2.45,1.85,2.45s1.8-1.1,1.8-2.4v-.05c0-1.34-.77-2.44-1.85-2.44S435,210.23,435,211.53Zm8,8.68v0a4.05,4.05,0,0,1,4-4.3,4,4,0,0,1,3.93,4.25v0a4.06,4.06,0,0,1-4,4.29A4,4,0,0,1,443,220.21Zm5.79,0v0c0-1.35-.77-2.45-1.85-2.45s-1.8,1.1-1.8,2.4v0c0,1.37.76,2.45,1.85,2.45S448.77,221.51,448.77,220.21Z"/><path class="cls-1" d="M57.32,280.21H52v-2.74H65.63v2.74H60.3v14.06h-3Z"/><path class="cls-1" d="M65,288v-.05a6.29,6.29,0,0,1,6.19-6.6c4,0,6.07,3.17,6.07,6.82a7.83,7.83,0,0,1,0,.82H67.88a3.54,3.54,0,0,0,3.65,3.21A4.57,4.57,0,0,0,75,290.67l1.71,1.51a6.42,6.42,0,0,1-5.19,2.38A6.32,6.32,0,0,1,65,288Zm9.38-.93c-.19-1.88-1.29-3.34-3.21-3.34s-3,1.37-3.29,3.34Z"/><path class="cls-1" d="M79.47,288V288a6.55,6.55,0,0,1,6.6-6.63,6.4,6.4,0,0,1,5.07,2.19l-1.83,1.94a4.25,4.25,0,0,0-3.26-1.58,3.82,3.82,0,0,0-3.67,4v0A3.84,3.84,0,0,0,86.17,292a4.45,4.45,0,0,0,3.29-1.56l1.75,1.72A6.39,6.39,0,0,1,86,294.56,6.47,6.47,0,0,1,79.47,288Z"/><path class="cls-1" d="M93.87,276.75h2.91v6.79a4.6,4.6,0,0,1,4-2.21c2.85,0,4.51,1.92,4.51,4.85v8.09h-2.9v-7.2c0-2-1-3.1-2.72-3.1s-2.85,1.18-2.85,3.15v7.15H93.87Z"/><path class="cls-1" d="M108.75,281.6h2.91v1.94a4.6,4.6,0,0,1,4-2.21c2.85,0,4.51,1.92,4.51,4.85v8.09h-2.9v-7.2c0-2-1-3.1-2.72-3.1s-2.85,1.18-2.85,3.15v7.15h-2.91Z"/><path class="cls-1" d="M123.68,276.89h3.12v2.76h-3.12Zm.12,4.71h2.91v12.67H123.8Z"/><path class="cls-1" d="M129.8,288V288a6.54,6.54,0,0,1,6.6-6.63,6.4,6.4,0,0,1,5.07,2.19l-1.83,1.94a4.26,4.26,0,0,0-3.26-1.58,3.82,3.82,0,0,0-3.68,4v0a3.84,3.84,0,0,0,3.8,4.06,4.47,4.47,0,0,0,3.29-1.56l1.75,1.72a6.39,6.39,0,0,1-5.19,2.38A6.47,6.47,0,0,1,129.8,288Z"/><path class="cls-1" d="M143.36,290.62v0c0-2.74,2.14-4.08,5.23-4.08A10.63,10.63,0,0,1,152,287v-.31c0-1.8-1.1-2.76-3.14-2.76a8.83,8.83,0,0,0-3.63.79l-.77-2.28a10.93,10.93,0,0,1,4.78-1,5.64,5.64,0,0,1,4.2,1.42,5.23,5.23,0,0,1,1.37,3.91v7.51H152v-1.58a5.18,5.18,0,0,1-4.13,1.85C145.47,294.54,143.36,293.17,143.36,290.62Zm8.69-.91v-.86a8,8,0,0,0-2.88-.51c-1.87,0-3,.79-3,2.12v0c0,1.23,1.08,1.92,2.48,1.92C150.58,292.42,152.05,291.32,152.05,289.71Z"/><path class="cls-1" d="M158.46,276.75h2.9v17.52h-2.9Z"/><path class="cls-1" d="M171.7,291.94l5.79-4.92c2.3-2,3.14-3,3.14-4.53a2.52,2.52,0,0,0-2.71-2.62c-1.54,0-2.59.84-3.86,2.52l-2.12-1.66c1.61-2.23,3.2-3.5,6.2-3.5,3.28,0,5.54,2,5.54,5v0c0,2.64-1.39,4.09-4.37,6.51l-3.45,2.88h8v2.59H171.7Z"/><path class="cls-1" d="M186.06,296.53c1.46-.29,2.16-1,2.06-2.26h-1.25V291h3.19v2.81c0,2.66-1.27,3.79-3.69,4Z"/><path class="cls-1" d="M192.58,285.92v-.05c0-4.8,2.93-8.69,7.35-8.69s7.3,3.84,7.3,8.64v.05c0,4.8-2.93,8.69-7.35,8.69S192.58,290.72,192.58,285.92Zm11.6,0v-.05c0-3.31-1.71-6-4.3-6s-4.25,2.64-4.25,6v.05c0,3.31,1.68,6,4.3,6S204.18,289.21,204.18,285.92Z"/><path class="cls-1" d="M209.74,281.62v-.05a4,4,0,0,1,4-4.29,4,4,0,0,1,3.93,4.25v0a4,4,0,1,1-7.92.05Zm14-4.15h2.37l-6.62,8.95-5.67,7.85h-2.37l6.6-8.93Zm-11.86,4.06v0c0,1.37.77,2.45,1.85,2.45s1.8-1.1,1.8-2.4v-.05c0-1.34-.77-2.44-1.85-2.44S211.88,280.23,211.88,281.53Zm8,8.68v0a4,4,0,1,1,7.92-.05v.05a4.06,4.06,0,0,1-4,4.29A4,4,0,0,1,219.9,290.21Zm5.78,0v0c0-1.35-.77-2.45-1.85-2.45s-1.8,1.1-1.8,2.4v.05c0,1.37.77,2.45,1.85,2.45S225.68,291.51,225.68,290.21Z"/><path class="cls-3" d="M45.62,901.28H40.91V899.6H52.15v1.68H47.42V916.4h-1.8Z"/><path class="cls-3" d="M54.16,910.25v-.12c0-3.81,2.23-6.48,5.16-6.48,3.14,0,5,2.69,5,6.46a6.11,6.11,0,0,1,0,.72h-8.4c.19,2.76,1.9,4.3,3.87,4.3A4.44,4.44,0,0,0,63,913.69l1,1.1a5.66,5.66,0,0,1-4.3,1.87C56.66,916.66,54.16,914.21,54.16,910.25Zm8.45-.76c-.12-2.38-1.25-4.32-3.29-4.32-1.85,0-3.24,1.7-3.41,4.32Z"/><path class="cls-3" d="M67.12,903.89h1.73v2.76a4.39,4.39,0,0,1,4.29-2.92v1.87h-.09c-2.33,0-4.2,1.63-4.2,4.85v5.95H67.12Z"/><path class="cls-3" d="M76.1,913.5v-8.07H74.58v-1.54H76.1v-3.64h1.72v3.64h3.27v1.54H77.82v7.78a1.59,1.59,0,0,0,1.8,1.8,3.69,3.69,0,0,0,1.47-.34v1.49a4.26,4.26,0,0,1-1.87.43A2.79,2.79,0,0,1,76.1,913.5Z"/><path class="cls-3" d="M83.92,899.29h1.92v2H83.92Zm.1,4.6h1.72V916.4H84Z"/><path class="cls-3" d="M88.62,912.78v-.1c0-2.57,1.85-4,4.61-4a10.27,10.27,0,0,1,3.22.5v-.74a2.85,2.85,0,0,0-3.19-3.1,6.82,6.82,0,0,0-3.2.84l-.55-1.42a8.7,8.7,0,0,1,3.94-1A4.77,4.77,0,0,1,97,905a4.64,4.64,0,0,1,1.2,3.39v8h-1.7v-1.82a4.33,4.33,0,0,1-3.82,2.08A3.82,3.82,0,0,1,88.62,912.78Zm7.85-.73V910.5a8.74,8.74,0,0,0-3-.51c-2,0-3.1,1-3.1,2.62v.07A2.5,2.5,0,0,0,93,915.22,3.24,3.24,0,0,0,96.47,912.05Z"/><path class="cls-3" d="M101.51,903.89h1.73v2.76a4.41,4.41,0,0,1,4.3-2.92v1.87h-.1c-2.33,0-4.2,1.63-4.2,4.85v5.95h-1.73Z"/><path class="cls-3" d="M117.86,903.89h1.84l-4.44,12.73c-.88,2.59-2,3.48-3.65,3.48a4.74,4.74,0,0,1-2.25-.58l.53-1.44a3.37,3.37,0,0,0,1.63.46c.94,0,1.54-.53,2.16-2.14l-4.8-12.51h1.87l3.75,10.3Z"/><path class="cls-3" d="M122.17,903.92h2.16v2.45h-2.16Zm0,10h2.16v2.47h-2.16Z"/><path class="cls-3" d="M134.08,899.29H136v2h-1.92Zm.09,4.6h1.73V916.4h-1.73Z"/><path class="cls-3" d="M139.6,903.89h1.73v2a4,4,0,0,1,3.69-2.28c2.55,0,4.08,1.76,4.08,4.56v8.19h-1.73v-7.71c0-2.23-1.05-3.48-2.88-3.48s-3.16,1.44-3.16,3.58v7.61H139.6Z"/><path class="cls-3" d="M151.81,910.28v-.17c0-3.79,2.45-6.46,5.57-6.46a5.3,5.3,0,0,1,3.94,1.71l-1,1.29a4.08,4.08,0,0,0-2.93-1.41c-2.09,0-3.77,2-3.77,4.87v.12c0,2.95,1.73,4.85,3.84,4.85a4,4,0,0,0,2.93-1.44l1,1.15a5.15,5.15,0,0,1-4,1.87C154.19,916.66,151.81,914.07,151.81,910.28Z"/><path class="cls-3" d="M164.08,899.07h1.73V916.4h-1.73Z"/><path class="cls-3" d="M169.33,912.1v-8.21h1.73v7.71c0,2.23,1.06,3.48,2.88,3.48s3.17-1.42,3.17-3.55v-7.64h1.73V916.4h-1.73v-2a4,4,0,0,1-3.7,2.28C170.87,916.64,169.33,914.89,169.33,912.1Z"/><path class="cls-3" d="M181.77,910.28V910c0-4.15,2.44-6.39,5-6.39a4.62,4.62,0,0,1,4.05,2.57v-7.15h1.73V916.4h-1.73V914a4.65,4.65,0,0,1-4.05,2.64C184.21,916.64,181.77,914.46,181.77,910.28Zm9.12,0V910c0-2.95-1.8-4.83-3.77-4.83s-3.58,1.76-3.58,4.83v.19c0,3,1.63,4.85,3.58,4.85S190.89,913.21,190.89,910.25Z"/><path class="cls-3" d="M195.42,910.25v-.12c0-3.81,2.23-6.48,5.16-6.48,3.15,0,5,2.69,5,6.46a6.11,6.11,0,0,1,0,.72h-8.4c.2,2.76,1.9,4.3,3.87,4.3a4.42,4.42,0,0,0,3.24-1.44l1,1.1a5.66,5.66,0,0,1-4.29,1.87C197.92,916.66,195.42,914.21,195.42,910.25Zm8.45-.76c-.12-2.38-1.25-4.32-3.29-4.32-1.85,0-3.24,1.7-3.41,4.32Z"/><path class="cls-3" d="M207.25,914.86l.92-1.27a5.66,5.66,0,0,0,3.64,1.51c1.37,0,2.33-.77,2.33-1.94v0c0-1.1-1-1.67-2.71-2.37-2-.87-3.58-1.66-3.58-3.6v0c0-2,1.66-3.41,3.89-3.41a6.78,6.78,0,0,1,3.94,1.35l-.84,1.32a5.46,5.46,0,0,0-3.15-1.18c-1.32,0-2.16.77-2.16,1.75v0c0,1.06,1.08,1.59,2.79,2.3,2.06.92,3.5,1.78,3.5,3.68v0c0,2.24-1.8,3.61-4,3.61A7,7,0,0,1,207.25,914.86Z"/><path class="cls-3" d="M226.6,914.07v2.33h-1.73V899.07h1.73v7.22a4.67,4.67,0,0,1,4.05-2.64c2.55,0,5,2.21,5,6.36v.24c0,4.16-2.45,6.39-5,6.39A4.62,4.62,0,0,1,226.6,914.07Zm7.27-3.82v-.19c0-3-1.63-4.85-3.55-4.85s-3.8,1.9-3.8,4.83v.24c0,2.93,1.83,4.8,3.8,4.8S233.87,913.33,233.87,910.25Z"/><path class="cls-3" d="M237.76,912.78v-.1c0-2.57,1.84-4,4.6-4a10.17,10.17,0,0,1,3.22.5v-.74a2.84,2.84,0,0,0-3.19-3.1,6.75,6.75,0,0,0-3.19.84l-.56-1.42a8.7,8.7,0,0,1,3.94-1,4.77,4.77,0,0,1,3.5,1.24,4.65,4.65,0,0,1,1.21,3.39v8h-1.71v-1.82a4.32,4.32,0,0,1-3.82,2.08A3.82,3.82,0,0,1,237.76,912.78Zm7.84-.73V910.5a8.7,8.7,0,0,0-3-.51c-2,0-3.1,1-3.1,2.62v.07a2.5,2.5,0,0,0,2.67,2.54A3.24,3.24,0,0,0,245.6,912.05Z"/><path class="cls-3" d="M250,910.28v-.17c0-3.79,2.45-6.46,5.57-6.46a5.3,5.3,0,0,1,3.94,1.71l-1,1.29a4,4,0,0,0-2.92-1.41c-2.09,0-3.77,2-3.77,4.87v.12c0,2.95,1.73,4.85,3.84,4.85a4,4,0,0,0,2.93-1.44l1,1.15a5.11,5.11,0,0,1-4,1.87C252.35,916.66,250,914.07,250,910.28Z"/><path class="cls-3" d="M262.09,899.07h1.73v6.86a4.06,4.06,0,0,1,3.7-2.28c2.54,0,4.08,1.76,4.08,4.56v8.19h-1.73v-7.71c0-2.23-1.06-3.48-2.88-3.48s-3.17,1.44-3.17,3.58v7.61h-1.73Z"/><path class="cls-3" d="M274.31,910.25v-.12c0-3.81,2.23-6.48,5.16-6.48,3.14,0,5,2.69,5,6.46,0,.17,0,.51,0,.72h-8.4c.19,2.76,1.9,4.3,3.86,4.3a4.4,4.4,0,0,0,3.24-1.44l1,1.1a5.68,5.68,0,0,1-4.3,1.87C276.8,916.66,274.31,914.21,274.31,910.25Zm8.45-.76c-.12-2.38-1.25-4.32-3.29-4.32-1.85,0-3.24,1.7-3.41,4.32Z"/><path class="cls-3" d="M287.41,899.07h1.73V916.4h-1.73Z"/><path class="cls-3" d="M292.16,910.25v-.16c0-3.65,2.36-6.44,5.57-6.44s5.55,2.77,5.55,6.41v.15c0,3.65-2.36,6.45-5.57,6.45S292.16,913.9,292.16,910.25Zm9.36,0v-.12c0-2.81-1.68-4.9-3.81-4.9s-3.77,2.09-3.77,4.88v.12c0,2.8,1.66,4.89,3.79,4.89S301.52,913,301.52,910.23Z"/><path class="cls-3" d="M306.16,903.89h1.72v2.76a4.42,4.42,0,0,1,4.3-2.92v1.87h-.1c-2.32,0-4.2,1.63-4.2,4.85v5.95h-1.72Z"/><path class="cls-3" d="M313.72,918.49c1.17-.43,1.63-1.08,1.56-2.09h-.89v-2.47h2.16V916A2.93,2.93,0,0,1,314,919.3Z"/><path class="cls-3" d="M326.12,903.89h1.73v2a3.92,3.92,0,0,1,3.5-2.24,3.62,3.62,0,0,1,3.46,2.28,4.36,4.36,0,0,1,3.84-2.28c2.43,0,4,1.68,4,4.59v8.16h-1.73v-7.71c0-2.27-1-3.48-2.71-3.48s-3,1.3-3,3.56v7.63h-1.72v-7.73c0-2.23-1-3.46-2.72-3.46s-2.95,1.47-2.95,3.58v7.61h-1.73Z"/><path class="cls-3" d="M345.25,912.78v-.1c0-2.57,1.85-4,4.61-4a10.15,10.15,0,0,1,3.21.5v-.74a2.84,2.84,0,0,0-3.19-3.1,6.75,6.75,0,0,0-3.19.84l-.55-1.42a8.66,8.66,0,0,1,3.93-1,4.79,4.79,0,0,1,3.51,1.24,4.64,4.64,0,0,1,1.2,3.39v8h-1.71v-1.82a4.3,4.3,0,0,1-3.81,2.08A3.82,3.82,0,0,1,345.25,912.78Zm7.85-.73V910.5a8.76,8.76,0,0,0-3-.51c-2,0-3.09,1-3.09,2.62v.07a2.49,2.49,0,0,0,2.66,2.54A3.25,3.25,0,0,0,353.1,912.05Z"/><path class="cls-3" d="M357,914.86l.91-1.27a5.68,5.68,0,0,0,3.65,1.51c1.37,0,2.33-.77,2.33-1.94v0c0-1.1-1-1.67-2.71-2.37-2-.87-3.58-1.66-3.58-3.6v0c0-2,1.66-3.41,3.89-3.41a6.75,6.75,0,0,1,3.93,1.35l-.84,1.32a5.45,5.45,0,0,0-3.14-1.18c-1.32,0-2.16.77-2.16,1.75v0c0,1.06,1.08,1.59,2.78,2.3,2.07.92,3.51,1.78,3.51,3.68v0c0,2.24-1.8,3.61-4.06,3.61A7,7,0,0,1,357,914.86Z"/><path class="cls-3" d="M369,913.5v-8.07h-1.51v-1.54H369v-3.64h1.73v3.64H374v1.54h-3.26v7.78a1.59,1.59,0,0,0,1.8,1.8,3.61,3.61,0,0,0,1.46-.34v1.49a4.26,4.26,0,0,1-1.87.43A2.8,2.8,0,0,1,369,913.5Z"/><path class="cls-3" d="M376.07,910.25v-.12c0-3.81,2.23-6.48,5.16-6.48,3.14,0,5,2.69,5,6.46,0,.17,0,.51,0,.72h-8.4c.19,2.76,1.89,4.3,3.86,4.3a4.4,4.4,0,0,0,3.24-1.44l1,1.1a5.68,5.68,0,0,1-4.3,1.87C378.56,916.66,376.07,914.21,376.07,910.25Zm8.44-.76c-.12-2.38-1.24-4.32-3.28-4.32-1.85,0-3.24,1.7-3.41,4.32Z"/><path class="cls-3" d="M389,903.89h1.72v2.76a4.42,4.42,0,0,1,4.3-2.92v1.87H395c-2.32,0-4.2,1.63-4.2,4.85v5.95H389Z"/><path class="cls-3" d="M402.85,912.78v-.1c0-2.57,1.85-4,4.61-4a10.15,10.15,0,0,1,3.21.5v-.74a2.84,2.84,0,0,0-3.19-3.1,6.75,6.75,0,0,0-3.19.84l-.55-1.42a8.66,8.66,0,0,1,3.93-1,4.79,4.79,0,0,1,3.51,1.24,4.64,4.64,0,0,1,1.2,3.39v8h-1.71v-1.82a4.3,4.3,0,0,1-3.81,2.08A3.82,3.82,0,0,1,402.85,912.78Zm7.85-.73V910.5a8.76,8.76,0,0,0-3-.51c-2,0-3.09,1-3.09,2.62v.07a2.49,2.49,0,0,0,2.66,2.54A3.25,3.25,0,0,0,410.7,912.05Z"/><path class="cls-3" d="M415.74,903.89h1.72v2a4.07,4.07,0,0,1,3.7-2.28c2.55,0,4.08,1.76,4.08,4.56v8.19h-1.73v-7.71c0-2.23-1.05-3.48-2.88-3.48s-3.17,1.44-3.17,3.58v7.61h-1.72Z"/><path class="cls-3" d="M428,910.28V910c0-4.15,2.45-6.39,5-6.39a4.64,4.64,0,0,1,4.06,2.57v-7.15h1.73V916.4h-1.73V914a4.66,4.66,0,0,1-4.06,2.64C430.45,916.64,428,914.46,428,910.28Zm9.12,0V910c0-2.95-1.8-4.83-3.77-4.83s-3.57,1.76-3.57,4.83v.19c0,3,1.63,4.85,3.57,4.85S437.12,913.21,437.12,910.25Z"/><path class="cls-3" d="M447.92,910.28V910c0-4.15,2.45-6.39,5-6.39a4.64,4.64,0,0,1,4.06,2.57v-7.15h1.73V916.4H457V914a4.66,4.66,0,0,1-4.06,2.64C450.37,916.64,447.92,914.46,447.92,910.28Zm9.12,0V910c0-2.95-1.8-4.83-3.77-4.83S449.7,907,449.7,910v.19c0,3,1.63,4.85,3.57,4.85S457,913.21,457,910.25Z"/><path class="cls-3" d="M461.58,910.25v-.16c0-3.65,2.35-6.44,5.56-6.44s5.55,2.77,5.55,6.41v.15c0,3.65-2.35,6.45-5.57,6.45S461.58,913.9,461.58,910.25Zm9.36,0v-.12c0-2.81-1.68-4.9-3.82-4.9s-3.77,2.09-3.77,4.88v.12c0,2.8,1.66,4.89,3.79,4.89S470.94,913,470.94,910.23Z"/><path class="cls-3" d="M474.9,910.28v-.17c0-3.79,2.44-6.46,5.56-6.46a5.3,5.3,0,0,1,3.94,1.71l-1,1.29a4.06,4.06,0,0,0-2.93-1.41c-2.09,0-3.77,2-3.77,4.87v.12c0,2.95,1.73,4.85,3.84,4.85a4,4,0,0,0,2.93-1.44l1,1.15a5.14,5.14,0,0,1-4,1.87C477.27,916.66,474.9,914.07,474.9,910.28Z"/><path class="cls-3" d="M487.57,913.5v-8.07h-1.51v-1.54h1.51v-3.64h1.73v3.64h3.26v1.54H489.3v7.78a1.59,1.59,0,0,0,1.8,1.8,3.61,3.61,0,0,0,1.46-.34v1.49a4.26,4.26,0,0,1-1.87.43A2.79,2.79,0,0,1,487.57,913.5Z"/><path class="cls-3" d="M494.67,910.25v-.16c0-3.65,2.35-6.44,5.57-6.44s5.54,2.77,5.54,6.41v.15c0,3.65-2.35,6.45-5.56,6.45S494.67,913.9,494.67,910.25Zm9.36,0v-.12c0-2.81-1.68-4.9-3.81-4.9s-3.77,2.09-3.77,4.88v.12c0,2.8,1.65,4.89,3.79,4.89S504,913,504,910.23Z"/><path class="cls-3" d="M508.66,903.89h1.73v2.76a4.42,4.42,0,0,1,4.3-2.92v1.87h-.1c-2.33,0-4.2,1.63-4.2,4.85v5.95h-1.73Z"/><path class="cls-3" d="M516.27,912.78v-.1c0-2.57,1.85-4,4.61-4a10.27,10.27,0,0,1,3.22.5v-.74a2.85,2.85,0,0,0-3.2-3.1,6.81,6.81,0,0,0-3.19.84l-.55-1.42a8.7,8.7,0,0,1,3.94-1,4.79,4.79,0,0,1,3.5,1.24,4.64,4.64,0,0,1,1.2,3.39v8h-1.7v-1.82a4.33,4.33,0,0,1-3.82,2.08A3.82,3.82,0,0,1,516.27,912.78Zm7.85-.73V910.5a8.74,8.74,0,0,0-3-.51c-2,0-3.1,1-3.1,2.62v.07a2.5,2.5,0,0,0,2.66,2.54A3.25,3.25,0,0,0,524.12,912.05Z"/><path class="cls-3" d="M529.3,899.07H531V916.4H529.3Z"/><path class="cls-3" d="M534.53,913.93h2.16v2.47h-2.16Z"/></svg>