<svg id="Layer_1" data-name="Layer 1" xmlns="http://www.w3.org/2000/svg" viewBox="0 0 1080 1005"><defs><style>.cls-1{fill:#f9f9fa;}.cls-2{fill:#565656;}.cls-3{fill:#3c3c3c;}.cls-4{fill:none;stroke:#3d3d3d;stroke-width:1.01px;opacity:0.5;}.cls-10,.cls-11,.cls-4,.cls-5,.cls-6,.cls-7,.cls-8,.cls-9{stroke-miterlimit:10;}.cls-5{fill:#ecad20;}.cls-10,.cls-11,.cls-5,.cls-6,.cls-7,.cls-8,.cls-9{stroke:#f9f9fa;stroke-width:2px;}.cls-6{fill:#078554;}.cls-7{fill:#95356e;}.cls-8{fill:#1d6a97;}.cls-9{fill:#36a6a5;}.cls-10{fill:#72af47;}.cls-11{fill:#cd503e;}</style></defs><title>web-esp</title><rect class="cls-1" width="1080" height="1005"/><path class="cls-2" d="M42.77,93.6H56.94v2H45v6.69h10.7v2H45v6.86h12.1v2H42.77Z"/><path class="cls-2" d="M61.17,98.72h2.15v2.52a5.51,5.51,0,0,1,5-2.82c3.5,0,5.54,2.35,5.54,5.79v9H71.67v-8.46c0-2.68-1.46-4.36-4-4.36a4.26,4.26,0,0,0-4.34,4.53v8.29H61.17Z"/><path class="cls-2" d="M86.31,103.46v-.06a9.84,9.84,0,0,1,9.83-10.14,10.35,10.35,0,0,1,7.31,2.61L102,97.55a8.31,8.31,0,0,0-6-2.24c-4.34,0-7.45,3.67-7.45,8v.06c0,4.68,3,8.15,7.75,8.15a9.24,9.24,0,0,0,5.66-2v-4.87h-6v-2h8.09v7.81a11.91,11.91,0,0,1-7.87,3C90.12,113.54,86.31,109.06,86.31,103.46Z"/><path class="cls-2" d="M108.54,107.71v-9h2.16v8.46c0,2.69,1.46,4.37,4,4.37A4.27,4.27,0,0,0,119,107V98.72h2.13V113.2H119v-2.52a5.5,5.5,0,0,1-5,2.83C110.59,113.51,108.54,111.16,108.54,107.71Z"/><path class="cls-2" d="M136.85,98.72h2.3l-6.08,15c-1.23,3-2.63,4.08-4.81,4.08a6.63,6.63,0,0,1-3.08-.72l.72-1.71a4.59,4.59,0,0,0,2.27.53c1.29,0,2.1-.67,3-2.72l-6.58-14.42h2.38l5.26,12.07Z"/><path class="cls-2" d="M140.77,109v-.06c0-3,2.52-4.67,6.19-4.67a15.51,15.51,0,0,1,4.45.61v-.5c0-2.6-1.59-3.95-4.31-3.95a10.06,10.06,0,0,0-4.4,1.07l-.64-1.77a11.92,11.92,0,0,1,5.26-1.2,6.36,6.36,0,0,1,4.68,1.59,5.71,5.71,0,0,1,1.48,4.23v8.85h-2.07V111a6.36,6.36,0,0,1-5.23,2.49C143.49,113.51,140.77,112,140.77,109Zm10.67-1.12v-1.4a15,15,0,0,0-4.26-.62c-2.71,0-4.22,1.18-4.22,3v.06c0,1.82,1.68,2.88,3.64,2.88C149.26,111.8,151.44,110.18,151.44,107.88Z"/><path class="cls-2" d="M158.08,98.72h2.15v2.52a5.5,5.5,0,0,1,5-2.82c3.5,0,5.54,2.35,5.54,5.79v9h-2.15v-8.46c0-2.68-1.46-4.36-4-4.36a4.26,4.26,0,0,0-4.34,4.53v8.29h-2.15Z"/><path class="cls-2" d="M174.23,109v-.06c0-3,2.52-4.67,6.19-4.67a15.51,15.51,0,0,1,4.45.61v-.5c0-2.6-1.59-3.95-4.31-3.95a10.06,10.06,0,0,0-4.4,1.07l-.64-1.77a11.92,11.92,0,0,1,5.26-1.2,6.36,6.36,0,0,1,4.68,1.59,5.71,5.71,0,0,1,1.48,4.23v8.85h-2.07V111a6.36,6.36,0,0,1-5.23,2.49C177,113.51,174.23,112,174.23,109Zm10.67-1.12v-1.4a15,15,0,0,0-4.26-.62c-2.71,0-4.22,1.18-4.22,3v.06c0,1.82,1.68,2.88,3.64,2.88C182.72,111.8,184.9,110.18,184.9,107.88Z"/><path class="cls-2" d="M190.42,115.64c1.4-.51,2-1.24,1.87-2.44h-1v-2.94h2.58v2.52c0,2.27-1,3.36-3.11,3.84Z"/><path class="cls-2" d="M205.59,111.35l1.09-1.54a8.46,8.46,0,0,0,5,1.85c1.73,0,3-.9,3-2.3v0c0-1.46-1.71-2-3.61-2.55-2.27-.64-4.79-1.43-4.79-4.09v0c0-2.5,2.07-4.15,4.93-4.15a9.94,9.94,0,0,1,5.21,1.6l-1,1.62a8.2,8.2,0,0,0-4.29-1.4c-1.7,0-2.8.9-2.8,2.1v.06c0,1.37,1.8,1.9,3.73,2.49,2.24.67,4.65,1.54,4.65,4.14v.06c0,2.74-2.27,4.34-5.16,4.34A10,10,0,0,1,205.59,111.35Z"/><path class="cls-2" d="M219.84,106v0a7.55,7.55,0,0,1,15.1-.06V106a7.53,7.53,0,0,1-7.59,7.56A7.42,7.42,0,0,1,219.84,106Zm12.88,0v0a5.48,5.48,0,0,0-5.37-5.66,5.34,5.34,0,0,0-5.29,5.6V106a5.42,5.42,0,0,0,5.34,5.62A5.34,5.34,0,0,0,232.72,106Z"/><path class="cls-2" d="M239,92.76h2.16V113.2H239Z"/><path class="cls-2" d="M245.29,106v0a7.55,7.55,0,0,1,15.1-.06V106a7.52,7.52,0,0,1-7.59,7.56A7.42,7.42,0,0,1,245.29,106Zm12.88,0v0a5.48,5.48,0,0,0-5.37-5.66,5.34,5.34,0,0,0-5.29,5.6V106a5.42,5.42,0,0,0,5.34,5.62A5.34,5.34,0,0,0,258.17,106Z"/><path class="cls-2" d="M271.67,110l1.62-1.43a7,7,0,0,0,5.72,2.91c2.38,0,4.28-1.51,4.28-3.81v0c0-2.44-2.27-3.78-5.49-3.78h-1.26l-.45-1.32,6.19-7h-9.57v-2h12.51v1.62l-6.16,6.84c3.42.28,6.47,1.93,6.47,5.51v.06c0,3.5-2.91,5.91-6.55,5.91A8.91,8.91,0,0,1,271.67,110Z"/><path class="cls-2" d="M297.4,106v0c0-4.73,3.45-7.53,6.92-7.53a6.51,6.51,0,0,1,5.54,3.08V92.76H312V113.2h-2.16v-2.91a6.51,6.51,0,0,1-5.54,3.22C300.85,113.51,297.4,110.76,297.4,106ZM310,106v-.06a5.38,5.38,0,0,0-5.24-5.57c-2.8,0-5.1,2.07-5.1,5.57V106c0,3.41,2.38,5.6,5.1,5.6A5.41,5.41,0,0,0,310,106Z"/><path class="cls-2" d="M315.94,106v0c0-4.17,2.94-7.53,6.94-7.53,4.29,0,6.75,3.41,6.75,7.64a5.24,5.24,0,0,1,0,.7H318.12a5.05,5.05,0,0,0,5.1,4.9,6,6,0,0,0,4.56-2l1.35,1.2a7.5,7.5,0,0,1-6,2.72A7.2,7.2,0,0,1,315.94,106Zm11.51-.84c-.23-2.63-1.74-4.92-4.62-4.92-2.52,0-4.43,2.1-4.71,4.92Z"/><path class="cls-2" d="M340.91,106v0a7.55,7.55,0,0,1,13.22-5l-1.43,1.51a5.85,5.85,0,0,0-4.39-2.18,5.34,5.34,0,0,0-5.18,5.6V106a5.4,5.4,0,0,0,5.32,5.62,6,6,0,0,0,4.42-2.15l1.37,1.29A7.49,7.49,0,0,1,340.91,106Z"/><path class="cls-2" d="M356.71,109v-.06c0-3,2.52-4.67,6.18-4.67a15.59,15.59,0,0,1,4.46.61v-.5c0-2.6-1.6-3.95-4.32-3.95a10,10,0,0,0-4.39,1.07L358,99.73a12,12,0,0,1,5.27-1.2,6.35,6.35,0,0,1,4.67,1.59,5.72,5.72,0,0,1,1.49,4.23v8.85h-2.07V111a6.37,6.37,0,0,1-5.24,2.49C359.42,113.51,356.71,112,356.71,109Zm10.66-1.12v-1.4a15,15,0,0,0-4.25-.62c-2.72,0-4.23,1.18-4.23,3v.06c0,1.82,1.68,2.88,3.64,2.88C365.19,111.8,367.37,110.18,367.37,107.88Z"/><path class="cls-2" d="M373.17,106v0c0-4.73,3.44-7.53,6.91-7.53a6.53,6.53,0,0,1,5.55,3.08V92.76h2.16V113.2h-2.16v-2.91a6.52,6.52,0,0,1-5.55,3.22C376.61,113.51,373.17,110.76,373.17,106Zm12.54,0v-.06a5.37,5.37,0,0,0-5.23-5.57c-2.8,0-5.1,2.07-5.1,5.57V106c0,3.41,2.38,5.6,5.1,5.6A5.4,5.4,0,0,0,385.71,106Z"/><path class="cls-2" d="M391.51,109v-.06c0-3,2.52-4.67,6.19-4.67a15.56,15.56,0,0,1,4.45.61v-.5c0-2.6-1.6-3.95-4.31-3.95a10,10,0,0,0-4.4,1.07l-.64-1.77a11.89,11.89,0,0,1,5.26-1.2,6.39,6.39,0,0,1,4.68,1.59,5.71,5.71,0,0,1,1.48,4.23v8.85h-2.07V111a6.37,6.37,0,0,1-5.24,2.49C394.23,113.51,391.51,112,391.51,109Zm10.67-1.12v-1.4a15,15,0,0,0-4.26-.62c-2.71,0-4.23,1.18-4.23,3v.06c0,1.82,1.68,2.88,3.64,2.88C400,111.8,402.18,110.18,402.18,107.88Z"/><path class="cls-2" d="M419.82,95.76l-3.7,1.14-.53-1.79,4.79-1.65H422V113.2h-2.18Z"/><path class="cls-2" d="M426.56,103.46v-.06c0-5.49,3.28-10.14,8.32-10.14s8.23,4.6,8.23,10.08v.06c0,5.49-3.25,10.14-8.29,10.14S426.56,108.94,426.56,103.46Zm14.26,0v-.06c0-4.28-2.36-8.12-6-8.12s-6,3.75-6,8.06v.06c0,4.28,2.35,8.12,6,8.12S440.82,107.74,440.82,103.46Z"/><path class="cls-2" d="M446.58,103.46v-.06c0-5.49,3.28-10.14,8.32-10.14s8.23,4.6,8.23,10.08v.06c0,5.49-3.25,10.14-8.29,10.14S446.58,108.94,446.58,103.46Zm14.26,0v-.06c0-4.28-2.36-8.12-6-8.12s-6,3.75-6,8.06v.06c0,4.28,2.35,8.12,6,8.12S460.84,107.74,460.84,103.46Z"/><path class="cls-2" d="M475.68,98.72h2.15v2.92a6.51,6.51,0,0,1,5.55-3.22c3.47,0,6.91,2.74,6.91,7.5V106c0,4.73-3.41,7.53-6.91,7.53a6.55,6.55,0,0,1-5.55-3.08v7.25h-2.15Zm12.4,7.28v0c0-3.42-2.35-5.6-5.1-5.6a5.4,5.4,0,0,0-5.23,5.57V106a5.39,5.39,0,0,0,5.23,5.6C485.78,111.58,488.08,109.5,488.08,106Z"/><path class="cls-2" d="M493.37,106v0c0-4.17,2.94-7.53,6.95-7.53,4.28,0,6.74,3.41,6.74,7.64,0,.28,0,.45,0,.7H495.56a5,5,0,0,0,5.09,4.9,6,6,0,0,0,4.57-2l1.34,1.2a7.49,7.49,0,0,1-6,2.72A7.2,7.2,0,0,1,493.37,106Zm11.51-.84c-.22-2.63-1.74-4.92-4.62-4.92-2.52,0-4.42,2.1-4.7,4.92Z"/><path class="cls-2" d="M510.84,98.72H513v3.78a6.2,6.2,0,0,1,5.91-4v2.33h-.17c-3.16,0-5.74,2.26-5.74,6.63v5.77h-2.16Z"/><path class="cls-2" d="M521,111.35l1.09-1.54a8.46,8.46,0,0,0,5,1.85c1.74,0,3-.9,3-2.3v0c0-1.46-1.71-2-3.61-2.55-2.27-.64-4.79-1.43-4.79-4.09v0c0-2.5,2.07-4.15,4.93-4.15a9.87,9.87,0,0,1,5.2,1.6l-1,1.62a8.14,8.14,0,0,0-4.28-1.4c-1.71,0-2.8.9-2.8,2.1v.06c0,1.37,1.79,1.9,3.73,2.49,2.23.67,4.64,1.54,4.64,4.14v.06c0,2.74-2.27,4.34-5.15,4.34A9.92,9.92,0,0,1,521,111.35Z"/><path class="cls-2" d="M535.23,106v0a7.55,7.55,0,0,1,15.09-.06V106a7.52,7.52,0,0,1-7.59,7.56A7.42,7.42,0,0,1,535.23,106Zm12.88,0v0a5.48,5.48,0,0,0-5.38-5.66,5.35,5.35,0,0,0-5.29,5.6V106a5.43,5.43,0,0,0,5.35,5.62A5.34,5.34,0,0,0,548.11,106Z"/><path class="cls-2" d="M554.21,98.72h2.16v2.52a5.49,5.49,0,0,1,5-2.82c3.5,0,5.54,2.35,5.54,5.79v9h-2.16v-8.46c0-2.68-1.45-4.36-4-4.36a4.26,4.26,0,0,0-4.34,4.53v8.29h-2.16Z"/><path class="cls-2" d="M570.37,109v-.06c0-3,2.52-4.67,6.19-4.67a15.51,15.51,0,0,1,4.45.61v-.5c0-2.6-1.6-3.95-4.31-3.95a10.06,10.06,0,0,0-4.4,1.07l-.64-1.77a11.89,11.89,0,0,1,5.26-1.2,6.38,6.38,0,0,1,4.68,1.59,5.71,5.71,0,0,1,1.48,4.23v8.85H581V111a6.37,6.37,0,0,1-5.24,2.49C573.09,113.51,570.37,112,570.37,109ZM581,107.88v-1.4a15,15,0,0,0-4.26-.62c-2.71,0-4.23,1.18-4.23,3v.06c0,1.82,1.68,2.88,3.64,2.88C578.85,111.8,581,110.18,581,107.88Z"/><path class="cls-2" d="M586.47,111.35l1.09-1.54a8.46,8.46,0,0,0,5,1.85c1.74,0,3-.9,3-2.3v0c0-1.46-1.71-2-3.61-2.55-2.27-.64-4.79-1.43-4.79-4.09v0c0-2.5,2.07-4.15,4.93-4.15a9.94,9.94,0,0,1,5.21,1.6l-1,1.62a8.2,8.2,0,0,0-4.29-1.4c-1.71,0-2.8.9-2.8,2.1v.06c0,1.37,1.79,1.9,3.73,2.49,2.24.67,4.64,1.54,4.64,4.14v.06c0,2.74-2.26,4.34-5.15,4.34A9.92,9.92,0,0,1,586.47,111.35Z"/><path class="cls-2" d="M609.12,106v0c0-4.17,2.94-7.53,7-7.53,4.28,0,6.74,3.41,6.74,7.64,0,.28,0,.45,0,.7H611.31a5,5,0,0,0,5.09,4.9,6,6,0,0,0,4.57-2l1.34,1.2a7.49,7.49,0,0,1-6,2.72A7.2,7.2,0,0,1,609.12,106Zm11.51-.84c-.22-2.63-1.74-4.92-4.62-4.92-2.52,0-4.42,2.1-4.7,4.92Z"/><path class="cls-2" d="M626.59,98.72h2.16v2.52a5.49,5.49,0,0,1,5-2.82c3.5,0,5.54,2.35,5.54,5.79v9h-2.16v-8.46c0-2.68-1.45-4.36-4-4.36a4.26,4.26,0,0,0-4.34,4.53v8.29h-2.16Z"/><path class="cls-2" d="M644.6,109.36v-8.73h-2V98.72h2V94.36h2.15v4.36h4.6v1.91h-4.6v8.45a2.14,2.14,0,0,0,2.44,2.41,4.58,4.58,0,0,0,2.1-.5v1.85a5.46,5.46,0,0,1-2.6.61C646.36,113.45,644.6,112.3,644.6,109.36Z"/><path class="cls-2" d="M655.15,98.72h2.16v3.78a6.2,6.2,0,0,1,5.91-4v2.33h-.17c-3.16,0-5.74,2.26-5.74,6.63v5.77h-2.16Z"/><path class="cls-2" d="M665,106v0c0-4.17,2.94-7.53,6.95-7.53,4.28,0,6.74,3.41,6.74,7.64,0,.28,0,.45,0,.7H667.17a5,5,0,0,0,5.09,4.9,6,6,0,0,0,4.57-2l1.34,1.2a7.49,7.49,0,0,1-6,2.72A7.2,7.2,0,0,1,665,106Zm11.51-.84c-.22-2.63-1.74-4.92-4.62-4.92-2.52,0-4.42,2.1-4.7,4.92Z"/><path class="cls-2" d="M693.46,95.76l-3.7,1.14-.53-1.79L694,93.46h1.62V113.2h-2.18Z"/><path class="cls-2" d="M700,110.43l1.46-1.6a8.21,8.21,0,0,0,5.57,2.69,4.4,4.4,0,0,0,4.73-4.34v-.06c0-2.43-2-4.11-4.87-4.11a8.44,8.44,0,0,0-4.12,1.12l-1.48-1,.56-9.55h11.28v2h-9.35l-.42,6.28a8.77,8.77,0,0,1,3.87-.87c3.8,0,6.77,2.24,6.77,6v.06c0,3.83-2.91,6.44-7,6.44A10,10,0,0,1,700,110.43Z"/><path class="cls-2" d="M737.25,98.72h2.29l-6.07,15c-1.23,3-2.63,4.08-4.82,4.08a6.66,6.66,0,0,1-3.08-.72l.73-1.71a4.56,4.56,0,0,0,2.27.53c1.29,0,2.1-.67,3-2.72L725,98.72h2.38l5.26,12.07Z"/><path class="cls-2" d="M753.12,111.55c-1.57-1.57-2.46-3.59-2.46-7.59v-.06c0-6,3-10.64,8.15-10.64a8.65,8.65,0,0,1,5.79,2.24l-1.29,1.71a6.82,6.82,0,0,0-4.62-1.93c-3.78,0-5.76,4-5.76,8.4V104a6.4,6.4,0,0,1,5.6-3c3.64,0,6.77,2.35,6.77,6V107c0,3.78-3,6.53-7,6.53A7.13,7.13,0,0,1,753.12,111.55ZM763,107.1V107c0-2.41-2-4.2-4.78-4.2s-4.9,2.1-4.9,4.28v.06c0,2.49,2.07,4.4,4.95,4.4A4.43,4.43,0,0,0,763,107.1Z"/><path class="cls-2" d="M768.55,110.43l1.46-1.6a8.19,8.19,0,0,0,5.57,2.69,4.4,4.4,0,0,0,4.73-4.34v-.06c0-2.43-2-4.11-4.87-4.11a8.44,8.44,0,0,0-4.12,1.12l-1.48-1,.56-9.55h11.28v2h-9.35l-.42,6.28a8.76,8.76,0,0,1,3.86-.87c3.81,0,6.78,2.24,6.78,6v.06c0,3.83-2.91,6.44-7,6.44A10,10,0,0,1,768.55,110.43Z"/><path class="cls-2" d="M793.92,109v-.06c0-3,2.52-4.67,6.19-4.67a15.56,15.56,0,0,1,4.45.61v-.5c0-2.6-1.6-3.95-4.31-3.95a10,10,0,0,0-4.4,1.07l-.64-1.77a11.89,11.89,0,0,1,5.26-1.2,6.39,6.39,0,0,1,4.68,1.59,5.71,5.71,0,0,1,1.48,4.23v8.85h-2.07V111a6.37,6.37,0,0,1-5.24,2.49C796.63,113.51,793.92,112,793.92,109Zm10.67-1.12v-1.4a15.1,15.1,0,0,0-4.26-.62c-2.72,0-4.23,1.18-4.23,3v.06c0,1.82,1.68,2.88,3.64,2.88C802.4,111.8,804.59,110.18,804.59,107.88Z"/><path class="cls-2" d="M811.22,98.72h2.16v2.52a5.48,5.48,0,0,1,5-2.82c3.5,0,5.55,2.35,5.55,5.79v9h-2.16v-8.46c0-2.68-1.45-4.36-4-4.36a4.26,4.26,0,0,0-4.34,4.53v8.29h-2.16ZM817.55,96a5.56,5.56,0,0,0-1.74-.53c-.72,0-1,.36-1.45,1.37L813,96.43c.56-2.1,1.32-2.94,2.66-2.94a5.75,5.75,0,0,1,2,.56,4.94,4.94,0,0,0,1.73.56c.73,0,1-.37,1.46-1.37l1.32.36c-.56,2.1-1.32,2.94-2.66,2.94A5.25,5.25,0,0,1,817.55,96Z"/><path class="cls-2" d="M827.57,106v0a7.55,7.55,0,0,1,15.1-.06V106a7.52,7.52,0,0,1-7.59,7.56A7.42,7.42,0,0,1,827.57,106Zm12.88,0v0a5.48,5.48,0,0,0-5.37-5.66,5.34,5.34,0,0,0-5.29,5.6V106a5.42,5.42,0,0,0,5.34,5.62A5.34,5.34,0,0,0,840.45,106Z"/><path class="cls-2" d="M845.35,111.35l1.1-1.54a8.41,8.41,0,0,0,5,1.85c1.73,0,3-.9,3-2.3v0c0-1.46-1.7-2-3.61-2.55-2.27-.64-4.79-1.43-4.79-4.09v0c0-2.5,2.08-4.15,4.93-4.15a9.88,9.88,0,0,1,5.21,1.6l-1,1.62a8.14,8.14,0,0,0-4.28-1.4c-1.71,0-2.8.9-2.8,2.1v.06c0,1.37,1.79,1.9,3.72,2.49,2.24.67,4.65,1.54,4.65,4.14v.06c0,2.74-2.27,4.34-5.15,4.34A10,10,0,0,1,845.35,111.35Z"/><path class="cls-2" d="M868.06,106v0c0-4.73,3.44-7.53,6.92-7.53a6.52,6.52,0,0,1,5.54,3.08V92.76h2.16V113.2h-2.16v-2.91a6.52,6.52,0,0,1-5.54,3.22C871.5,113.51,868.06,110.76,868.06,106Zm12.54,0v-.06a5.37,5.37,0,0,0-5.23-5.57c-2.8,0-5.1,2.07-5.1,5.57V106c0,3.41,2.38,5.6,5.1,5.6A5.4,5.4,0,0,0,880.6,106Z"/><path class="cls-2" d="M886.6,106v0c0-4.17,2.94-7.53,6.94-7.53,4.28,0,6.75,3.41,6.75,7.64a5.24,5.24,0,0,1,0,.7H888.78a5.05,5.05,0,0,0,5.1,4.9,6,6,0,0,0,4.56-2l1.34,1.2a7.48,7.48,0,0,1-6,2.72A7.2,7.2,0,0,1,886.6,106Zm11.5-.84c-.22-2.63-1.73-4.92-4.62-4.92-2.52,0-4.42,2.1-4.7,4.92Z"/><path class="cls-2" d="M911.57,106v0c0-4.17,2.94-7.53,6.95-7.53,4.28,0,6.74,3.41,6.74,7.64,0,.28,0,.45,0,.7H913.76a5,5,0,0,0,5.09,4.9,6,6,0,0,0,4.57-2l1.34,1.2a7.49,7.49,0,0,1-6,2.72A7.2,7.2,0,0,1,911.57,106Zm11.51-.84c-.22-2.63-1.74-4.92-4.62-4.92-2.52,0-4.42,2.1-4.7,4.92Z"/><path class="cls-2" d="M928.2,106v0c0-4.73,3.45-7.53,6.92-7.53a6.51,6.51,0,0,1,5.54,3.08V92.76h2.16V113.2h-2.16v-2.91a6.51,6.51,0,0,1-5.54,3.22C931.65,113.51,928.2,110.76,928.2,106Zm12.55,0v-.06a5.38,5.38,0,0,0-5.24-5.57c-2.8,0-5.09,2.07-5.09,5.57V106c0,3.41,2.38,5.6,5.09,5.6A5.41,5.41,0,0,0,940.75,106Z"/><path class="cls-2" d="M946.54,109v-.06c0-3,2.52-4.67,6.19-4.67a15.46,15.46,0,0,1,4.45.61v-.5c0-2.6-1.59-3.95-4.31-3.95a10,10,0,0,0-4.39,1.07l-.65-1.77a12,12,0,0,1,5.27-1.2,6.35,6.35,0,0,1,4.67,1.59,5.72,5.72,0,0,1,1.49,4.23v8.85h-2.08V111a6.33,6.33,0,0,1-5.23,2.49C949.26,113.51,946.54,112,946.54,109Zm10.67-1.12v-1.4a15,15,0,0,0-4.25-.62c-2.72,0-4.23,1.18-4.23,3v.06c0,1.82,1.68,2.88,3.64,2.88C955,111.8,957.21,110.18,957.21,107.88Z"/><path class="cls-2" d="M963,106v0c0-4.73,3.44-7.53,6.91-7.53a6.53,6.53,0,0,1,5.55,3.08V92.76h2.15V113.2h-2.15v-2.91a6.54,6.54,0,0,1-5.55,3.22C966.45,113.51,963,110.76,963,106Zm12.54,0v-.06a5.38,5.38,0,0,0-5.23-5.57c-2.8,0-5.1,2.07-5.1,5.57V106c0,3.41,2.38,5.6,5.1,5.6A5.41,5.41,0,0,0,975.55,106Z"/><path class="cls-2" d="M43.16,141.36v-8.73h-2v-1.91h2v-4.36h2.16v4.36h4.59v1.91H45.32v8.45a2.14,2.14,0,0,0,2.44,2.41,4.61,4.61,0,0,0,2.1-.5v1.85a5.47,5.47,0,0,1-2.61.61C44.93,145.45,43.16,144.3,43.16,141.36Z"/><path class="cls-2" d="M53.78,125.18h2.46v2.38H53.78Zm.14,5.54h2.15V145.2H53.92Z"/><path class="cls-2" d="M60.19,138V138c0-4.17,2.94-7.53,6.94-7.53,4.29,0,6.75,3.41,6.75,7.64a5.24,5.24,0,0,1,0,.7H62.37a5.05,5.05,0,0,0,5.1,4.9,6,6,0,0,0,4.56-2l1.35,1.2a7.5,7.5,0,0,1-6,2.72A7.2,7.2,0,0,1,60.19,138Zm11.51-.84c-.23-2.63-1.74-4.92-4.62-4.92-2.52,0-4.43,2.1-4.71,4.92Z"/><path class="cls-2" d="M77.66,130.72h2.16v2.52a5.48,5.48,0,0,1,5-2.82c3.5,0,5.55,2.35,5.55,5.79v9H88.16v-8.46c0-2.68-1.46-4.36-4-4.36a4.25,4.25,0,0,0-4.34,4.53v8.29H77.66Z"/><path class="cls-2" d="M94,138V138c0-4.17,2.94-7.53,6.95-7.53,4.28,0,6.74,3.41,6.74,7.64,0,.28,0,.45,0,.7H96.2a5,5,0,0,0,5.09,4.9,6,6,0,0,0,4.57-2l1.34,1.2a7.49,7.49,0,0,1-6,2.72A7.2,7.2,0,0,1,94,138Zm11.51-.84c-.22-2.63-1.74-4.92-4.62-4.92-2.52,0-4.42,2.1-4.7,4.92Z"/><path class="cls-2" d="M111.48,130.72h2.16v2.52a5.49,5.49,0,0,1,5-2.82c3.5,0,5.54,2.35,5.54,5.79v9H122v-8.46c0-2.68-1.45-4.36-4-4.36a4.26,4.26,0,0,0-4.34,4.53v8.29h-2.16Z"/><path class="cls-2" d="M136.24,138V138c0-4.17,2.94-7.53,6.94-7.53,4.28,0,6.75,3.41,6.75,7.64a5.24,5.24,0,0,1,0,.7H138.42a5.05,5.05,0,0,0,5.1,4.9,6,6,0,0,0,4.56-2l1.34,1.2a7.48,7.48,0,0,1-6,2.72A7.2,7.2,0,0,1,136.24,138Zm11.5-.84c-.22-2.63-1.73-4.92-4.62-4.92-2.52,0-4.42,2.1-4.7,4.92Z"/><path class="cls-2" d="M152.5,143.35l1.09-1.54a8.46,8.46,0,0,0,5,1.85c1.73,0,3-.9,3-2.3v-.05c0-1.46-1.7-2-3.61-2.55-2.27-.64-4.79-1.43-4.79-4.09v0c0-2.5,2.07-4.15,4.93-4.15a9.91,9.91,0,0,1,5.21,1.6l-1,1.62a8.2,8.2,0,0,0-4.29-1.4c-1.7,0-2.8.9-2.8,2.1v.06c0,1.37,1.8,1.9,3.73,2.49,2.24.67,4.65,1.54,4.65,4.14v.06c0,2.74-2.27,4.34-5.16,4.34A10,10,0,0,1,152.5,143.35Z"/><path class="cls-2" d="M168.13,141.36v-8.73h-2v-1.91h2v-4.36h2.15v4.36h4.6v1.91h-4.6v8.45a2.14,2.14,0,0,0,2.44,2.41,4.58,4.58,0,0,0,2.1-.5v1.85a5.47,5.47,0,0,1-2.61.61C169.89,145.45,168.13,144.3,168.13,141.36Z"/><path class="cls-2" d="M178.46,139.71v-9h2.15v8.46c0,2.69,1.46,4.37,4,4.37A4.28,4.28,0,0,0,189,139v-8.29h2.13V145.2H189v-2.52a5.52,5.52,0,0,1-5,2.83C180.5,145.51,178.46,143.16,178.46,139.71Z"/><path class="cls-2" d="M195.09,138V138c0-4.73,3.44-7.53,6.92-7.53a6.52,6.52,0,0,1,5.54,3.08v-8.74h2.16V145.2h-2.16v-2.91a6.52,6.52,0,0,1-5.54,3.22C198.53,145.51,195.09,142.76,195.09,138Zm12.54,0v-.06a5.37,5.37,0,0,0-5.23-5.57c-2.8,0-5.1,2.07-5.1,5.57V138c0,3.41,2.38,5.6,5.1,5.6A5.4,5.4,0,0,0,207.63,138Z"/><path class="cls-2" d="M214.58,125.18H217v2.38h-2.46Zm.14,5.54h2.15V145.2h-2.15Z"/><path class="cls-2" d="M221,138V138a7.55,7.55,0,0,1,15.09-.06V138a7.52,7.52,0,0,1-7.59,7.56A7.42,7.42,0,0,1,221,138Zm12.88,0V138a5.48,5.48,0,0,0-5.38-5.66,5.35,5.35,0,0,0-5.29,5.6V138a5.43,5.43,0,0,0,5.35,5.62A5.34,5.34,0,0,0,233.87,138Z"/><path class="cls-2" d="M238.77,143.35l1.09-1.54a8.46,8.46,0,0,0,5,1.85c1.74,0,3-.9,3-2.3v-.05c0-1.46-1.71-2-3.61-2.55-2.27-.64-4.79-1.43-4.79-4.09v0c0-2.5,2.07-4.15,4.93-4.15a9.94,9.94,0,0,1,5.21,1.6l-1,1.62a8.2,8.2,0,0,0-4.29-1.4c-1.71,0-2.8.9-2.8,2.1v.06c0,1.37,1.79,1.9,3.73,2.49,2.24.67,4.64,1.54,4.64,4.14v.06c0,2.74-2.26,4.34-5.15,4.34A9.92,9.92,0,0,1,238.77,143.35Z"/><path class="cls-2" d="M262.09,139.71v-9h2.16v8.46c0,2.69,1.46,4.37,4,4.37a4.27,4.27,0,0,0,4.34-4.54v-8.29h2.13V145.2h-2.13v-2.52a5.5,5.5,0,0,1-4.95,2.83C264.14,145.51,262.09,143.16,262.09,139.71Z"/><path class="cls-2" d="M279.57,130.72h2.15v2.52a5.5,5.5,0,0,1,5-2.82c3.5,0,5.54,2.35,5.54,5.79v9h-2.16v-8.46c0-2.68-1.45-4.36-4-4.36a4.26,4.26,0,0,0-4.34,4.53v8.29h-2.15Z"/><path class="cls-2" d="M296.87,125.18h2.46v2.38h-2.46Zm.14,5.54h2.16V145.2H297Z"/><path class="cls-2" d="M302.75,130.72h2.38l4.87,12,4.9-12h2.33l-6.31,14.59H309Z"/><path class="cls-2" d="M318.88,138V138c0-4.17,2.94-7.53,6.94-7.53,4.28,0,6.75,3.41,6.75,7.64a5.24,5.24,0,0,1,0,.7H321.06a5.05,5.05,0,0,0,5.1,4.9,6,6,0,0,0,4.56-2l1.34,1.2a7.48,7.48,0,0,1-6,2.72A7.2,7.2,0,0,1,318.88,138Zm11.5-.84c-.22-2.63-1.73-4.92-4.62-4.92-2.52,0-4.42,2.1-4.7,4.92Z"/><path class="cls-2" d="M336.35,130.72h2.15v3.78a6.22,6.22,0,0,1,5.91-4v2.33h-.17c-3.16,0-5.74,2.26-5.74,6.63v5.77h-2.15Z"/><path class="cls-2" d="M346.48,143.35l1.1-1.54a8.41,8.41,0,0,0,5,1.85c1.73,0,3-.9,3-2.3v-.05c0-1.46-1.7-2-3.61-2.55-2.27-.64-4.79-1.43-4.79-4.09v0c0-2.5,2.08-4.15,4.93-4.15a9.88,9.88,0,0,1,5.21,1.6l-1,1.62a8.14,8.14,0,0,0-4.28-1.4c-1.71,0-2.8.9-2.8,2.1v.06c0,1.37,1.79,1.9,3.72,2.49,2.24.67,4.65,1.54,4.65,4.14v.06c0,2.74-2.27,4.34-5.15,4.34A10,10,0,0,1,346.48,143.35Z"/><path class="cls-2" d="M361.69,125.18h2.46v2.38h-2.46Zm.14,5.54H364V145.2h-2.15Z"/><path class="cls-2" d="M369.75,141.36v-8.73h-2v-1.91h2v-4.36h2.16v4.36h4.59v1.91h-4.59v8.45a2.14,2.14,0,0,0,2.43,2.41,4.55,4.55,0,0,0,2.1-.5v1.85a5.4,5.4,0,0,1-2.6.61C371.52,145.45,369.75,144.3,369.75,141.36Z"/><path class="cls-2" d="M379.22,141v-.06c0-3.05,2.52-4.67,6.18-4.67a15.59,15.59,0,0,1,4.46.61v-.5c0-2.6-1.6-3.95-4.32-3.95a10,10,0,0,0-4.39,1.07l-.65-1.77a12,12,0,0,1,5.27-1.2,6.35,6.35,0,0,1,4.67,1.59,5.72,5.72,0,0,1,1.49,4.23v8.85h-2.07V143a6.37,6.37,0,0,1-5.24,2.49C381.93,145.51,379.22,144,379.22,141Zm10.66-1.12v-1.4a15,15,0,0,0-4.25-.62c-2.72,0-4.23,1.18-4.23,3v.06c0,1.82,1.68,2.88,3.64,2.88C387.7,143.8,389.88,142.18,389.88,139.88Z"/><path class="cls-2" d="M396.52,130.72h2.16v3.78a6.2,6.2,0,0,1,5.9-4v2.33h-.16c-3.17,0-5.74,2.26-5.74,6.63v5.77h-2.16Z"/><path class="cls-2" d="M407.92,125.18h2.46v2.38h-2.46Zm.14,5.54h2.15V145.2h-2.15Z"/><path class="cls-2" d="M414.33,138V138a7.55,7.55,0,0,1,15.09-.06V138a7.52,7.52,0,0,1-7.59,7.56A7.42,7.42,0,0,1,414.33,138Zm12.88,0V138a5.48,5.48,0,0,0-5.38-5.66,5.34,5.34,0,0,0-5.29,5.6V138a5.43,5.43,0,0,0,5.35,5.62A5.34,5.34,0,0,0,427.21,138Z"/><path class="cls-2" d="M432.11,143.35l1.09-1.54a8.43,8.43,0,0,0,5,1.85c1.74,0,3-.9,3-2.3v-.05c0-1.46-1.71-2-3.62-2.55-2.26-.64-4.78-1.43-4.78-4.09v0c0-2.5,2.07-4.15,4.92-4.15a9.88,9.88,0,0,1,5.21,1.6l-1,1.62a8.14,8.14,0,0,0-4.28-1.4c-1.71,0-2.8.9-2.8,2.1v.06c0,1.37,1.79,1.9,3.72,2.49,2.24.67,4.65,1.54,4.65,4.14v.06c0,2.74-2.27,4.34-5.15,4.34A9.92,9.92,0,0,1,432.11,143.35Z"/><path class="cls-2" d="M447,142.26h2.58v2.94H447Z"/><path class="cls-3" d="M42,967.49h4.75c4.68,0,7.9,3.36,7.9,8.31V976c0,4.93-3.22,8.33-7.9,8.33H42Zm1.8,1.66v13.49h2.9c3.67,0,6.07-2.67,6.07-6.65v-.17c0-4-2.4-6.67-6.07-6.67Z"/><path class="cls-3" d="M57,980.67v-.1c0-2.56,1.85-4,4.61-4a10.57,10.57,0,0,1,3.22.5v-.74a2.85,2.85,0,0,0-3.2-3.1,6.93,6.93,0,0,0-3.19.84l-.55-1.41a8.58,8.58,0,0,1,3.94-1,4.75,4.75,0,0,1,3.5,1.25,4.63,4.63,0,0,1,1.2,3.38v8h-1.7v-1.82A4.32,4.32,0,0,1,61,984.56,3.83,3.83,0,0,1,57,980.67Zm7.85-.72v-1.56a8.76,8.76,0,0,0-3-.5c-2,0-3.1,1-3.1,2.61v.07a2.51,2.51,0,0,0,2.66,2.55A3.26,3.26,0,0,0,64.84,980Z"/><path class="cls-3" d="M70.43,981.39v-8.07H68.92v-1.53h1.51v-3.65h1.73v3.65h3.26v1.53H72.16v7.78a1.59,1.59,0,0,0,1.8,1.8,3.61,3.61,0,0,0,1.46-.34v1.49a4.13,4.13,0,0,1-1.87.44A2.81,2.81,0,0,1,70.43,981.39Z"/><path class="cls-3" d="M77.54,978.15V978c0-3.65,2.35-6.43,5.56-6.43s5.55,2.76,5.55,6.41v.14c0,3.65-2.35,6.46-5.57,6.46S77.54,981.8,77.54,978.15Zm9.36,0V978c0-2.81-1.68-4.9-3.82-4.9s-3.77,2.09-3.77,4.87v.12c0,2.81,1.66,4.9,3.79,4.9S86.9,980.89,86.9,978.12Z"/><path class="cls-3" d="M90.4,982.76l.91-1.28A5.7,5.7,0,0,0,95,983c1.37,0,2.33-.77,2.33-2v0c0-1.1-1-1.68-2.71-2.38-2-.86-3.58-1.65-3.58-3.6v0c0-2,1.66-3.4,3.89-3.4a6.81,6.81,0,0,1,3.93,1.34L98,974.26a5.45,5.45,0,0,0-3.14-1.18c-1.32,0-2.16.77-2.16,1.76v0c0,1.06,1.08,1.59,2.78,2.31,2.07.91,3.51,1.78,3.51,3.67v0c0,2.23-1.8,3.6-4.06,3.6A7,7,0,0,1,90.4,982.76Z"/><path class="cls-3" d="M101.73,971.81h2.16v2.45h-2.16Zm0,10h2.16v2.47h-2.16Z"/><path class="cls-3" d="M114,967.49h1.8v16.8H114Z"/><path class="cls-3" d="M119.73,971.79h1.73v2a4,4,0,0,1,3.69-2.28c2.55,0,4.08,1.75,4.08,4.56v8.18H127.5v-7.7c0-2.23-1-3.48-2.88-3.48s-3.16,1.44-3.16,3.58v7.6h-1.73Z"/><path class="cls-3" d="M131.49,982.76l.91-1.28a5.68,5.68,0,0,0,3.65,1.52c1.37,0,2.33-.77,2.33-2v0c0-1.1-1-1.68-2.72-2.38-2-.86-3.57-1.65-3.57-3.6v0c0-2,1.65-3.4,3.88-3.4a6.84,6.84,0,0,1,3.94,1.34l-.84,1.32a5.45,5.45,0,0,0-3.14-1.18c-1.32,0-2.16.77-2.16,1.76v0c0,1.06,1.08,1.59,2.78,2.31,2.07.91,3.51,1.78,3.51,3.67v0c0,2.23-1.81,3.6-4.06,3.6A7,7,0,0,1,131.49,982.76Z"/><path class="cls-3" d="M143.44,981.39v-8.07h-1.51v-1.53h1.51v-3.65h1.73v3.65h3.26v1.53h-3.26v7.78a1.59,1.59,0,0,0,1.8,1.8,3.61,3.61,0,0,0,1.46-.34v1.49a4.13,4.13,0,0,1-1.87.44A2.8,2.8,0,0,1,143.44,981.39Z"/><path class="cls-3" d="M151.26,967.18h1.92v2h-1.92Zm.1,4.61h1.73v12.5h-1.73Z"/><path class="cls-3" d="M157.33,981.39v-8.07h-1.51v-1.53h1.51v-3.65h1.73v3.65h3.27v1.53h-3.27v7.78a1.59,1.59,0,0,0,1.8,1.8,3.69,3.69,0,0,0,1.47-.34v1.49a4.2,4.2,0,0,1-1.88.44A2.81,2.81,0,0,1,157.33,981.39Z"/><path class="cls-3" d="M164.94,980v-8.21h1.73v7.7c0,2.24,1.06,3.48,2.88,3.48a3.23,3.23,0,0,0,3.17-3.55v-7.63h1.73v12.5h-1.73v-2a4.06,4.06,0,0,1-3.7,2.28C166.48,984.53,164.94,982.78,164.94,980Z"/><path class="cls-3" d="M178.55,981.39v-8.07H177v-1.53h1.51v-3.65h1.73v3.65h3.26v1.53h-3.26v7.78a1.59,1.59,0,0,0,1.8,1.8,3.61,3.61,0,0,0,1.46-.34v1.49a4.13,4.13,0,0,1-1.87.44A2.8,2.8,0,0,1,178.55,981.39Z"/><path class="cls-3" d="M185.65,978.15V978c0-3.65,2.36-6.43,5.57-6.43s5.55,2.76,5.55,6.41v.14c0,3.65-2.36,6.46-5.57,6.46S185.65,981.8,185.65,978.15Zm9.36,0V978c0-2.81-1.68-4.9-3.81-4.9s-3.77,2.09-3.77,4.87v.12c0,2.81,1.66,4.9,3.79,4.9S195,980.89,195,978.12Z"/><path class="cls-3" d="M206.1,967.49h1.7l8.79,13.23V967.49h1.78v16.8h-1.52l-9-13.53v13.53H206.1Z"/><path class="cls-3" d="M221.34,980.67v-.1c0-2.56,1.85-4,4.61-4a10.57,10.57,0,0,1,3.22.5v-.74a2.85,2.85,0,0,0-3.2-3.1,6.86,6.86,0,0,0-3.19.84l-.55-1.41a8.55,8.55,0,0,1,3.94-1,4.75,4.75,0,0,1,3.5,1.25,4.63,4.63,0,0,1,1.2,3.38v8h-1.7v-1.82a4.32,4.32,0,0,1-3.82,2.09A3.83,3.83,0,0,1,221.34,980.67Zm7.85-.72v-1.56a8.76,8.76,0,0,0-3-.5c-2,0-3.1,1-3.1,2.61v.07a2.5,2.5,0,0,0,2.66,2.55A3.26,3.26,0,0,0,229.19,980Z"/><path class="cls-3" d="M233.56,978.17V978c0-3.8,2.44-6.46,5.56-6.46a5.29,5.29,0,0,1,3.94,1.7l-1,1.3a4,4,0,0,0-2.93-1.42c-2.09,0-3.77,2-3.77,4.88v.11c0,3,1.73,4.85,3.84,4.85a4,4,0,0,0,2.93-1.44l1,1.16a5.17,5.17,0,0,1-4,1.87C235.93,984.56,233.56,982,233.56,978.17Z"/><path class="cls-3" d="M245.72,967.18h1.92v2h-1.92Zm.1,4.61h1.73v12.5h-1.73Z"/><path class="cls-3" d="M250.57,978.15V978c0-3.65,2.35-6.43,5.57-6.43s5.55,2.76,5.55,6.41v.14c0,3.65-2.36,6.46-5.57,6.46S250.57,981.8,250.57,978.15Zm9.36,0V978c0-2.81-1.68-4.9-3.81-4.9s-3.77,2.09-3.77,4.87v.12c0,2.81,1.65,4.9,3.79,4.9S259.93,980.89,259.93,978.12Z"/><path class="cls-3" d="M264.56,971.79h1.73v2a4.06,4.06,0,0,1,3.7-2.28c2.54,0,4.08,1.75,4.08,4.56v8.18h-1.73v-7.7c0-2.23-1.06-3.48-2.88-3.48s-3.17,1.44-3.17,3.58v7.6h-1.73Z"/><path class="cls-3" d="M276.64,980.67v-.1c0-2.56,1.84-4,4.6-4a10.57,10.57,0,0,1,3.22.5v-.74a2.85,2.85,0,0,0-3.19-3.1,6.86,6.86,0,0,0-3.19.84l-.56-1.41a8.58,8.58,0,0,1,3.94-1,4.73,4.73,0,0,1,3.5,1.25,4.63,4.63,0,0,1,1.2,3.38v8h-1.7v-1.82a4.31,4.31,0,0,1-3.82,2.09A3.82,3.82,0,0,1,276.64,980.67Zm7.84-.72v-1.56a8.76,8.76,0,0,0-3-.5c-2,0-3.1,1-3.1,2.61v.07a2.51,2.51,0,0,0,2.67,2.55A3.25,3.25,0,0,0,284.48,980Z"/><path class="cls-3" d="M289.67,967h1.73v17.33h-1.73Z"/><path class="cls-3" d="M300.68,978.17v-.24c0-4.15,2.45-6.38,5-6.38a4.62,4.62,0,0,1,4.05,2.57V967h1.73v17.33h-1.73v-2.4a4.66,4.66,0,0,1-4.05,2.64C303.13,984.53,300.68,982.35,300.68,978.17Zm9.12,0v-.22c0-2.95-1.8-4.82-3.76-4.82s-3.58,1.75-3.58,4.82v.19c0,3,1.63,4.85,3.58,4.85S309.8,981.1,309.8,978.15Z"/><path class="cls-3" d="M314.34,978.15V978c0-3.82,2.23-6.48,5.16-6.48,3.14,0,5,2.69,5,6.46a6.28,6.28,0,0,1,0,.72h-8.4c.19,2.75,1.9,4.29,3.87,4.29a4.44,4.44,0,0,0,3.24-1.44l1,1.11a5.66,5.66,0,0,1-4.3,1.87C316.83,984.56,314.34,982.11,314.34,978.15Zm8.45-.77c-.12-2.38-1.25-4.32-3.29-4.32-1.85,0-3.24,1.7-3.41,4.32Z"/><path class="cls-3" d="M333.75,967.49H344v1.66h-8.44V975h7.58v1.64h-7.58v6h8.56v1.65H333.75Z"/><path class="cls-3" d="M346,982.76l.91-1.28a5.7,5.7,0,0,0,3.65,1.52c1.37,0,2.33-.77,2.33-2v0c0-1.1-1-1.68-2.71-2.38-2-.86-3.58-1.65-3.58-3.6v0c0-2,1.66-3.4,3.89-3.4a6.84,6.84,0,0,1,3.94,1.34l-.84,1.32a5.46,5.46,0,0,0-3.15-1.18c-1.32,0-2.16.77-2.16,1.76v0c0,1.06,1.08,1.59,2.79,2.31,2.06.91,3.5,1.78,3.5,3.67v0c0,2.23-1.8,3.6-4.06,3.6A7,7,0,0,1,346,982.76Z"/><path class="cls-3" d="M357.92,981.39v-8.07h-1.51v-1.53h1.51v-3.65h1.73v3.65h3.27v1.53h-3.27v7.78a1.59,1.59,0,0,0,1.8,1.8,3.69,3.69,0,0,0,1.47-.34v1.49a4.2,4.2,0,0,1-1.88.44A2.81,2.81,0,0,1,357.92,981.39Z"/><path class="cls-3" d="M364.88,980.67v-.1c0-2.56,1.85-4,4.61-4a10.57,10.57,0,0,1,3.22.5v-.74a2.85,2.85,0,0,0-3.2-3.1,6.93,6.93,0,0,0-3.19.84l-.55-1.41a8.58,8.58,0,0,1,3.94-1,4.73,4.73,0,0,1,3.5,1.25,4.63,4.63,0,0,1,1.2,3.38v8h-1.7v-1.82a4.32,4.32,0,0,1-3.82,2.09A3.83,3.83,0,0,1,364.88,980.67Zm7.85-.72v-1.56a8.76,8.76,0,0,0-3-.5c-2,0-3.1,1-3.1,2.61v.07a2.51,2.51,0,0,0,2.66,2.55A3.26,3.26,0,0,0,372.73,980Z"/><path class="cls-3" d="M377.15,978.17v-.24c0-4.15,2.44-6.38,5-6.38a4.62,4.62,0,0,1,4.05,2.57V967h1.73v17.33h-1.73v-2.4a4.65,4.65,0,0,1-4.05,2.64C379.59,984.53,377.15,982.35,377.15,978.17Zm9.12,0v-.22c0-2.95-1.8-4.82-3.77-4.82s-3.58,1.75-3.58,4.82v.19c0,3,1.63,4.85,3.58,4.85S386.27,981.1,386.27,978.15Z"/><path class="cls-3" d="M391.62,971.79h1.73v12.5h-1.73Zm2.23-5,1.78.84-2.52,2.52h-1.32Z"/><path class="cls-3" d="M395.91,982.76l.92-1.28a5.67,5.67,0,0,0,3.64,1.52c1.37,0,2.33-.77,2.33-2v0c0-1.1-1-1.68-2.71-2.38-2-.86-3.58-1.65-3.58-3.6v0c0-2,1.66-3.4,3.89-3.4a6.84,6.84,0,0,1,3.94,1.34l-.84,1.32a5.46,5.46,0,0,0-3.15-1.18c-1.32,0-2.16.77-2.16,1.76v0c0,1.06,1.08,1.59,2.79,2.31,2.06.91,3.5,1.78,3.5,3.67v0c0,2.23-1.8,3.6-4.05,3.6A7,7,0,0,1,395.91,982.76Z"/><path class="cls-3" d="M407.87,981.39v-8.07h-1.52v-1.53h1.52v-3.65h1.72v3.65h3.27v1.53h-3.27v7.78a1.59,1.59,0,0,0,1.8,1.8,3.69,3.69,0,0,0,1.47-.34v1.49a4.13,4.13,0,0,1-1.87.44A2.8,2.8,0,0,1,407.87,981.39Z"/><path class="cls-3" d="M415.69,967.18h1.92v2h-1.92Zm.1,4.61h1.72v12.5h-1.72Z"/><path class="cls-3" d="M420.54,978.17V978c0-3.8,2.45-6.46,5.57-6.46a5.29,5.29,0,0,1,3.93,1.7l-1,1.3a4,4,0,0,0-2.93-1.42c-2.09,0-3.77,2-3.77,4.88v.11c0,3,1.73,4.85,3.84,4.85a4,4,0,0,0,2.93-1.44l1,1.16a5.16,5.16,0,0,1-4,1.87C422.91,984.56,420.54,982,420.54,978.17Z"/><path class="cls-3" d="M431.84,980.67v-.1c0-2.56,1.85-4,4.61-4a10.57,10.57,0,0,1,3.22.5v-.74a2.85,2.85,0,0,0-3.2-3.1,6.93,6.93,0,0,0-3.19.84l-.55-1.41a8.58,8.58,0,0,1,3.94-1,4.75,4.75,0,0,1,3.5,1.25,4.63,4.63,0,0,1,1.2,3.38v8h-1.7v-1.82a4.32,4.32,0,0,1-3.82,2.09A3.83,3.83,0,0,1,431.84,980.67Zm7.85-.72v-1.56a8.76,8.76,0,0,0-3-.5c-2,0-3.1,1-3.1,2.61v.07a2.51,2.51,0,0,0,2.66,2.55A3.26,3.26,0,0,0,439.69,980Z"/><path class="cls-3" d="M450.32,978.17v-.24c0-4.15,2.45-6.38,5-6.38a4.63,4.63,0,0,1,4.06,2.57V967h1.73v17.33h-1.73v-2.4a4.66,4.66,0,0,1-4.06,2.64C452.77,984.53,450.32,982.35,450.32,978.17Zm9.12,0v-.22c0-2.95-1.8-4.82-3.77-4.82s-3.57,1.75-3.57,4.82v.19c0,3,1.63,4.85,3.57,4.85S459.44,981.1,459.44,978.15Z"/><path class="cls-3" d="M464,978.15V978c0-3.82,2.23-6.48,5.16-6.48,3.14,0,5,2.69,5,6.46,0,.16,0,.5,0,.72h-8.4c.19,2.75,1.9,4.29,3.86,4.29a4.4,4.4,0,0,0,3.24-1.44l1,1.11a5.68,5.68,0,0,1-4.3,1.87C466.47,984.56,464,982.11,464,978.15Zm8.45-.77c-.12-2.38-1.25-4.32-3.29-4.32-1.85,0-3.24,1.7-3.41,4.32Z"/><path class="cls-3" d="M482.74,976v-.17c0-4.87,3.08-8.57,7.49-8.57a7.42,7.42,0,0,1,5.09,1.8l-1.08,1.44a5.73,5.73,0,0,0-4.05-1.56c-3.2,0-5.57,2.88-5.57,6.89v.12c0,4.23,2.28,7,5.73,7a6.11,6.11,0,0,0,3.63-1.2V977h-4.2v-1.61h5.93v7.2a8.68,8.68,0,0,1-5.43,2C485.7,984.53,482.74,981.05,482.74,976Z"/><path class="cls-3" d="M499,980v-8.21h1.73v7.7c0,2.24,1.06,3.48,2.88,3.48a3.23,3.23,0,0,0,3.17-3.55v-7.63h1.73v12.5h-1.73v-2a4.06,4.06,0,0,1-3.7,2.28C500.53,984.53,499,982.78,499,980Z"/><path class="cls-3" d="M520,971.79h1.85l-4.44,12.72c-.89,2.59-2,3.48-3.65,3.48a4.67,4.67,0,0,1-2.26-.58L512,986a3.26,3.26,0,0,0,1.63.46c.94,0,1.54-.53,2.16-2.14l-4.8-12.5h1.87l3.75,10.3Z"/><path class="cls-3" d="M523.54,980.67v-.1c0-2.56,1.85-4,4.61-4a10.57,10.57,0,0,1,3.22.5v-.74a2.85,2.85,0,0,0-3.19-3.1,6.94,6.94,0,0,0-3.2.84l-.55-1.41a8.58,8.58,0,0,1,3.94-1,4.73,4.73,0,0,1,3.5,1.25,4.63,4.63,0,0,1,1.2,3.38v8h-1.7v-1.82a4.32,4.32,0,0,1-3.82,2.09A3.83,3.83,0,0,1,523.54,980.67Zm7.85-.72v-1.56a8.76,8.76,0,0,0-3-.5c-2,0-3.1,1-3.1,2.61v.07a2.51,2.51,0,0,0,2.67,2.55A3.25,3.25,0,0,0,531.39,980Z"/><path class="cls-3" d="M536.43,971.79h1.73v2a4,4,0,0,1,3.7-2.28c2.54,0,4.08,1.75,4.08,4.56v8.18h-1.73v-7.7c0-2.23-1.06-3.48-2.88-3.48s-3.17,1.44-3.17,3.58v7.6h-1.73Z"/><path class="cls-3" d="M548.5,980.67v-.1c0-2.56,1.85-4,4.61-4a10.57,10.57,0,0,1,3.22.5v-.74a2.85,2.85,0,0,0-3.19-3.1,6.94,6.94,0,0,0-3.2.84l-.55-1.41a8.58,8.58,0,0,1,3.94-1,4.73,4.73,0,0,1,3.5,1.25,4.63,4.63,0,0,1,1.2,3.38v8h-1.7v-1.82a4.32,4.32,0,0,1-3.82,2.09A3.83,3.83,0,0,1,548.5,980.67Zm7.85-.72v-1.56a8.76,8.76,0,0,0-3-.5c-2,0-3.1,1-3.1,2.61v.07a2.51,2.51,0,0,0,2.67,2.55A3.25,3.25,0,0,0,556.35,980Z"/><path class="cls-3" d="M567.22,977.38a11.26,11.26,0,0,1,6-10.22l.7,1.12a10.88,10.88,0,0,0,0,18.2l-.7,1.13A11.26,11.26,0,0,1,567.22,977.38Z"/><path class="cls-3" d="M575.93,982.9l5.43-6c2-2.16,2.78-3.38,2.78-4.94a2.89,2.89,0,0,0-3-3c-1.54,0-2.64.81-3.77,2.4l-1.25-1.06a5.87,5.87,0,0,1,5.19-3,4.45,4.45,0,0,1,4.73,4.49v.07c0,2.16-1,3.58-3.39,6.05l-4.2,4.75h7.71v1.68H575.93Z"/><path class="cls-3" d="M588.7,976v-.19c0-5,2.38-8.59,6.1-8.59s6.07,3.5,6.07,8.54V976c0,5-2.38,8.6-6.1,8.6S588.7,981.05,588.7,976ZM599,976v-.19c0-4-1.7-7-4.25-7s-4.22,2.88-4.22,6.91V976c0,4,1.68,7,4.25,7S599,980.05,599,976Z"/><path class="cls-3" d="M605.84,969.32l-2.74,1-.31-1.56,3.48-1.32h1.34v16.89h-1.77Z"/><path class="cls-3" d="M619,969.17h-7.88v-1.68h9.82v1.37l-6.48,15.43h-1.94Z"/><path class="cls-3" d="M623.05,986.48a10.88,10.88,0,0,0,0-18.2l.69-1.12a11.73,11.73,0,0,1,0,20.45Z"/><path class="cls-3" d="M1014.19,976.37a4,4,0,0,0,1.89-3.57v0a4.08,4.08,0,0,0-1.23-3,6.28,6.28,0,0,0-4.56-1.56h-8v17.27h8.22c4.15,0,6.53-1.77,6.53-4.86v0a4.17,4.17,0,0,0-2.82-4.16m-3.71,5.3h-4.11v-3.15h4c1.64,0,2.47.52,2.47,1.55v0c0,1-.79,1.55-2.35,1.55m-4.11-6.74v-3h3.37c1,0,2.15.25,2.15,1.45v0c0,1-.8,1.51-2.39,1.51Z"/><path class="cls-3" d="M1030.84,968.16h-6.79v17.27h6.79a9.44,9.44,0,0,0,6.6-2.49,8.44,8.44,0,0,0,2.56-6.15v0c0-5-3.85-8.59-9.16-8.59m4.78,8.63v.05a4.51,4.51,0,0,1-4.78,4.74h-2.58V972h2.58a4.52,4.52,0,0,1,4.78,4.78"/><path class="cls-3" d="M1020.28,968.13a2.11,2.11,0,0,1,2.1,2.11v15.19h-4.21v-17.3Z"/><path class="cls-3" d="M984.69,979.41c-2.22,3.6,4.93,3.66,1.62,10.39l-.29.05a14.11,14.11,0,0,1-13.69-21.93c-.36,8.13,14.44,8.12,12.36,11.49m3.16,10c.76-1.41,2.42-3.48,6-7.65,5.31-6.23-10.41-4.14-13.1-8.85-2.22-3.89,6-6.68,11-8.85a14.11,14.11,0,0,1-3.88,25.35m-4.66-17.79c-.53.27.42,1.5,2.84,1.57s-.7-2.7-2.84-1.57m5.35,1.31c-1.82-.59-.62.87.24,1s1-.54-.24-1m1.89,1.42c-.6,0-.71.34.2.54,1.28.27.41-.51-.2-.54"/><line class="cls-4" x1="40" y1="955" x2="1040" y2="955"/><path class="cls-3" d="M42.52,42.16h4.26l9.84,14.37V42.16h4.56V65.5H57.25L47.08,50.66V65.5H42.52Z"/><path class="cls-3" d="M65.83,41.16h4.8v4.5h-4.8ZM66,47.63h4.56V65.5H66Z"/><path class="cls-3" d="M73.36,47.63h4.83l3.6,12,3.63-12h4.74l-6.33,18H79.69Z"/><path class="cls-3" d="M92,56.66V56.6c0-5.1,3.27-9.3,8-9.3,5.37,0,7.83,4.63,7.83,9.7,0,.4,0,.86-.06,1.33H96.55c.45,2.3,1.89,3.5,3.93,3.5a5,5,0,0,0,3.9-1.83L107,62.57a7.76,7.76,0,0,1-6.57,3.33C95.59,65.9,92,62.13,92,56.66Zm11.34-1.5c-.27-2.26-1.47-3.8-3.39-3.8s-3.12,1.5-3.48,3.8Z"/><path class="cls-3" d="M111.4,41.16H116V65.5H111.4Z"/><path class="cls-3" d="M128.47,56.66V56.6c0-5.1,3.27-9.3,7.95-9.3,5.37,0,7.83,4.63,7.83,9.7,0,.4,0,.86-.06,1.33H133c.45,2.3,1.89,3.5,3.93,3.5a5,5,0,0,0,3.9-1.83l2.61,2.57a7.76,7.76,0,0,1-6.57,3.33C132,65.9,128.47,62.13,128.47,56.66Zm11.34-1.5c-.27-2.26-1.47-3.8-3.39-3.8s-3.12,1.5-3.48,3.8Z"/><path class="cls-3" d="M146.92,56.6v-.07c0-6,3.51-9.23,7.32-9.23a6,6,0,0,1,5,2.66v-8.8h4.56V65.5h-4.56V62.93a5.76,5.76,0,0,1-5,2.9C150.49,65.83,146.92,62.57,146.92,56.6Zm12.39,0v-.07c0-3-1.77-4.93-3.9-4.93s-3.93,1.93-3.93,4.93v.07c0,3,1.8,4.93,3.93,4.93S159.31,59.56,159.31,56.6Z"/><path class="cls-3" d="M167.77,59.2V47.63h4.56v10c0,2.4,1,3.63,2.76,3.63s2.85-1.23,2.85-3.63v-10h4.56V65.5h-4.56V63c-1.05,1.5-2.4,2.86-4.71,2.86C169.78,65.83,167.77,63.3,167.77,59.2Z"/><path class="cls-3" d="M185.8,56.66V56.6c0-5.1,3.51-9.3,8.43-9.3a7.56,7.56,0,0,1,6.42,3l-2.79,3.33a4.55,4.55,0,0,0-3.66-2c-2.28,0-3.9,2.24-3.9,4.87v.07c0,2.73,1.59,4.93,4.08,4.93a4.89,4.89,0,0,0,3.69-1.9l2.67,3a7.8,7.8,0,0,1-6.57,3.27C189.34,65.9,185.8,61.77,185.8,56.66Z"/><path class="cls-3" d="M202.75,60.37V60.3c0-3.9,2.67-5.7,6.48-5.7a10.47,10.47,0,0,1,3.93.73V55c0-2.1-1.17-3.27-3.45-3.27a10.81,10.81,0,0,0-4.44,1l-1.14-3.87a13.08,13.08,0,0,1,6.24-1.43,7,7,0,0,1,5.43,2,8.33,8.33,0,0,1,1.74,5.7V65.5h-4.41V63.57a5.93,5.93,0,0,1-4.86,2.26A5.2,5.2,0,0,1,202.75,60.37Zm10.47-1.17v-.9a6.47,6.47,0,0,0-2.91-.67c-1.95,0-3.15.87-3.15,2.47v.07c0,1.36,1,2.16,2.49,2.16C211.78,62.33,213.22,61,213.22,59.2Z"/><path class="cls-3" d="M222.22,60.43V52H220.3V47.63h1.92V43.06h4.56v4.57h3.78V52h-3.78V59.6c0,1.17.45,1.73,1.47,1.73a4.28,4.28,0,0,0,2.25-.63v4.07a6.24,6.24,0,0,1-3.6,1C224.11,65.8,222.22,64.57,222.22,60.43Z"/><path class="cls-3" d="M234,41.16h4.8v4.5H234Zm.12,6.47h4.56V65.5h-4.56Z"/><path class="cls-3" d="M241.54,47.63h4.82l3.6,12,3.63-12h4.74l-6.33,18h-4.14Z"/><path class="cls-3" d="M260.19,56.66V56.6c0-5.14,3.72-9.3,8.73-9.3s8.67,4.1,8.67,9.23v.07c0,5.13-3.72,9.3-8.73,9.3S260.19,61.8,260.19,56.66Zm12.9,0V56.6c0-2.64-1.71-4.94-4.23-4.94s-4.17,2.24-4.17,4.87v.07c0,2.63,1.71,4.93,4.23,4.93S273.09,59.3,273.09,56.66Z"/><path class="cls-3" d="M289.17,56.6v-.07c0-6,3.51-9.23,7.32-9.23a6,6,0,0,1,5,2.66v-8.8h4.56V65.5H301.5V62.93a5.76,5.76,0,0,1-5,2.9C292.74,65.83,289.17,62.57,289.17,56.6Zm12.39,0v-.07c0-3-1.77-4.93-3.9-4.93s-3.93,1.93-3.93,4.93v.07c0,3,1.8,4.93,3.93,4.93S301.56,59.56,301.56,56.6Z"/><path class="cls-3" d="M309.36,56.66V56.6c0-5.1,3.27-9.3,7.95-9.3,5.37,0,7.83,4.63,7.83,9.7,0,.4,0,.86-.06,1.33H313.89c.45,2.3,1.89,3.5,3.93,3.5a5,5,0,0,0,3.9-1.83l2.61,2.57a7.76,7.76,0,0,1-6.57,3.33C312.93,65.9,309.36,62.13,309.36,56.66Zm11.34-1.5c-.27-2.26-1.47-3.8-3.39-3.8s-3.12,1.5-3.48,3.8Z"/><path class="cls-3" d="M337.74,41.16h4.56V65.5h-4.56Z"/><path class="cls-3" d="M345.63,60.37V60.3c0-3.9,2.67-5.7,6.48-5.7a10.47,10.47,0,0,1,3.93.73V55c0-2.1-1.17-3.27-3.45-3.27a10.81,10.81,0,0,0-4.44,1L347,48.86a13.08,13.08,0,0,1,6.24-1.43,7,7,0,0,1,5.43,2,8.33,8.33,0,0,1,1.74,5.7V65.5H356V63.57a5.93,5.93,0,0,1-4.86,2.26A5.2,5.2,0,0,1,345.63,60.37ZM356.1,59.2v-.9a6.47,6.47,0,0,0-2.91-.67c-1.95,0-3.15.87-3.15,2.47v.07c0,1.36,1,2.16,2.49,2.16C354.66,62.33,356.1,61,356.1,59.2Z"/><path class="cls-3" d="M373.35,47.63h4.56V50.2a5.76,5.76,0,0,1,5-2.9c3.75,0,7.32,3.26,7.32,9.23v.07c0,6-3.51,9.23-7.32,9.23a6,6,0,0,1-5-2.66v7.66h-4.56Zm12.33,9v-.07c0-3-1.8-4.93-3.93-4.93s-3.9,2-3.9,4.93v.07c0,3,1.77,4.93,3.9,4.93S385.68,59.6,385.68,56.6Z"/><path class="cls-3" d="M392.82,56.66V56.6c0-5.14,3.72-9.3,8.73-9.3s8.67,4.1,8.67,9.23v.07c0,5.13-3.72,9.3-8.73,9.3S392.82,61.8,392.82,56.66Zm12.9,0V56.6c0-2.64-1.71-4.94-4.23-4.94s-4.17,2.24-4.17,4.87v.07c0,2.63,1.71,4.93,4.23,4.93S405.72,59.3,405.72,56.66Z"/><path class="cls-3" d="M418.08,63.17V65.5h-4.56V41.16h4.56v9a5.76,5.76,0,0,1,5-2.9c3.75,0,7.32,3.26,7.32,9.23v.07c0,6-3.51,9.23-7.32,9.23A6,6,0,0,1,418.08,63.17Zm7.77-6.57v-.07c0-3-1.8-4.93-3.93-4.93s-3.9,2-3.9,4.93v.07c0,3,1.77,4.93,3.9,4.93S425.85,59.6,425.85,56.6Z"/><path class="cls-3" d="M434,41.16h4.56V65.5H434Z"/><path class="cls-3" d="M441.87,60.37V60.3c0-3.9,2.67-5.7,6.48-5.7a10.47,10.47,0,0,1,3.93.73V55c0-2.1-1.17-3.27-3.45-3.27a10.81,10.81,0,0,0-4.44,1l-1.14-3.87a13.08,13.08,0,0,1,6.24-1.43,7,7,0,0,1,5.43,2,8.33,8.33,0,0,1,1.74,5.7V65.5h-4.41V63.57a5.93,5.93,0,0,1-4.86,2.26A5.2,5.2,0,0,1,441.87,60.37Zm10.47-1.17v-.9a6.47,6.47,0,0,0-2.91-.67c-1.95,0-3.15.87-3.15,2.47v.07c0,1.36,1,2.16,2.49,2.16C450.9,62.33,452.34,61,452.34,59.2Z"/><path class="cls-3" d="M459.81,56.66V56.6c0-5.1,3.51-9.3,8.43-9.3a7.56,7.56,0,0,1,6.42,3l-2.79,3.33a4.55,4.55,0,0,0-3.66-2c-2.28,0-3.9,2.24-3.9,4.87v.07c0,2.73,1.59,4.93,4.08,4.93a4.89,4.89,0,0,0,3.69-1.9l2.67,3a7.8,7.8,0,0,1-6.57,3.27C463.35,65.9,459.81,61.77,459.81,56.66Z"/><path class="cls-3" d="M477.81,41.16h4.8v4.5h-4.8Zm.12,6.47h4.56V65.5h-4.56Z"/><path class="cls-3" d="M486,56.66V56.6c0-5.14,3.72-9.3,8.73-9.3s8.67,4.1,8.67,9.23v.07c0,5.13-3.72,9.3-8.73,9.3S486,61.8,486,56.66Zm12.9,0V56.6c0-2.64-1.71-4.94-4.23-4.94s-4.17,2.24-4.17,4.87v.07c0,2.63,1.71,4.93,4.23,4.93S498.9,59.3,498.9,56.66Zm-2.67-16.9,3.93,1.9-3.9,4H492.9Z"/><path class="cls-3" d="M506.7,47.63h4.56v2.53c1-1.5,2.4-2.86,4.71-2.86,3.45,0,5.46,2.53,5.46,6.63V65.5h-4.56v-10c0-2.4-1-3.63-2.76-3.63s-2.85,1.23-2.85,3.63v10H506.7Z"/><path class="cls-3" d="M533.61,56.66V56.6c0-5.1,3.27-9.3,7.95-9.3,5.37,0,7.83,4.63,7.83,9.7,0,.4,0,.86-.06,1.33H538.14c.45,2.3,1.89,3.5,3.93,3.5A5,5,0,0,0,546,60l2.61,2.57A7.76,7.76,0,0,1,542,65.9C537.18,65.9,533.61,62.13,533.61,56.66ZM545,55.16c-.27-2.26-1.47-3.8-3.39-3.8s-3.12,1.5-3.48,3.8Z"/><path class="cls-3" d="M552.78,47.63h4.56v2.53c1-1.5,2.4-2.86,4.71-2.86,3.45,0,5.46,2.53,5.46,6.63V65.5H563v-10c0-2.4-1-3.63-2.76-3.63s-2.85,1.23-2.85,3.63v10h-4.56Z"/><path class="cls-3" d="M579.69,56.66V56.6c0-5.1,3.27-9.3,7.94-9.3,5.37,0,7.83,4.63,7.83,9.7,0,.4,0,.86-.06,1.33H584.21c.46,2.3,1.89,3.5,3.94,3.5A5,5,0,0,0,592,60l2.61,2.57a7.76,7.76,0,0,1-6.57,3.33C583.25,65.9,579.69,62.13,579.69,56.66ZM591,55.16c-.27-2.26-1.47-3.8-3.39-3.8s-3.11,1.5-3.47,3.8Z"/><path class="cls-3" d="M598.13,56.6v-.07c0-6,3.51-9.23,7.32-9.23a6,6,0,0,1,5,2.66v-8.8H615V65.5h-4.56V62.93a5.76,5.76,0,0,1-5,2.9C601.7,65.83,598.13,62.57,598.13,56.6Zm12.39,0v-.07c0-3-1.77-4.93-3.9-4.93s-3.93,1.93-3.93,4.93v.07c0,3,1.8,4.93,3.93,4.93S610.52,59.56,610.52,56.6Z"/><path class="cls-3" d="M618.14,60.37V60.3c0-3.9,2.67-5.7,6.48-5.7a10.47,10.47,0,0,1,3.93.73V55c0-2.1-1.17-3.27-3.45-3.27a10.81,10.81,0,0,0-4.44,1l-1.14-3.87a13.08,13.08,0,0,1,6.24-1.43,7,7,0,0,1,5.43,2,8.33,8.33,0,0,1,1.74,5.7V65.5h-4.41V63.57a5.93,5.93,0,0,1-4.86,2.26A5.2,5.2,0,0,1,618.14,60.37Zm10.47-1.17v-.9a6.47,6.47,0,0,0-2.91-.67c-2,0-3.15.87-3.15,2.47v.07c0,1.36,1,2.16,2.49,2.16C627.17,62.33,628.61,61,628.61,59.2Z"/><path class="cls-3" d="M636.14,56.6v-.07c0-6,3.51-9.23,7.32-9.23a6,6,0,0,1,5,2.66v-8.8H653V65.5h-4.56V62.93a5.76,5.76,0,0,1-5,2.9C639.71,65.83,636.14,62.57,636.14,56.6Zm12.39,0v-.07c0-3-1.77-4.93-3.9-4.93s-3.93,1.93-3.93,4.93v.07c0,3,1.8,4.93,3.93,4.93S648.53,59.56,648.53,56.6Z"/><path class="cls-3" d="M665.39,56.6v-.07c0-6,3.51-9.23,7.32-9.23a6,6,0,0,1,5,2.66v-8.8h4.56V65.5h-4.56V62.93a5.76,5.76,0,0,1-5,2.9C669,65.83,665.39,62.57,665.39,56.6Zm12.39,0v-.07c0-3-1.77-4.93-3.9-4.93S670,53.53,670,56.53v.07c0,3,1.8,4.93,3.93,4.93S677.78,59.56,677.78,56.6Z"/><path class="cls-3" d="M685.58,56.66V56.6c0-5.1,3.27-9.3,7.95-9.3,5.37,0,7.83,4.63,7.83,9.7,0,.4,0,.86-.06,1.33H690.11c.45,2.3,1.89,3.5,3.93,3.5a5,5,0,0,0,3.9-1.83l2.61,2.57A7.76,7.76,0,0,1,694,65.9C689.15,65.9,685.58,62.13,685.58,56.66Zm11.34-1.5c-.27-2.26-1.47-3.8-3.39-3.8s-3.12,1.5-3.48,3.8Z"/><path class="cls-3" d="M714.5,60.43V52h-1.92V47.63h1.92V43.06h4.56v4.57h3.78V52h-3.78V59.6c0,1.17.45,1.73,1.47,1.73a4.28,4.28,0,0,0,2.25-.63v4.07a6.24,6.24,0,0,1-3.6,1C716.39,65.8,714.5,64.57,714.5,60.43Z"/><path class="cls-3" d="M726.2,47.63h4.56v3.6c.93-2.47,2.43-4.07,5.13-3.93v5.3h-.24c-3,0-4.89,2-4.89,6.3v6.6H726.2Z"/><path class="cls-3" d="M737.78,60.37V60.3c0-3.9,2.67-5.7,6.48-5.7a10.47,10.47,0,0,1,3.93.73V55c0-2.1-1.17-3.27-3.45-3.27a10.81,10.81,0,0,0-4.44,1l-1.14-3.87a13.08,13.08,0,0,1,6.24-1.43,7,7,0,0,1,5.43,2,8.33,8.33,0,0,1,1.74,5.7V65.5h-4.41V63.57a5.93,5.93,0,0,1-4.86,2.26A5.2,5.2,0,0,1,737.78,60.37Zm10.47-1.17v-.9a6.47,6.47,0,0,0-2.91-.67c-2,0-3.15.87-3.15,2.47v.07c0,1.36,1,2.16,2.49,2.16C746.81,62.33,748.25,61,748.25,59.2Z"/><path class="cls-3" d="M761.06,63.17V65.5H756.5V41.16h4.56v9a5.76,5.76,0,0,1,5-2.9c3.75,0,7.32,3.26,7.32,9.23v.07c0,6-3.51,9.23-7.32,9.23A6,6,0,0,1,761.06,63.17Zm7.77-6.57v-.07c0-3-1.8-4.93-3.93-4.93s-3.9,2-3.9,4.93v.07c0,3,1.77,4.93,3.9,4.93S768.83,59.6,768.83,56.6Z"/><path class="cls-3" d="M775.79,60.37V60.3c0-3.9,2.67-5.7,6.48-5.7a10.47,10.47,0,0,1,3.93.73V55c0-2.1-1.17-3.27-3.45-3.27a10.81,10.81,0,0,0-4.44,1l-1.14-3.87a13.08,13.08,0,0,1,6.24-1.43,7,7,0,0,1,5.43,2,8.33,8.33,0,0,1,1.74,5.7V65.5h-4.41V63.57a5.93,5.93,0,0,1-4.86,2.26A5.2,5.2,0,0,1,775.79,60.37Zm10.47-1.17v-.9a6.47,6.47,0,0,0-2.91-.67c-2,0-3.15.87-3.15,2.47v.07c0,1.36,1,2.16,2.49,2.16C784.82,62.33,786.26,61,786.26,59.2Z"/><path class="cls-3" d="M792.14,70.73v-4a5.5,5.5,0,0,0,1,.1c1,0,1.62-.57,1.62-2.07V47.63h4.56V65.2c0,3.93-1.8,5.73-5.16,5.73A8.22,8.22,0,0,1,792.14,70.73Zm2.46-29.57h4.8v4.5h-4.8Z"/><path class="cls-3" d="M802.61,60.37V60.3c0-3.9,2.67-5.7,6.48-5.7a10.47,10.47,0,0,1,3.93.73V55c0-2.1-1.17-3.27-3.45-3.27a10.81,10.81,0,0,0-4.44,1L804,48.86a13.08,13.08,0,0,1,6.24-1.43,7,7,0,0,1,5.43,2,8.33,8.33,0,0,1,1.74,5.7V65.5H813V63.57a5.93,5.93,0,0,1-4.86,2.26A5.2,5.2,0,0,1,802.61,60.37Zm10.47-1.17v-.9a6.47,6.47,0,0,0-2.91-.67c-1.95,0-3.15.87-3.15,2.47v.07c0,1.36,1,2.16,2.49,2.16C811.64,62.33,813.08,61,813.08,59.2Z"/><path class="cls-3" d="M821.33,47.63h4.56v3.6c.93-2.47,2.43-4.07,5.13-3.93v5.3h-.24c-3,0-4.89,2-4.89,6.3v6.6h-4.56Z"/><polygon class="cls-5" points="940 182 840 182 740 182 740 252 840 252 940 252 1040 252 1040 182 940 182"/><polygon class="cls-6" points="740 252 640 252 540 252 440 252 340 252 240 252 240 322 340 322 440 322 540 322 640 322 740 322 840 322 840 252 740 252"/><polygon class="cls-7" points="940 812 840 812 740 812 640 812 540 812 440 812 340 812 240 812 140 812 40 812 40 882 140 882 240 882 340 882 440 882 540 882 640 882 740 882 840 882 940 882 1040 882 1040 812 940 812"/><polygon class="cls-8" points="940 462 840 462 740 462 640 462 540 462 440 462 340 462 240 462 240 532 140 532 40 532 40 602 40 672 40 742 40 812 140 812 240 812 340 812 440 812 540 812 640 812 740 812 840 812 940 812 1040 812 1040 742 1040 672 1040 602 1040 532 1040 462 940 462"/><polygon class="cls-9" points="940 252 840 252 840 322 740 322 640 322 540 322 440 322 340 322 240 322 140 322 40 322 40 392 40 462 40 532 140 532 240 532 240 462 340 462 440 462 540 462 640 462 740 462 840 462 940 462 1040 462 1040 392 1040 322 1040 252 940 252"/><polygon class="cls-10" points="140 252 40 252 40 322 140 322 240 322 240 252 140 252"/><polygon class="cls-11" points="640 182 540 182 440 182 340 182 240 182 140 182 40 182 40 252 140 252 240 252 340 252 440 252 540 252 640 252 740 252 740 182 640 182"/><path class="cls-1" d="M453.29,627.47h6.62c3.94,0,6.39,2.23,6.39,5.62v0c0,3.77-3,5.74-6.72,5.74h-3.34v5.4h-2.95Zm6.38,8.74c2.24,0,3.63-1.25,3.63-3v-.05c0-2-1.42-3-3.63-3h-3.43v6.05Z"/><path class="cls-1" d="M469,631.6h2.9v2.86a4.49,4.49,0,0,1,4.49-3.1v3.07h-.17c-2.54,0-4.32,1.66-4.32,5v4.82H469Z"/><path class="cls-1" d="M479,626.89h3.12v2.76H479Zm.12,4.71H482v12.67h-2.9Z"/><path class="cls-1" d="M485.76,631.6h2.91v1.92a4.53,4.53,0,0,1,3.86-2.19,4,4,0,0,1,3.79,2.24,5.09,5.09,0,0,1,4.27-2.24c2.76,0,4.44,1.76,4.44,4.85v8.09h-2.9v-7.2c0-2-.94-3.1-2.57-3.1s-2.71,1.11-2.71,3.15v7.15H494v-7.22c0-2-1-3.08-2.57-3.08s-2.71,1.2-2.71,3.15v7.15h-2.91Z"/><path class="cls-1" d="M507.72,640.62v0c0-2.74,2.14-4.08,5.23-4.08a10.63,10.63,0,0,1,3.41.52v-.31c0-1.8-1.1-2.76-3.14-2.76a8.86,8.86,0,0,0-3.63.79l-.76-2.28a10.85,10.85,0,0,1,4.77-1,5.64,5.64,0,0,1,4.2,1.42,5.23,5.23,0,0,1,1.37,3.91v7.51h-2.83v-1.58a5.18,5.18,0,0,1-4.13,1.85C509.83,644.54,507.72,643.17,507.72,640.62Zm8.69-.91v-.86a8,8,0,0,0-2.88-.51c-1.87,0-3,.79-3,2.12v0c0,1.23,1.08,1.92,2.48,1.92C515,642.42,516.41,641.32,516.41,639.71Z"/><path class="cls-1" d="M522.65,631.6h2.9v2.86a4.5,4.5,0,0,1,4.49-3.1v3.07h-.17c-2.54,0-4.32,1.66-4.32,5v4.82h-2.9Z"/><path class="cls-1" d="M532.61,626.89h3.12v2.76h-3.12Zm.12,4.71h2.9v12.67h-2.9Z"/><path class="cls-1" d="M538.58,640.62v0c0-2.74,2.14-4.08,5.24-4.08a10.73,10.73,0,0,1,3.41.52v-.31c0-1.8-1.11-2.76-3.15-2.76a8.78,8.78,0,0,0-3.62.79l-.77-2.28a10.85,10.85,0,0,1,4.77-1,5.67,5.67,0,0,1,4.21,1.42,5.26,5.26,0,0,1,1.36,3.91v7.51H547.2v-1.58a5.15,5.15,0,0,1-4.13,1.85C540.7,644.54,538.58,643.17,538.58,640.62Zm8.69-.91v-.86a8,8,0,0,0-2.88-.51c-1.87,0-3,.79-3,2.12v0c0,1.23,1.08,1.92,2.47,1.92C545.81,642.42,547.27,641.32,547.27,639.71Z"/><path class="cls-1" d="M568.78,640.5H560.3l-.55-2.11,9.34-11h2.52v10.73H574v2.42h-2.4v3.77h-2.83Zm0-2.42v-6.65l-5.52,6.65Z"/><path class="cls-1" d="M576.41,639.69v-.05c0-2,1.13-3.29,3-4.08a4.05,4.05,0,0,1-2.45-3.75v0c0-2.57,2.48-4.54,5.84-4.54s5.83,1.94,5.83,4.54v0a4,4,0,0,1-2.45,3.75c1.85.84,3,2,3,4v0c0,3-2.73,4.87-6.4,4.87S576.41,642.59,576.41,639.69Zm9.93-.17v0c0-1.54-1.53-2.54-3.52-2.54s-3.51,1-3.51,2.54v0c0,1.37,1.3,2.52,3.51,2.52S586.34,640.91,586.34,639.52Zm-.52-7.42v-.05c0-1.29-1.2-2.35-3-2.35s-3,1.06-3,2.33v.05c0,1.46,1.27,2.49,3,2.49S585.82,633.54,585.82,632.1Z"/><path class="cls-1" d="M591.19,646.53c1.47-.29,2.16-1,2.07-2.26H592V641h3.19v2.81c0,2.66-1.27,3.79-3.7,4Z"/><path class="cls-1" d="M597.86,641.61l2.07-1.92a5.49,5.49,0,0,0,4.41,2.21,2.63,2.63,0,0,0,2.91-2.55v-.05c0-1.65-1.51-2.59-3.87-2.59H602l-.48-1.85,4.53-4.82H598.8v-2.57h11.11v2.21l-4.68,4.8c2.55.31,4.95,1.61,4.95,4.7v.05c0,3.1-2.38,5.33-5.88,5.33A8,8,0,0,1,597.86,641.61Z"/><path class="cls-1" d="M612.82,631.62v0a4,4,0,0,1,4-4.29,4,4,0,0,1,3.94,4.25v0a4.06,4.06,0,0,1-4,4.3A4,4,0,0,1,612.82,631.62Zm14-4.15h2.37l-6.62,8.95-5.66,7.85h-2.38l6.6-8.93ZM615,631.53v0c0,1.37.77,2.45,1.85,2.45s1.8-1.1,1.8-2.4v0c0-1.34-.77-2.44-1.85-2.44S615,630.23,615,631.53Zm8,8.68v0a4,4,0,1,1,7.92,0v0a4.06,4.06,0,0,1-4,4.29A4,4,0,0,1,623,640.21Zm5.78,0v0c0-1.35-.77-2.45-1.85-2.45s-1.8,1.1-1.8,2.4v0c0,1.37.77,2.45,1.85,2.45S628.75,641.51,628.75,640.21Z"/><path class="cls-1" d="M437.2,851.82l1.77-2.11a7.8,7.8,0,0,0,5.31,2.19c1.82,0,3-.87,3-2.12v0c0-1.2-.67-1.85-3.79-2.57-3.57-.87-5.59-1.92-5.59-5v0c0-2.88,2.4-4.87,5.74-4.87a9.29,9.29,0,0,1,6.09,2.11l-1.58,2.23a7.68,7.68,0,0,0-4.56-1.72c-1.73,0-2.74.88-2.74,2v0c0,1.29.77,1.87,4,2.64,3.55.86,5.38,2.13,5.38,4.92v0c0,3.14-2.48,5-6,5A10.34,10.34,0,0,1,437.2,851.82Z"/><path class="cls-1" d="M453.4,836.89h3.12v2.76H453.4Zm.12,4.71h2.9v12.67h-2.9Z"/><path class="cls-1" d="M460.21,841.6h2.91v1.94a4.6,4.6,0,0,1,4-2.21c2.85,0,4.51,1.92,4.51,4.85v8.09h-2.9v-7.2c0-2-1-3.1-2.72-3.1s-2.85,1.18-2.85,3.15v7.15h-2.91Z"/><path class="cls-1" d="M481.6,848v-.05a6.29,6.29,0,0,1,6.19-6.6c4,0,6.07,3.17,6.07,6.82a7.83,7.83,0,0,1-.05.82H484.5a3.54,3.54,0,0,0,3.65,3.21,4.57,4.57,0,0,0,3.43-1.51l1.71,1.51a6.42,6.42,0,0,1-5.19,2.38A6.32,6.32,0,0,1,481.6,848Zm9.38-.93c-.19-1.88-1.29-3.34-3.21-3.34s-3,1.37-3.29,3.34Z"/><path class="cls-1" d="M495.76,852.62l1.29-2a7.19,7.19,0,0,0,4.16,1.56c1.24,0,2-.53,2-1.37v-.05c0-1-1.34-1.32-2.83-1.78-1.87-.52-4-1.29-4-3.72v0c0-2.4,2-3.87,4.51-3.87a8.75,8.75,0,0,1,4.66,1.44l-1.15,2.07a7.31,7.31,0,0,0-3.58-1.2c-1.13,0-1.78.52-1.78,1.24V845c0,.94,1.37,1.32,2.86,1.8,1.85.58,3.94,1.42,3.94,3.7v0c0,2.66-2.07,4-4.71,4A8.92,8.92,0,0,1,495.76,852.62Z"/><path class="cls-1" d="M509.17,850.77v-6.68h-1.61V841.6h1.61v-3.48h2.91v3.48h3.41v2.49h-3.41v6.22a1.38,1.38,0,0,0,1.56,1.59,3.89,3.89,0,0,0,1.8-.44v2.38a5,5,0,0,1-2.62.65C510.69,854.49,509.17,853.55,509.17,850.77Z"/><path class="cls-1" d="M518.29,849.66V841.6h2.91v7.2c0,2,1,3.07,2.71,3.07a2.8,2.8,0,0,0,2.86-3.12V841.6h2.92v12.67h-2.92v-2a4.59,4.59,0,0,1-4,2.24C520,854.54,518.29,852.62,518.29,849.66Z"/><path class="cls-1" d="M532.67,848v-.05c0-4.2,2.85-6.58,5.88-6.58a5.18,5.18,0,0,1,4.32,2.24v-6.82h2.9v17.52h-2.9v-2.11a5.09,5.09,0,0,1-4.32,2.38C535.57,854.54,532.67,852.16,532.67,848Zm10.25,0v-.05a3.81,3.81,0,0,0-3.68-4.06c-2,0-3.64,1.54-3.64,4.06V848a3.77,3.77,0,0,0,3.64,4.06A3.83,3.83,0,0,0,542.92,848Z"/><path class="cls-1" d="M549.47,836.89h3.12v2.76h-3.12Zm.12,4.71h2.9v12.67h-2.9Z"/><path class="cls-1" d="M555.59,848v0a6.76,6.76,0,0,1,13.51-.05V848a6.62,6.62,0,0,1-6.79,6.6A6.55,6.55,0,0,1,555.59,848Zm10.61,0v0a3.92,3.92,0,0,0-3.89-4.08,3.8,3.8,0,0,0-3.82,4V848a3.91,3.91,0,0,0,3.87,4.06A3.81,3.81,0,0,0,566.2,848Z"/><path class="cls-1" d="M571,852.62l1.3-2a7.16,7.16,0,0,0,4.15,1.56c1.25,0,2-.53,2-1.37v-.05c0-1-1.35-1.32-2.84-1.78-1.87-.52-4-1.29-4-3.72v0c0-2.4,2-3.87,4.52-3.87a8.75,8.75,0,0,1,4.65,1.44l-1.15,2.07a7.28,7.28,0,0,0-3.58-1.2c-1.12,0-1.77.52-1.77,1.24V845c0,.94,1.37,1.32,2.85,1.8,1.85.58,3.94,1.42,3.94,3.7v0c0,2.66-2.06,4-4.7,4A9,9,0,0,1,571,852.62Z"/><path class="cls-1" d="M600.78,846.57a4.9,4.9,0,0,1-4,1.8c-3.58,0-6-2.09-6-5.33v0c0-3.29,2.54-5.81,6.26-5.81a6.1,6.1,0,0,1,4.68,1.78c1.23,1.25,2,3.09,2,6.41v0c0,5.4-2.67,9.14-7.2,9.14a8,8,0,0,1-5.38-2l1.61-2.25a5.73,5.73,0,0,0,3.84,1.58C599.68,851.87,600.76,848.8,600.78,846.57Zm-.12-3.7v0c0-1.75-1.37-3.09-3.5-3.09a3.09,3.09,0,0,0-3.34,3.12v0c0,1.76,1.34,3,3.43,3A3.1,3.1,0,0,0,600.66,842.87Z"/><path class="cls-1" d="M605.77,856.53c1.47-.29,2.16-1,2.07-2.26h-1.25V851h3.19v2.81c0,2.66-1.27,3.79-3.7,4Z"/><path class="cls-1" d="M622.74,846.57a4.9,4.9,0,0,1-4,1.8c-3.58,0-5.95-2.09-5.95-5.33v0c0-3.29,2.54-5.81,6.26-5.81a6.1,6.1,0,0,1,4.68,1.78c1.23,1.25,2,3.09,2,6.41v0c0,5.4-2.67,9.14-7.2,9.14a8,8,0,0,1-5.38-2l1.61-2.25a5.73,5.73,0,0,0,3.84,1.58C621.64,851.87,622.72,848.8,622.74,846.57Zm-.12-3.7v0c0-1.75-1.37-3.09-3.5-3.09a3.09,3.09,0,0,0-3.34,3.12v0c0,1.76,1.34,3,3.43,3A3.1,3.1,0,0,0,622.62,842.87Z"/><path class="cls-1" d="M628.31,841.62v0a4,4,0,0,1,4-4.29,4,4,0,0,1,3.94,4.25v0a4.06,4.06,0,0,1-4,4.3A4,4,0,0,1,628.31,841.62Zm14-4.15h2.38l-6.63,8.95-5.66,7.85H630l6.6-8.93Zm-11.86,4.06v0c0,1.37.77,2.45,1.85,2.45s1.8-1.1,1.8-2.4v0c0-1.34-.77-2.44-1.85-2.44S630.44,840.23,630.44,841.53Zm8,8.68v0a4,4,0,1,1,7.92,0v0a4.06,4.06,0,0,1-4,4.29A4,4,0,0,1,638.46,850.21Zm5.78,0v0c0-1.35-.76-2.45-1.84-2.45s-1.8,1.1-1.8,2.4v0c0,1.37.76,2.45,1.84,2.45S644.24,851.51,644.24,850.21Z"/><path class="cls-1" d="M435.9,396.82l1.78-2.11a7.8,7.8,0,0,0,5.3,2.19c1.83,0,3-.87,3-2.12v0c0-1.2-.67-1.85-3.79-2.57-3.58-.87-5.6-1.92-5.6-5v0c0-2.88,2.4-4.87,5.74-4.87a9.32,9.32,0,0,1,6.1,2.11l-1.59,2.23a7.66,7.66,0,0,0-4.56-1.72c-1.73,0-2.74.88-2.74,2v.05c0,1.29.77,1.87,4,2.64,3.56.86,5.38,2.13,5.38,4.92v.05c0,3.14-2.47,5-6,5A10.36,10.36,0,0,1,435.9,396.82Z"/><path class="cls-1" d="M451.36,393v-.05a6.29,6.29,0,0,1,6.19-6.6c4,0,6.07,3.17,6.07,6.82a7.83,7.83,0,0,1-.05.82h-9.31a3.54,3.54,0,0,0,3.65,3.21,4.57,4.57,0,0,0,3.43-1.51l1.71,1.51a6.42,6.42,0,0,1-5.19,2.38A6.32,6.32,0,0,1,451.36,393Zm9.38-.93c-.19-1.88-1.29-3.34-3.21-3.34s-3,1.37-3.29,3.34Z"/><path class="cls-1" d="M465.85,393V393a6.55,6.55,0,0,1,6.6-6.63,6.4,6.4,0,0,1,5.07,2.19l-1.83,1.94a4.25,4.25,0,0,0-3.26-1.58,3.82,3.82,0,0,0-3.67,4v0a3.84,3.84,0,0,0,3.79,4.06,4.47,4.47,0,0,0,3.29-1.56l1.75,1.72a6.39,6.39,0,0,1-5.19,2.38A6.47,6.47,0,0,1,465.85,393Z"/><path class="cls-1" d="M480.11,394.66V386.6H483v7.2c0,2,1,3.07,2.71,3.07a2.8,2.8,0,0,0,2.86-3.12V386.6h2.93v12.67h-2.93v-2a4.56,4.56,0,0,1-4,2.24C481.76,399.54,480.11,397.62,480.11,394.66Z"/><path class="cls-1" d="M495.13,386.6H498v1.94a4.6,4.6,0,0,1,4-2.21c2.85,0,4.51,1.92,4.51,4.85v8.09H503.6v-7.2c0-2-1-3.1-2.71-3.1s-2.85,1.18-2.85,3.15v7.15h-2.91Z"/><path class="cls-1" d="M509.36,393v0c0-4.2,2.86-6.58,5.88-6.58a5.18,5.18,0,0,1,4.32,2.24v-6.82h2.91v17.52h-2.91v-2.11a5.06,5.06,0,0,1-4.32,2.38C512.27,399.54,509.36,397.16,509.36,393Zm10.25,0v0a3.81,3.81,0,0,0-3.67-4.06c-2,0-3.65,1.54-3.65,4.06v0a3.77,3.77,0,0,0,3.65,4.06A3.82,3.82,0,0,0,519.61,393Z"/><path class="cls-1" d="M525.28,395.62v0c0-2.74,2.13-4.08,5.23-4.08a10.73,10.73,0,0,1,3.41.52v-.31c0-1.8-1.11-2.76-3.15-2.76a8.82,8.82,0,0,0-3.62.79l-.77-2.28a10.87,10.87,0,0,1,4.78-1,5.66,5.66,0,0,1,4.2,1.42,5.27,5.27,0,0,1,1.37,3.91v7.51h-2.84v-1.58a5.15,5.15,0,0,1-4.13,1.85C527.39,399.54,525.28,398.17,525.28,395.62Zm8.68-.91v-.86a8,8,0,0,0-2.88-.51c-1.87,0-3,.79-3,2.12v0c0,1.23,1.08,1.92,2.47,1.92C532.5,397.42,534,396.32,534,394.71Z"/><path class="cls-1" d="M540.2,386.6h2.91v2.86a4.48,4.48,0,0,1,4.49-3.1v3.07h-.17c-2.55,0-4.32,1.66-4.32,5v4.82H540.2Z"/><path class="cls-1" d="M550.16,381.89h3.12v2.76h-3.12Zm.12,4.71h2.91v12.67h-2.91Z"/><path class="cls-1" d="M556.14,395.62v0c0-2.74,2.14-4.08,5.23-4.08a10.63,10.63,0,0,1,3.41.52v-.31c0-1.8-1.1-2.76-3.14-2.76a8.83,8.83,0,0,0-3.63.79l-.77-2.28a10.9,10.9,0,0,1,4.78-1,5.64,5.64,0,0,1,4.2,1.42,5.23,5.23,0,0,1,1.37,3.91v7.51h-2.83v-1.58a5.18,5.18,0,0,1-4.13,1.85C558.25,399.54,556.14,398.17,556.14,395.62Zm8.69-.91v-.86a8,8,0,0,0-2.88-.51c-1.87,0-3,.79-3,2.12v0c0,1.23,1.08,1.92,2.47,1.92C563.36,397.42,564.83,396.32,564.83,394.71Z"/><path class="cls-1" d="M577.62,396.94,583.4,392c2.31-2,3.15-3,3.15-4.53a2.52,2.52,0,0,0-2.71-2.62c-1.54,0-2.6.84-3.87,2.52l-2.11-1.66c1.61-2.23,3.19-3.5,6.19-3.5,3.29,0,5.55,2,5.55,5v0c0,2.64-1.4,4.09-4.37,6.51l-3.46,2.88h8v2.59H577.62Z"/><path class="cls-1" d="M600.56,395.5h-8.47l-.55-2.11,9.34-11h2.52v10.73h2.4v2.42h-2.4v3.77h-2.84Zm0-2.42v-6.65L595,393.08Z"/><path class="cls-1" d="M607.86,401.53c1.46-.29,2.16-1,2.06-2.26h-1.24V396h3.19v2.81c0,2.66-1.27,3.79-3.7,4Z"/><path class="cls-1" d="M614.53,396.61l2.07-1.92A5.49,5.49,0,0,0,621,396.9a2.63,2.63,0,0,0,2.91-2.55v-.05c0-1.65-1.52-2.59-3.87-2.59h-1.37l-.48-1.85,4.54-4.82h-7.27v-2.57h11.11v2.21l-4.68,4.8c2.54.31,4.94,1.61,4.94,4.7v.05c0,3.1-2.37,5.33-5.88,5.33A8,8,0,0,1,614.53,396.61Z"/><path class="cls-1" d="M629.48,386.62v-.05a4,4,0,0,1,4-4.29,4,4,0,0,1,3.93,4.25v0a4,4,0,1,1-7.92.05Zm14-4.15h2.37l-6.62,8.95-5.67,7.85h-2.37l6.6-8.93Zm-11.86,4.06v0c0,1.37.77,2.45,1.85,2.45s1.8-1.1,1.8-2.4v-.05c0-1.34-.77-2.44-1.85-2.44S631.62,385.23,631.62,386.53Zm8,8.68v0a4,4,0,1,1,7.92-.05v.05a4.06,4.06,0,0,1-4,4.29A4,4,0,0,1,639.64,395.21Zm5.78,0v0c0-1.35-.77-2.45-1.85-2.45s-1.8,1.1-1.8,2.4v.05c0,1.37.77,2.45,1.85,2.45S645.42,396.51,645.42,395.21Z"/><path class="cls-1" d="M417.61,277.47h6.63c3.93,0,6.38,2.23,6.38,5.62v0c0,3.77-3,5.74-6.72,5.74h-3.33v5.4h-3Zm6.39,8.74c2.23,0,3.62-1.25,3.62-3v0c0-2-1.41-3-3.62-3h-3.43v6Z"/><path class="cls-1" d="M432.49,288V288a6.76,6.76,0,0,1,13.52,0v0a6.63,6.63,0,0,1-6.8,6.6A6.55,6.55,0,0,1,432.49,288Zm10.61,0V288a3.92,3.92,0,0,0-3.89-4.08,3.8,3.8,0,0,0-3.81,4v0a3.91,3.91,0,0,0,3.86,4.06A3.81,3.81,0,0,0,443.1,288Z"/><path class="cls-1" d="M447.93,292.62l1.29-2a7.19,7.19,0,0,0,4.15,1.56c1.25,0,2-.53,2-1.37v0c0-1-1.34-1.32-2.83-1.78-1.87-.52-4-1.29-4-3.72v0c0-2.4,2-3.87,4.51-3.87a8.78,8.78,0,0,1,4.66,1.44l-1.15,2.07a7.31,7.31,0,0,0-3.58-1.2c-1.13,0-1.78.52-1.78,1.24V285c0,.94,1.37,1.32,2.86,1.8,1.85.58,3.94,1.42,3.94,3.7v0c0,2.66-2.07,4-4.71,4A8.92,8.92,0,0,1,447.93,292.62Z"/><path class="cls-1" d="M461.34,290.77v-6.68h-1.61V281.6h1.61v-3.48h2.91v3.48h3.4v2.49h-3.4v6.22a1.38,1.38,0,0,0,1.56,1.59,3.92,3.92,0,0,0,1.8-.44v2.38a5,5,0,0,1-2.62.65C462.85,294.49,461.34,293.55,461.34,290.77Z"/><path class="cls-1" d="M469.57,292.62l1.3-2a7.19,7.19,0,0,0,4.15,1.56c1.25,0,2-.53,2-1.37v0c0-1-1.34-1.32-2.83-1.78-1.87-.52-4-1.29-4-3.72v0c0-2.4,2-3.87,4.51-3.87a8.81,8.81,0,0,1,4.66,1.44l-1.16,2.07a7.28,7.28,0,0,0-3.57-1.2c-1.13,0-1.78.52-1.78,1.24V285c0,.94,1.37,1.32,2.86,1.8,1.85.58,3.93,1.42,3.93,3.7v0c0,2.66-2.06,4-4.7,4A9,9,0,0,1,469.57,292.62Z"/><path class="cls-1" d="M481.93,288v-.05a6.29,6.29,0,0,1,6.2-6.6c4,0,6.07,3.17,6.07,6.82,0,.27,0,.53-.05.82h-9.31a3.53,3.53,0,0,0,3.65,3.21,4.59,4.59,0,0,0,3.43-1.51l1.7,1.51a6.4,6.4,0,0,1-5.18,2.38A6.33,6.33,0,0,1,481.93,288Zm9.39-.93c-.19-1.88-1.3-3.34-3.22-3.34s-3,1.37-3.29,3.34Z"/><path class="cls-1" d="M496.43,288V288a6.54,6.54,0,0,1,6.6-6.63,6.38,6.38,0,0,1,5.06,2.19l-1.82,1.94a4.27,4.27,0,0,0-3.27-1.58,3.82,3.82,0,0,0-3.67,4v0a3.84,3.84,0,0,0,3.79,4.06,4.45,4.45,0,0,0,3.29-1.56l1.76,1.72A6.64,6.64,0,0,1,496.43,288Z"/><path class="cls-1" d="M510.68,289.66V281.6h2.91v7.2c0,2,1,3.07,2.71,3.07a2.8,2.8,0,0,0,2.86-3.12V281.6h2.93v12.67h-2.93v-2a4.57,4.57,0,0,1-4,2.24C512.34,294.54,510.68,292.62,510.68,289.66Z"/><path class="cls-1" d="M525.71,281.6h2.9v1.94a4.61,4.61,0,0,1,4-2.21c2.86,0,4.52,1.92,4.52,4.85v8.09h-2.91v-7.2c0-2-1-3.1-2.71-3.1a2.83,2.83,0,0,0-2.86,3.15v7.15h-2.9Z"/><path class="cls-1" d="M539.94,288v0c0-4.2,2.86-6.58,5.88-6.58a5.18,5.18,0,0,1,4.32,2.24v-6.82h2.91v17.52h-2.91v-2.11a5.07,5.07,0,0,1-4.32,2.38C542.84,294.54,539.94,292.16,539.94,288Zm10.25,0v0a3.81,3.81,0,0,0-3.67-4.06c-2,0-3.65,1.54-3.65,4.06v0a3.77,3.77,0,0,0,3.65,4.06A3.82,3.82,0,0,0,550.19,288Z"/><path class="cls-1" d="M555.85,290.62v0c0-2.74,2.14-4.08,5.23-4.08a10.63,10.63,0,0,1,3.41.52v-.31c0-1.8-1.1-2.76-3.14-2.76a8.78,8.78,0,0,0-3.62.79l-.77-2.28a10.85,10.85,0,0,1,4.77-1,5.63,5.63,0,0,1,4.2,1.42,5.23,5.23,0,0,1,1.37,3.91v7.51h-2.83v-1.58a5.15,5.15,0,0,1-4.13,1.85C558,294.54,555.85,293.17,555.85,290.62Zm8.69-.91v-.86a8,8,0,0,0-2.88-.51c-1.87,0-3,.79-3,2.12v0c0,1.23,1.08,1.92,2.47,1.92C563.08,292.42,564.54,291.32,564.54,289.71Z"/><path class="cls-1" d="M570.78,281.6h2.91v2.86a4.48,4.48,0,0,1,4.48-3.1v3.07H578c-2.55,0-4.32,1.66-4.32,5v4.82h-2.91Z"/><path class="cls-1" d="M580.74,276.89h3.12v2.76h-3.12Zm.12,4.71h2.91v12.67h-2.91Z"/><path class="cls-1" d="M586.72,290.62v0c0-2.74,2.13-4.08,5.23-4.08a10.73,10.73,0,0,1,3.41.52v-.31c0-1.8-1.11-2.76-3.15-2.76a8.82,8.82,0,0,0-3.62.79l-.77-2.28a10.87,10.87,0,0,1,4.78-1,5.66,5.66,0,0,1,4.2,1.42,5.27,5.27,0,0,1,1.37,3.91v7.51h-2.84v-1.58a5.15,5.15,0,0,1-4.13,1.85C588.83,294.54,586.72,293.17,586.72,290.62Zm8.68-.91v-.86a8,8,0,0,0-2.88-.51c-1.87,0-3,.79-3,2.12v0c0,1.23,1.08,1.92,2.47,1.92C593.94,292.42,595.4,291.32,595.4,289.71Z"/><path class="cls-1" d="M608.15,292l1.82-2.13a6.45,6.45,0,0,0,4.32,2c2,0,3.34-1.15,3.34-2.9v-.05c0-1.71-1.44-2.79-3.48-2.79a7.19,7.19,0,0,0-3.1.75l-1.77-1.18.48-8.23h10v2.62H612.3L612,284a7.07,7.07,0,0,1,2.66-.48c3.26,0,5.86,1.73,5.86,5.28v.05c0,3.43-2.52,5.69-6.24,5.69A8.59,8.59,0,0,1,608.15,292Z"/><path class="cls-1" d="M622.79,296.53c1.46-.29,2.16-1,2.06-2.26H623.6V291h3.2v2.81c0,2.66-1.28,3.79-3.7,4Z"/><path class="cls-1" d="M631.84,292.78c-1.28-1.27-2-3-2-6.4v-.05c0-5.14,2.44-9.15,7.2-9.15a7.63,7.63,0,0,1,5.13,1.87l-1.58,2.28a5.55,5.55,0,0,0-3.65-1.46c-2.93,0-4,3.05-4,5.35a5.25,5.25,0,0,1,4-1.7c3.24,0,5.86,1.92,5.86,5.28v.05c0,3.33-2.72,5.71-6.24,5.71A6.23,6.23,0,0,1,631.84,292.78Zm8-3.81v-.05c0-1.68-1.34-2.93-3.43-2.93s-3.41,1.34-3.41,2.95V289c0,1.71,1.4,3,3.48,3S639.8,290.7,639.8,289Z"/><path class="cls-1" d="M645.32,281.62v-.05a4,4,0,0,1,4-4.29,4,4,0,0,1,3.93,4.25v0a4,4,0,1,1-7.92.05Zm14-4.15h2.37l-6.62,8.95-5.67,7.85H647l6.6-8.93Zm-11.86,4.06v0c0,1.37.77,2.45,1.85,2.45s1.8-1.1,1.8-2.4v-.05c0-1.34-.77-2.44-1.85-2.44S647.46,280.23,647.46,281.53Zm8,8.68v0a4,4,0,1,1,7.92-.05v.05a4.06,4.06,0,0,1-4,4.29A4,4,0,0,1,655.48,290.21Zm5.78,0v0c0-1.35-.77-2.45-1.85-2.45s-1.8,1.1-1.8,2.4v.05c0,1.37.77,2.45,1.85,2.45S661.26,291.51,661.26,290.21Z"/><path class="cls-1" d="M784.17,217.14v-9.67h3V217c0,3.12,1.6,4.78,4.25,4.78s4.22-1.56,4.22-4.66v-9.67h2.95V217c0,5-2.83,7.54-7.22,7.54S784.17,222,784.17,217.14Z"/><path class="cls-1" d="M802.27,211.6h2.9v1.94a4.63,4.63,0,0,1,4-2.21c2.85,0,4.51,1.92,4.51,4.85v8.09h-2.91v-7.2c0-2-1-3.1-2.71-3.1a2.83,2.83,0,0,0-2.86,3.15v7.15h-2.9Z"/><path class="cls-1" d="M817.2,206.89h3.12v2.76H817.2Zm.12,4.71h2.9v12.67h-2.9Z"/><path class="cls-1" d="M822.81,211.6h3.12l3.41,9.31,3.43-9.31h3.05l-5.18,12.77H828Z"/><path class="cls-1" d="M836.88,218v0a6.29,6.29,0,0,1,6.19-6.6c4,0,6.07,3.17,6.07,6.82,0,.27,0,.53,0,.82h-9.32a3.54,3.54,0,0,0,3.65,3.21,4.57,4.57,0,0,0,3.43-1.51l1.71,1.51a6.42,6.42,0,0,1-5.19,2.38A6.32,6.32,0,0,1,836.88,218Zm9.38-.93c-.19-1.88-1.29-3.34-3.21-3.34s-3,1.37-3.29,3.34Z"/><path class="cls-1" d="M852.07,211.6H855v2.86a4.5,4.5,0,0,1,4.49-3.1v3.07h-.17c-2.54,0-4.32,1.66-4.32,5v4.82h-2.9Z"/><path class="cls-1" d="M861,222.62l1.3-2a7.16,7.16,0,0,0,4.15,1.56c1.25,0,2-.53,2-1.37v-.05c0-1-1.35-1.32-2.84-1.78-1.87-.52-4-1.29-4-3.72v0c0-2.4,2-3.87,4.52-3.87a8.75,8.75,0,0,1,4.65,1.44l-1.15,2.07a7.28,7.28,0,0,0-3.58-1.2c-1.12,0-1.77.52-1.77,1.24v0c0,.94,1.37,1.32,2.85,1.8,1.85.58,3.94,1.42,3.94,3.7v.05c0,2.66-2.06,4-4.7,4A9,9,0,0,1,861,222.62Z"/><path class="cls-1" d="M874.05,206.89h3.12v2.76h-3.12Zm.12,4.71h2.91v12.67h-2.91Z"/><path class="cls-1" d="M881.47,220.77v-6.68h-1.61V211.6h1.61v-3.48h2.9v3.48h3.41v2.49h-3.41v6.22a1.39,1.39,0,0,0,1.56,1.59,3.86,3.86,0,0,0,1.8-.44v2.38a5,5,0,0,1-2.61.65C883,224.49,881.47,223.55,881.47,220.77Z"/><path class="cls-1" d="M889.89,220.62v0c0-2.74,2.14-4.08,5.23-4.08a10.63,10.63,0,0,1,3.41.52v-.31c0-1.8-1.1-2.76-3.14-2.76a8.86,8.86,0,0,0-3.63.79l-.76-2.28a10.85,10.85,0,0,1,4.77-1,5.64,5.64,0,0,1,4.2,1.42,5.23,5.23,0,0,1,1.37,3.91v7.51h-2.83v-1.58a5.16,5.16,0,0,1-4.13,1.85C892,224.54,889.89,223.17,889.89,220.62Zm8.69-.91v-.86a8,8,0,0,0-2.88-.51c-1.87,0-3,.79-3,2.12v0c0,1.23,1.08,1.92,2.48,1.92C897.12,222.42,898.58,221.32,898.58,219.71Z"/><path class="cls-1" d="M904.82,211.6h2.9v2.86a4.5,4.5,0,0,1,4.49-3.1v3.07H912c-2.54,0-4.32,1.66-4.32,5v4.82h-2.9Z"/><path class="cls-1" d="M914.78,206.89h3.12v2.76h-3.12Zm.12,4.71h2.9v12.67h-2.9Z"/><path class="cls-1" d="M920.76,220.62v0c0-2.74,2.13-4.08,5.23-4.08a10.73,10.73,0,0,1,3.41.52v-.31c0-1.8-1.11-2.76-3.15-2.76a8.82,8.82,0,0,0-3.62.79l-.77-2.28a10.87,10.87,0,0,1,4.78-1,5.66,5.66,0,0,1,4.2,1.42,5.26,5.26,0,0,1,1.36,3.91v7.51h-2.83v-1.58a5.15,5.15,0,0,1-4.13,1.85C922.87,224.54,920.76,223.17,920.76,220.62Zm8.68-.91v-.86a8,8,0,0,0-2.88-.51c-1.87,0-3,.79-3,2.12v0c0,1.23,1.08,1.92,2.47,1.92C928,222.42,929.44,221.32,929.44,219.71Z"/><path class="cls-1" d="M942.24,221.94,948,217c2.3-2,3.14-3,3.14-4.53a2.52,2.52,0,0,0-2.71-2.62c-1.53,0-2.59.84-3.86,2.52l-2.11-1.66c1.6-2.23,3.19-3.5,6.19-3.5,3.29,0,5.54,2,5.54,5v0c0,2.64-1.39,4.09-4.37,6.51l-3.45,2.88h8v2.59H942.24Z"/><path class="cls-1" d="M956.59,226.53c1.46-.29,2.16-1,2.06-2.26H957.4V221h3.2v2.81c0,2.66-1.28,3.79-3.7,4Z"/><path class="cls-1" d="M963.38,219.69v-.05c0-2,1.13-3.29,3-4.08a4,4,0,0,1-2.44-3.75v0c0-2.57,2.47-4.54,5.83-4.54s5.83,1.94,5.83,4.54v0a4,4,0,0,1-2.45,3.75c1.85.84,3,2,3,4v0c0,3-2.74,4.87-6.41,4.87S963.38,222.59,963.38,219.69Zm9.94-.17v-.05c0-1.54-1.54-2.54-3.53-2.54s-3.51,1-3.51,2.54v.05c0,1.37,1.3,2.52,3.51,2.52S973.32,220.91,973.32,219.52Zm-.53-7.42v0c0-1.29-1.2-2.35-3-2.35s-3,1.06-3,2.33v.05c0,1.46,1.27,2.49,3,2.49S972.79,213.54,972.79,212.1Z"/><path class="cls-1" d="M978.5,211.62v-.05a4,4,0,0,1,4-4.29,4,4,0,0,1,3.94,4.25v0a4,4,0,1,1-7.92.05Zm14-4.15h2.38l-6.63,8.95-5.66,7.85H980.2l6.6-8.93Zm-11.86,4.06v0c0,1.37.77,2.45,1.85,2.45s1.8-1.1,1.8-2.4v-.05c0-1.34-.76-2.44-1.84-2.44S980.63,210.23,980.63,211.53Zm8,8.68v0a4.05,4.05,0,0,1,4-4.3,4,4,0,0,1,3.93,4.25v0a4.06,4.06,0,0,1-4,4.29A4,4,0,0,1,988.65,220.21Zm5.79,0v0c0-1.35-.77-2.45-1.85-2.45s-1.8,1.1-1.8,2.4v0c0,1.37.77,2.45,1.85,2.45S994.44,221.51,994.44,220.21Z"/><path class="cls-1" d="M336.38,215.92v0a8.79,8.79,0,0,1,17.57-.05v.05a8.79,8.79,0,0,1-17.57,0Zm14.48,0v0a5.76,5.76,0,0,0-5.71-6,5.68,5.68,0,0,0-5.67,5.93v.05a5.74,5.74,0,0,0,5.71,5.95A5.66,5.66,0,0,0,350.86,215.92Z"/><path class="cls-1" d="M357.79,220.77v-6.68h-1.61V211.6h1.61v-3.48h2.91v3.48h3.41v2.49H360.7v6.22a1.38,1.38,0,0,0,1.56,1.59,3.89,3.89,0,0,0,1.8-.44v2.38a5,5,0,0,1-2.62.65C359.31,224.49,357.79,223.55,357.79,220.77Z"/><path class="cls-1" d="M367.06,211.6H370v2.86a4.49,4.49,0,0,1,4.49-3.1v3.07h-.17c-2.54,0-4.32,1.66-4.32,5v4.82h-2.9Z"/><path class="cls-1" d="M375.84,218v0a6.76,6.76,0,0,1,13.51-.05V218a6.62,6.62,0,0,1-6.79,6.6A6.55,6.55,0,0,1,375.84,218Zm10.61,0v0a3.92,3.92,0,0,0-3.89-4.08,3.79,3.79,0,0,0-3.81,4V218a3.9,3.9,0,0,0,3.86,4.06A3.81,3.81,0,0,0,386.45,218Z"/><path class="cls-1" d="M407.76,210.06h-8.45v-2.59h11.81v2.23l-7.56,14.57h-3.33Z"/><path class="cls-1" d="M410.71,226.53c1.47-.29,2.16-1,2.07-2.26h-1.25V221h3.19v2.81c0,2.66-1.27,3.79-3.7,4Z"/><path class="cls-1" d="M419.43,210.35l-3,.84-.62-2.4,4.53-1.44h2v16.92h-2.92Z"/><path class="cls-1" d="M425.81,211.62v-.05a4,4,0,0,1,4-4.29,4,4,0,0,1,3.94,4.25v0a4,4,0,1,1-7.92.05Zm14-4.15h2.38l-6.63,8.95-5.66,7.85h-2.38l6.6-8.93Zm-11.86,4.06v0c0,1.37.77,2.45,1.85,2.45s1.8-1.1,1.8-2.4v-.05c0-1.34-.76-2.44-1.84-2.44S427.94,210.23,427.94,211.53Zm8,8.68v0a4.05,4.05,0,0,1,4-4.3,4,4,0,0,1,3.93,4.25v0a4.06,4.06,0,0,1-4,4.29A4,4,0,0,1,436,220.21Zm5.79,0v0c0-1.35-.77-2.45-1.85-2.45s-1.8,1.1-1.8,2.4v0c0,1.37.77,2.45,1.85,2.45S441.75,221.51,441.75,220.21Z"/><path class="cls-1" d="M68.19,280.21H62.87v-2.74H76.5v2.74H71.17v14.06h-3Z"/><path class="cls-1" d="M75.85,288v-.05a6.29,6.29,0,0,1,6.19-6.6c4,0,6.07,3.17,6.07,6.82,0,.27,0,.53,0,.82H78.75a3.54,3.54,0,0,0,3.65,3.21,4.56,4.56,0,0,0,3.43-1.51l1.71,1.51a6.42,6.42,0,0,1-5.19,2.38A6.32,6.32,0,0,1,75.85,288Zm9.38-.93c-.19-1.88-1.29-3.34-3.21-3.34s-3,1.37-3.29,3.34Zm-1.89-11L86,277.23,83,280H80.84Z"/><path class="cls-1" d="M90.34,288V288A6.55,6.55,0,0,1,97,281.33a6.39,6.39,0,0,1,5.06,2.19l-1.82,1.94a4.28,4.28,0,0,0-3.27-1.58,3.82,3.82,0,0,0-3.67,4v0A3.84,3.84,0,0,0,97,292a4.45,4.45,0,0,0,3.29-1.56l1.75,1.72a6.39,6.39,0,0,1-5.18,2.38A6.47,6.47,0,0,1,90.34,288Z"/><path class="cls-1" d="M104.75,281.6h2.9v1.94a4.61,4.61,0,0,1,4-2.21c2.86,0,4.51,1.92,4.51,4.85v8.09h-2.9v-7.2c0-2-1-3.1-2.71-3.1a2.83,2.83,0,0,0-2.86,3.15v7.15h-2.9Z"/><path class="cls-1" d="M119.67,276.89h3.12v2.76h-3.12Zm.12,4.71h2.91v12.67h-2.91Z"/><path class="cls-1" d="M125.79,288V288a6.55,6.55,0,0,1,6.6-6.63,6.4,6.4,0,0,1,5.07,2.19l-1.83,1.94a4.25,4.25,0,0,0-3.26-1.58,3.82,3.82,0,0,0-3.67,4v0a3.84,3.84,0,0,0,3.79,4.06,4.45,4.45,0,0,0,3.29-1.56l1.75,1.72a6.39,6.39,0,0,1-5.18,2.38A6.47,6.47,0,0,1,125.79,288Z"/><path class="cls-1" d="M139.35,290.62v0c0-2.74,2.14-4.08,5.23-4.08A10.63,10.63,0,0,1,148,287v-.31c0-1.8-1.1-2.76-3.14-2.76a8.78,8.78,0,0,0-3.62.79l-.77-2.28a10.85,10.85,0,0,1,4.77-1,5.63,5.63,0,0,1,4.2,1.42,5.23,5.23,0,0,1,1.37,3.91v7.51H148v-1.58a5.15,5.15,0,0,1-4.13,1.85C141.46,294.54,139.35,293.17,139.35,290.62Zm8.69-.91v-.86a8,8,0,0,0-2.88-.51c-1.87,0-3,.79-3,2.12v0c0,1.23,1.08,1.92,2.47,1.92C146.58,292.42,148,291.32,148,289.71Z"/><path class="cls-1" d="M160.83,291.94l5.79-4.92c2.3-2,3.14-3,3.14-4.53a2.52,2.52,0,0,0-2.71-2.62c-1.54,0-2.59.84-3.87,2.52l-2.11-1.66c1.61-2.23,3.19-3.5,6.2-3.5,3.28,0,5.54,2,5.54,5v0c0,2.64-1.39,4.09-4.37,6.51L165,291.68h8v2.59H160.83Z"/><path class="cls-1" d="M175.18,296.53c1.47-.29,2.16-1,2.07-2.26H176V291h3.19v2.81c0,2.66-1.27,3.79-3.69,4Z"/><path class="cls-1" d="M181.71,285.92v-.05c0-4.8,2.93-8.69,7.35-8.69s7.29,3.84,7.29,8.64v.05c0,4.8-2.92,8.69-7.34,8.69S181.71,290.72,181.71,285.92Zm11.6,0v-.05c0-3.31-1.71-6-4.3-6s-4.25,2.64-4.25,6v.05c0,3.31,1.68,6,4.3,6S193.31,289.21,193.31,285.92Z"/><path class="cls-1" d="M198.87,281.62v-.05a4,4,0,0,1,4-4.29,4,4,0,0,1,3.93,4.25v0a4,4,0,1,1-7.92.05Zm14-4.15h2.37l-6.62,8.95L203,294.27h-2.37l6.6-8.93ZM201,281.53v0c0,1.37.77,2.45,1.85,2.45s1.8-1.1,1.8-2.4v-.05c0-1.34-.77-2.44-1.85-2.44S201,280.23,201,281.53Zm8,8.68v0a4,4,0,1,1,7.92-.05v.05a4.06,4.06,0,0,1-4,4.29A4,4,0,0,1,209,290.21Zm5.78,0v0c0-1.35-.77-2.45-1.85-2.45s-1.8,1.1-1.8,2.4v.05c0,1.37.77,2.45,1.85,2.45S214.81,291.51,214.81,290.21Z"/><path class="cls-3" d="M41.82,910.13V899.6h1.8v10.49c0,3.16,1.61,4.92,4.25,4.92s4.2-1.66,4.2-4.85V899.6h1.8V910c0,4.32-2.42,6.62-6,6.62S41.82,914.36,41.82,910.13Z"/><path class="cls-3" d="M57.47,903.89H59.2v2a4.06,4.06,0,0,1,3.7-2.28c2.54,0,4.08,1.76,4.08,4.56v8.19H65.25v-7.71c0-2.23-1.06-3.48-2.88-3.48s-3.17,1.44-3.17,3.58v7.61H57.47Z"/><path class="cls-3" d="M70.41,899.29h1.92v2H70.41Zm.09,4.6h1.73V916.4H70.5Z"/><path class="cls-3" d="M74.9,903.89h1.87l3.5,10.28,3.55-10.28h1.83L81.06,916.5H79.5Z"/><path class="cls-3" d="M87.5,910.25v-.12c0-3.81,2.23-6.48,5.16-6.48,3.14,0,5,2.69,5,6.46,0,.17,0,.51,0,.72h-8.4c.19,2.76,1.89,4.3,3.86,4.3a4.4,4.4,0,0,0,3.24-1.44l1,1.1a5.68,5.68,0,0,1-4.3,1.87C90,916.66,87.5,914.21,87.5,910.25Zm8.44-.76c-.12-2.38-1.24-4.32-3.28-4.32-1.85,0-3.24,1.7-3.41,4.32Z"/><path class="cls-3" d="M100.46,903.89h1.72v2.76a4.42,4.42,0,0,1,4.3-2.92v1.87h-.1c-2.32,0-4.2,1.63-4.2,4.85v5.95h-1.72Z"/><path class="cls-3" d="M107.75,914.86l.91-1.27a5.68,5.68,0,0,0,3.65,1.51c1.37,0,2.33-.77,2.33-1.94v0c0-1.1-1-1.67-2.71-2.37-2-.87-3.58-1.66-3.58-3.6v0c0-2,1.66-3.41,3.89-3.41a6.78,6.78,0,0,1,3.94,1.35l-.84,1.32a5.46,5.46,0,0,0-3.15-1.18c-1.32,0-2.16.77-2.16,1.75v0c0,1.06,1.08,1.59,2.79,2.3,2.06.92,3.5,1.78,3.5,3.68v0c0,2.24-1.8,3.61-4.06,3.61A7,7,0,0,1,107.75,914.86Z"/><path class="cls-3" d="M119.2,899.29h1.92v2H119.2Zm.1,4.6H121V916.4H119.3Z"/><path class="cls-3" d="M125.27,913.5v-8.07h-1.51v-1.54h1.51v-3.64H127v3.64h3.26v1.54H127v7.78a1.59,1.59,0,0,0,1.8,1.8,3.61,3.61,0,0,0,1.46-.34v1.49a4.26,4.26,0,0,1-1.87.43A2.8,2.8,0,0,1,125.27,913.5Z"/><path class="cls-3" d="M132.23,912.78v-.1c0-2.57,1.85-4,4.61-4a10.27,10.27,0,0,1,3.22.5v-.74a2.85,2.85,0,0,0-3.2-3.1,6.75,6.75,0,0,0-3.19.84l-.55-1.42a8.67,8.67,0,0,1,3.94-1,4.79,4.79,0,0,1,3.5,1.24,4.64,4.64,0,0,1,1.2,3.39v8h-1.7v-1.82a4.33,4.33,0,0,1-3.82,2.08A3.82,3.82,0,0,1,132.23,912.78Zm7.85-.73V910.5a8.74,8.74,0,0,0-3-.51c-2,0-3.1,1-3.1,2.62v.07a2.49,2.49,0,0,0,2.66,2.54A3.25,3.25,0,0,0,140.08,912.05Z"/><path class="cls-3" d="M145.12,903.89h1.73v2.76a4.39,4.39,0,0,1,4.29-2.92v1.87h-.09c-2.33,0-4.2,1.63-4.2,4.85v5.95h-1.73Z"/><path class="cls-3" d="M153.59,899.29h1.92v2h-1.92Zm.1,4.6h1.72V916.4h-1.72Z"/><path class="cls-3" d="M158.29,912.78v-.1c0-2.57,1.85-4,4.61-4a10.27,10.27,0,0,1,3.22.5v-.74a2.85,2.85,0,0,0-3.19-3.1,6.82,6.82,0,0,0-3.2.84l-.55-1.42a8.7,8.7,0,0,1,3.94-1,4.77,4.77,0,0,1,3.5,1.24,4.64,4.64,0,0,1,1.2,3.39v8h-1.7v-1.82a4.33,4.33,0,0,1-3.82,2.08A3.82,3.82,0,0,1,158.29,912.78Zm7.85-.73V910.5a8.74,8.74,0,0,0-3-.51c-2,0-3.1,1-3.1,2.62v.07a2.5,2.5,0,0,0,2.67,2.54A3.24,3.24,0,0,0,166.14,912.05Z"/><path class="cls-3" d="M171.11,903.92h2.16v2.45h-2.16Zm0,10h2.16v2.47h-2.16Z"/><path class="cls-3" d="M183,899.29h1.92v2H183Zm.1,4.6h1.73V916.4h-1.73Z"/><path class="cls-3" d="M188.53,903.89h1.73v2a4.07,4.07,0,0,1,3.7-2.28c2.54,0,4.08,1.76,4.08,4.56v8.19h-1.73v-7.71c0-2.23-1.06-3.48-2.88-3.48s-3.17,1.44-3.17,3.58v7.61h-1.73Z"/><path class="cls-3" d="M200.75,910.28v-.17c0-3.79,2.45-6.46,5.57-6.46a5.3,5.3,0,0,1,3.93,1.71l-1,1.29a4,4,0,0,0-2.93-1.41c-2.08,0-3.76,2-3.76,4.87v.12c0,2.95,1.72,4.85,3.84,4.85a4,4,0,0,0,2.92-1.44l1,1.15a5.11,5.11,0,0,1-4,1.87C203.13,916.66,200.75,914.07,200.75,910.28Z"/><path class="cls-3" d="M213,899.07h1.73V916.4H213Z"/><path class="cls-3" d="M218.27,912.1v-8.21H220v7.71c0,2.23,1.05,3.48,2.88,3.48a3.23,3.23,0,0,0,3.17-3.55v-7.64h1.72V916.4h-1.72v-2a4.06,4.06,0,0,1-3.7,2.28C219.8,916.64,218.27,914.89,218.27,912.1Z"/><path class="cls-3" d="M239.25,903.89h1.84l-4.44,12.73c-.89,2.59-2,3.48-3.65,3.48a4.74,4.74,0,0,1-2.25-.58l.53-1.44a3.34,3.34,0,0,0,1.63.46c.93,0,1.53-.53,2.16-2.14l-4.8-12.51h1.87l3.74,10.3Z"/><path class="cls-3" d="M243,910.25v-.12c0-3.81,2.24-6.48,5.16-6.48,3.15,0,5,2.69,5,6.46,0,.17,0,.51,0,.72h-8.4c.19,2.76,1.89,4.3,3.86,4.3a4.4,4.4,0,0,0,3.24-1.44l1,1.1a5.64,5.64,0,0,1-4.29,1.87C245.46,916.66,243,914.21,243,910.25Zm8.45-.76c-.12-2.38-1.25-4.32-3.29-4.32-1.84,0-3.24,1.7-3.4,4.32Z"/><path class="cls-3" d="M262.28,899.07H264V916.4h-1.73Z"/><path class="cls-3" d="M267.76,899.29h1.92v2h-1.92Zm.09,4.6h1.73V916.4h-1.73Z"/><path class="cls-3" d="M272.6,910.28v-.17c0-3.79,2.45-6.46,5.57-6.46a5.3,5.3,0,0,1,3.94,1.71l-1,1.29a4.08,4.08,0,0,0-2.93-1.41c-2.09,0-3.77,2-3.77,4.87v.12c0,2.95,1.73,4.85,3.84,4.85a4,4,0,0,0,2.93-1.44l1,1.15a5.15,5.15,0,0,1-4,1.87C275,916.66,272.6,914.07,272.6,910.28Z"/><path class="cls-3" d="M284.05,910.25v-.12c0-3.81,2.23-6.48,5.16-6.48,3.15,0,5,2.69,5,6.46a6.11,6.11,0,0,1,0,.72h-8.4c.2,2.76,1.9,4.3,3.87,4.3a4.42,4.42,0,0,0,3.24-1.44l1,1.1a5.66,5.66,0,0,1-4.29,1.87C286.55,916.66,284.05,914.21,284.05,910.25Zm8.45-.76c-.12-2.38-1.25-4.32-3.29-4.32-1.85,0-3.24,1.7-3.41,4.32Z"/><path class="cls-3" d="M297,903.89h1.73v2a4.06,4.06,0,0,1,3.7-2.28c2.54,0,4.08,1.76,4.08,4.56v8.19h-1.73v-7.71c0-2.23-1.06-3.48-2.88-3.48s-3.17,1.44-3.17,3.58v7.61H297Z"/><path class="cls-3" d="M309.23,910.28v-.17c0-3.79,2.44-6.46,5.56-6.46a5.3,5.3,0,0,1,3.94,1.71l-1,1.29a4,4,0,0,0-2.93-1.41c-2.09,0-3.77,2-3.77,4.87v.12c0,2.95,1.73,4.85,3.84,4.85a4,4,0,0,0,2.93-1.44l1,1.15a5.13,5.13,0,0,1-4,1.87C311.6,916.66,309.23,914.07,309.23,910.28Z"/><path class="cls-3" d="M321.39,899.29h1.92v2h-1.92Zm.1,4.6h1.73V916.4h-1.73Z"/><path class="cls-3" d="M326.1,912.78v-.1c0-2.57,1.85-4,4.61-4a10.15,10.15,0,0,1,3.21.5v-.74a2.84,2.84,0,0,0-3.19-3.1,6.75,6.75,0,0,0-3.19.84l-.55-1.42a8.66,8.66,0,0,1,3.93-1,4.79,4.79,0,0,1,3.51,1.24,4.69,4.69,0,0,1,1.2,3.39v8h-1.71v-1.82a4.32,4.32,0,0,1-3.81,2.08A3.82,3.82,0,0,1,326.1,912.78Zm7.85-.73V910.5a8.8,8.8,0,0,0-3-.51c-2,0-3.09,1-3.09,2.62v.07a2.49,2.49,0,0,0,2.66,2.54A3.25,3.25,0,0,0,334,912.05Z"/><path class="cls-3" d="M339.54,913.5v-8.07H338v-1.54h1.51v-3.64h1.73v3.64h3.26v1.54h-3.26v7.78a1.59,1.59,0,0,0,1.8,1.8,3.61,3.61,0,0,0,1.46-.34v1.49a4.26,4.26,0,0,1-1.87.43A2.79,2.79,0,0,1,339.54,913.5Z"/><path class="cls-3" d="M347.15,912.1v-8.21h1.72v7.71c0,2.23,1.06,3.48,2.88,3.48s3.17-1.42,3.17-3.55v-7.64h1.73V916.4h-1.73v-2a4,4,0,0,1-3.69,2.28C348.68,916.64,347.15,914.89,347.15,912.1Z"/><path class="cls-3" d="M360.2,903.89h1.73v2.76a4.41,4.41,0,0,1,4.3-2.92v1.87h-.1c-2.33,0-4.2,1.63-4.2,4.85v5.95H360.2Z"/><path class="cls-3" d="M367.81,912.78v-.1c0-2.57,1.85-4,4.61-4a10.15,10.15,0,0,1,3.21.5v-.74a2.84,2.84,0,0,0-3.19-3.1,6.75,6.75,0,0,0-3.19.84l-.55-1.42a8.66,8.66,0,0,1,3.93-1,4.79,4.79,0,0,1,3.51,1.24,4.64,4.64,0,0,1,1.2,3.39v8h-1.71v-1.82a4.3,4.3,0,0,1-3.81,2.08A3.82,3.82,0,0,1,367.81,912.78Zm7.85-.73V910.5a8.76,8.76,0,0,0-3-.51c-2,0-3.09,1-3.09,2.62v.07a2.49,2.49,0,0,0,2.66,2.54A3.25,3.25,0,0,0,375.66,912.05Z"/><path class="cls-3" d="M379.83,918.49c1.18-.43,1.64-1.08,1.56-2.09h-.89v-2.47h2.17V916a2.94,2.94,0,0,1-2.55,3.26Z"/><path class="cls-3" d="M392.24,903.89H394v2a3.9,3.9,0,0,1,3.5-2.24,3.63,3.63,0,0,1,3.46,2.28,4.36,4.36,0,0,1,3.84-2.28c2.42,0,4,1.68,4,4.59v8.16H407v-7.71c0-2.27-1-3.48-2.72-3.48s-2.95,1.3-2.95,3.56v7.63h-1.73v-7.73c0-2.23-1-3.46-2.71-3.46s-2.95,1.47-2.95,3.58v7.61h-1.73Z"/><path class="cls-3" d="M411.37,912.78v-.1c0-2.57,1.85-4,4.61-4a10.15,10.15,0,0,1,3.21.5v-.74a2.84,2.84,0,0,0-3.19-3.1,6.75,6.75,0,0,0-3.19.84l-.55-1.42a8.66,8.66,0,0,1,3.93-1A4.81,4.81,0,0,1,419.7,905a4.69,4.69,0,0,1,1.2,3.39v8h-1.71v-1.82a4.32,4.32,0,0,1-3.81,2.08A3.82,3.82,0,0,1,411.37,912.78Zm7.85-.73V910.5a8.8,8.8,0,0,0-3-.51c-2,0-3.09,1-3.09,2.62v.07a2.49,2.49,0,0,0,2.66,2.54A3.25,3.25,0,0,0,419.22,912.05ZM417.8,898.9l1.78.84-2.52,2.52h-1.32Z"/><path class="cls-3" d="M423.13,914.86l.91-1.27a5.68,5.68,0,0,0,3.65,1.51c1.37,0,2.33-.77,2.33-1.94v0c0-1.1-1-1.67-2.72-2.37-2-.87-3.57-1.66-3.57-3.6v0c0-2,1.65-3.41,3.89-3.41a6.75,6.75,0,0,1,3.93,1.35l-.84,1.32a5.45,5.45,0,0,0-3.14-1.18c-1.32,0-2.16.77-2.16,1.75v0c0,1.06,1.08,1.59,2.78,2.3,2.07.92,3.51,1.78,3.51,3.68v0c0,2.24-1.8,3.61-4.06,3.61A6.94,6.94,0,0,1,423.13,914.86Z"/><path class="cls-3" d="M435.08,913.5v-8.07h-1.51v-1.54h1.51v-3.64h1.73v3.64h3.26v1.54h-3.26v7.78a1.59,1.59,0,0,0,1.8,1.8,3.61,3.61,0,0,0,1.46-.34v1.49a4.26,4.26,0,0,1-1.87.43A2.79,2.79,0,0,1,435.08,913.5Z"/><path class="cls-3" d="M442.18,910.25v-.12c0-3.81,2.24-6.48,5.16-6.48,3.15,0,5,2.69,5,6.46,0,.17,0,.51,0,.72h-8.4c.19,2.76,1.89,4.3,3.86,4.3a4.4,4.4,0,0,0,3.24-1.44l1,1.1a5.64,5.64,0,0,1-4.29,1.87C444.68,916.66,442.18,914.21,442.18,910.25Zm8.45-.76c-.12-2.38-1.25-4.32-3.29-4.32-1.84,0-3.24,1.7-3.4,4.32Z"/><path class="cls-3" d="M455.14,903.89h1.73v2.76a4.42,4.42,0,0,1,4.3-2.92v1.87h-.1c-2.33,0-4.2,1.63-4.2,4.85v5.95h-1.73Z"/><path class="cls-3" d="M477.7,903.89h1.85l-4.44,12.73c-.89,2.59-2,3.48-3.65,3.48a4.74,4.74,0,0,1-2.25-.58l.53-1.44a3.34,3.34,0,0,0,1.63.46c.93,0,1.53-.53,2.16-2.14l-4.8-12.51h1.87l3.74,10.3Z"/><path class="cls-3" d="M487.69,910.28V910c0-4.15,2.44-6.39,5-6.39a4.64,4.64,0,0,1,4.06,2.57v-7.15h1.72V916.4h-1.72V914a4.66,4.66,0,0,1-4.06,2.64C490.13,916.64,487.69,914.46,487.69,910.28Zm9.12,0V910c0-2.95-1.8-4.83-3.77-4.83s-3.58,1.76-3.58,4.83v.19c0,3,1.64,4.85,3.58,4.85S496.81,913.21,496.81,910.25Z"/><path class="cls-3" d="M501.34,910.25v-.16c0-3.65,2.35-6.44,5.57-6.44s5.55,2.77,5.55,6.41v.15c0,3.65-2.36,6.45-5.57,6.45S501.34,913.9,501.34,910.25Zm9.36,0v-.12c0-2.81-1.68-4.9-3.81-4.9s-3.77,2.09-3.77,4.88v.12c0,2.8,1.66,4.89,3.79,4.89S510.7,913,510.7,910.23Z"/><path class="cls-3" d="M514.66,910.28v-.17c0-3.79,2.45-6.46,5.57-6.46a5.3,5.3,0,0,1,3.94,1.71l-1,1.29a4.08,4.08,0,0,0-2.93-1.41c-2.09,0-3.77,2-3.77,4.87v.12c0,2.95,1.73,4.85,3.84,4.85a4,4,0,0,0,2.93-1.44l1,1.15a5.15,5.15,0,0,1-4,1.87C517,916.66,514.66,914.07,514.66,910.28Z"/><path class="cls-3" d="M527.33,913.5v-8.07h-1.51v-1.54h1.51v-3.64h1.73v3.64h3.27v1.54h-3.27v7.78a1.59,1.59,0,0,0,1.8,1.8,3.69,3.69,0,0,0,1.47-.34v1.49a4.34,4.34,0,0,1-1.88.43A2.8,2.8,0,0,1,527.33,913.5Z"/><path class="cls-3" d="M534.44,910.25v-.16c0-3.65,2.35-6.44,5.57-6.44s5.54,2.77,5.54,6.41v.15c0,3.65-2.35,6.45-5.57,6.45S534.44,913.9,534.44,910.25Zm9.36,0v-.12c0-2.81-1.68-4.9-3.82-4.9s-3.77,2.09-3.77,4.88v.12c0,2.8,1.66,4.89,3.8,4.89S543.8,913,543.8,910.23Z"/><path class="cls-3" d="M548.43,903.89h1.73v2.76a4.39,4.39,0,0,1,4.29-2.92v1.87h-.09c-2.33,0-4.2,1.63-4.2,4.85v5.95h-1.73Z"/><path class="cls-3" d="M556,912.78v-.1c0-2.57,1.85-4,4.61-4a10.15,10.15,0,0,1,3.21.5v-.74a2.84,2.84,0,0,0-3.19-3.1,6.75,6.75,0,0,0-3.19.84l-.55-1.42a8.66,8.66,0,0,1,3.93-1,4.81,4.81,0,0,1,3.51,1.24,4.69,4.69,0,0,1,1.2,3.39v8h-1.71v-1.82a4.32,4.32,0,0,1-3.81,2.08A3.82,3.82,0,0,1,556,912.78Zm7.85-.73V910.5a8.8,8.8,0,0,0-3-.51c-2,0-3.09,1-3.09,2.62v.07a2.49,2.49,0,0,0,2.66,2.54A3.25,3.25,0,0,0,563.89,912.05Z"/><path class="cls-3" d="M568.3,910.28V910c0-4.15,2.45-6.39,5-6.39a4.63,4.63,0,0,1,4.06,2.57v-7.15h1.73V916.4h-1.73V914a4.66,4.66,0,0,1-4.06,2.64C570.75,916.64,568.3,914.46,568.3,910.28Zm9.12,0V910c0-2.95-1.8-4.83-3.77-4.83s-3.57,1.76-3.57,4.83v.19c0,3,1.63,4.85,3.57,4.85S577.42,913.21,577.42,910.25Z"/><path class="cls-3" d="M582,910.25v-.16c0-3.65,2.35-6.44,5.57-6.44s5.54,2.77,5.54,6.41v.15c0,3.65-2.35,6.45-5.57,6.45S582,913.9,582,910.25Zm9.36,0v-.12c0-2.81-1.68-4.9-3.82-4.9s-3.77,2.09-3.77,4.88v.12c0,2.8,1.66,4.89,3.8,4.89S591.32,913,591.32,910.23Z"/><path class="cls-3" d="M595.76,913.93h2.16v2.47h-2.16Z"/></svg>